g default
v -0.03479528 3.163207 0.2119457
v -0.03936042 3.172086 0.2209
v -0.0298261 3.165015 0.2179468
v -0.04387079 3.169852 0.2142008
v -0.04004052 3.166172 0.2044937
v -0.0490391 3.177574 0.2232903
v -0.04768215 3.171351 0.2061844
v -0.05131368 3.17402 0.2154929
v -0.05521719 3.17382 0.2072894
v -0.06218852 3.18078 0.2229135
v -0.06181131 3.176532 0.2154444
v -0.0630601 3.174756 0.2071668
v -0.07122669 3.17625 0.2144506
v -0.07277554 3.180643 0.2213837
v -0.06984782 3.174677 0.2056778
v -0.0835646 3.178629 0.2167085
v -0.07938202 3.174419 0.210329
v -0.0764799 3.173087 0.2028461
v -0.09236012 3.175888 0.2100888
v -0.0865147 3.172111 0.2045806
v -0.08169124 3.170548 0.1998072
v -0.09809221 3.171551 0.2036292
v -0.09133086 3.168367 0.1991239
v -0.08598674 3.167486 0.1942007
v -0.08953928 3.164357 0.1880264
v -0.09536748 3.164346 0.190998
v -0.103041 3.165584 0.1950274
v -0.1048307 3.160946 0.1887697
v -0.09773102 3.161553 0.1845233
v -0.09238928 3.162019 0.183697
v -0.08752515 3.161672 0.1878803
v -0.09680602 3.157414 0.1877428
v -0.0985108 3.159749 0.1843082
v -0.09302436 3.153126 0.1941887
v -0.08519208 3.159727 0.1913443
v -0.08138766 3.156984 0.195027
v -0.08909309 3.150327 0.1983173
v -0.0773657 3.155019 0.197767
v -0.08363589 3.147723 0.2028185
v -0.07178285 3.153969 0.2007044
v -0.07550885 3.145404 0.2064088
v -0.06481718 3.153324 0.2033185
v -0.06711607 3.144061 0.2087083
v -0.05915566 3.153511 0.2029493
v -0.05928914 3.144134 0.2102954
v -0.05145885 3.145226 0.2098331
v -0.0528701 3.154359 0.2026673
v -0.04689872 3.155999 0.2016076
v -0.04358839 3.146491 0.2080702
v -0.04191273 3.156248 0.2008019
v -0.03921258 3.147839 0.2076719
v -0.03865958 3.156013 0.2004647
v -0.03498477 3.149354 0.2073533
v 0.03973529 3.172794 0.2211437
v 0.0344683 3.16342 0.2117808
v 0.0298991 3.165841 0.2180702
v 0.04374539 3.170038 0.2141097
v 0.03995476 3.165813 0.2045343
v 0.04925458 3.178091 0.2235492
v 0.04741163 3.171032 0.2062158
v 0.05133804 3.174182 0.215579
v 0.05496487 3.173765 0.207472
v 0.06260832 3.18097 0.2230548
v 0.06196958 3.176681 0.215483
v 0.06293446 3.174788 0.2072993
v 0.0713567 3.176395 0.2145022
v 0.07297482 3.180724 0.2214709
v 0.06981798 3.174681 0.2057607
v 0.08359841 3.178871 0.2168963
v 0.07940081 3.174646 0.2104412
v 0.07647758 3.172958 0.2029353
v 0.09207466 3.176333 0.2105318
v 0.08632526 3.172524 0.2049098
v 0.08189663 3.170464 0.199944
v 0.0979361 3.171936 0.2038628
v 0.09147449 3.168789 0.1992271
v 0.086327 3.167392 0.1942452
v 0.08987866 3.164458 0.1879698
v 0.09550802 3.165133 0.19098
v 0.1030698 3.165989 0.1949659
v 0.1048202 3.161397 0.1887179
v 0.09766687 3.16223 0.1845867
v 0.09238928 3.162019 0.183697
v 0.08750563 3.161637 0.1878672
v 0.09815136 3.160123 0.1841354
v 0.09667967 3.157929 0.1877367
v 0.09292617 3.154284 0.1938803
v 0.08532163 3.159965 0.1914588
v 0.08151621 3.157436 0.1952143
v 0.08901841 3.151699 0.1980313
v 0.07747329 3.155696 0.1980272
v 0.08358525 3.149304 0.2025553
v 0.07169259 3.155098 0.2009047
v 0.07558787 3.147194 0.2062955
v 0.06472541 3.154537 0.2034581
v 0.06722359 3.145851 0.2086508
v 0.05906237 3.154814 0.2030284
v 0.05942495 3.145923 0.2102941
v 0.05175655 3.146826 0.2097696
v 0.05276056 3.155427 0.202916
v 0.04686603 3.15676 0.201908
v 0.04367258 3.147859 0.2078912
v 0.04186222 3.15678 0.2009483
v 0.03929076 3.149032 0.207519
v 0.03859105 3.156368 0.2004726
v 0.03506144 3.150371 0.2072241
vt 0.579343 0.606872
vt 0.589297 0.615552
vt 0.586978 0.603773
vt 0.581045 0.617351
vt 0.57113 0.612695
vt 0.591525 0.625134
vt 0.573313 0.621497
vt 0.58278 0.626313
vt 0.574914 0.628722
vt 0.593658 0.636493
vt 0.584965 0.637768
vt 0.576062 0.638748
vt 0.585605 0.649671
vt 0.59545 0.649102
vt 0.576275 0.648906
vt 0.59634 0.662612
vt 0.585321 0.661483
vt 0.574659 0.660308
vt 0.595237 0.669096
vt 0.584803 0.667896
vt 0.57402 0.666416
vt 0.594133 0.675579
vt 0.584284 0.674309
vt 0.573381 0.672524
vt 0.571148 0.685095
vt 0.583119 0.686618
vt 0.592035 0.68717
vt 0.589518 0.696159
vt 0.580536 0.695102
vt 0.569563 0.693488
vt 0.551678 0.614218
vt 0.565499 0.609283
vt 0.562092 0.60265
vt 0.567813 0.625959
vt 0.554823 0.629698
vt 0.555337 0.635516
vt 0.568128 0.633464
vt 0.555852 0.641334
vt 0.568444 0.64097
vt 0.557315 0.652701
vt 0.569003 0.653265
vt 0.557042 0.657978
vt 0.568982 0.659277
vt 0.556769 0.663255
vt 0.568962 0.665289
vt 0.567726 0.676229
vt 0.555791 0.672737
vt 0.553936 0.680915
vt 0.565674 0.685228
vt 0.5534 0.68477
vt 0.56486 0.690493
vt 0.552863 0.688624
vt 0.564045 0.695757
vt 0.510621 0.615552
vt 0.520575 0.606872
vt 0.51294 0.603773
vt 0.518873 0.617351
vt 0.528788 0.612695
vt 0.508394 0.625134
vt 0.526605 0.621497
vt 0.517138 0.626313
vt 0.525004 0.628722
vt 0.50626 0.636493
vt 0.514953 0.637768
vt 0.523856 0.638748
vt 0.514313 0.649671
vt 0.504468 0.649102
vt 0.523643 0.648906
vt 0.503578 0.662612
vt 0.514597 0.661483
vt 0.525259 0.660308
vt 0.504645 0.668881
vt 0.515098 0.667684
vt 0.525877 0.666214
vt 0.505785 0.675579
vt 0.515634 0.674309
vt 0.526537 0.672524
vt 0.528771 0.685095
vt 0.516799 0.686618
vt 0.507883 0.68717
vt 0.5104 0.696159
vt 0.519382 0.695102
vt 0.530355 0.693488
vt 0.54824 0.614218
vt 0.537826 0.60265
vt 0.53442 0.609283
vt 0.532105 0.625959
vt 0.545095 0.629698
vt 0.544581 0.635516
vt 0.53179 0.633464
vt 0.544066 0.641334
vt 0.531475 0.64097
vt 0.542603 0.652701
vt 0.530915 0.653265
vt 0.542876 0.657978
vt 0.530936 0.659277
vt 0.543149 0.663255
vt 0.530956 0.665289
vt 0.532193 0.676229
vt 0.544127 0.672737
vt 0.545982 0.680915
vt 0.534244 0.685228
vt 0.546519 0.68477
vt 0.535058 0.690493
vt 0.547056 0.688624
vt 0.535873 0.695757
vn -0.4943529 -0.8073499 0.3221819
vn -0.3743269 -0.7745379 0.509873
vn -0.3991578 -0.7446675 0.5349237
vn -0.4356488 -0.8437977 0.3133939
vn -0.5607308 -0.8230076 0.09077197
vn -0.283045 -0.832727 0.475869
vn -0.4765242 -0.8732923 0.101417
vn -0.2897141 -0.9039275 0.3146122
vn -0.287349 -0.9470798 0.143075
vn -0.1316 -0.862123 0.489311
vn -0.115353 -0.9329192 0.3411091
vn -0.09597696 -0.9782826 0.1837159
vn 0.001131 -0.9315811 0.363532
vn -0.05758203 -0.8553014 0.5149212
vn 0.05989402 -0.9779244 0.2001911
vn -0.08796401 -0.858189 0.505741
vn 0.02463699 -0.9208927 0.3890369
vn 0.136569 -0.9557717 0.2604789
vn -0.05692597 -0.8466186 0.5291468
vn 0.05207701 -0.8916591 0.4497021
vn 0.159904 -0.9186482 0.3612701
vn 0.012038 -0.8458898 0.5332218
vn 0.09599804 -0.8817754 0.4617972
vn 0.178593 -0.9057939 0.384242
vn 0.1722449 -0.9171286 0.3594538
vn 0.146875 -0.897038 0.416834
vn 0.120743 -0.8729318 0.4726639
vn 0.209748 -0.8727211 0.440867
vn 0.185757 -0.8973159 0.400398
vn 0.16125 -0.9193761 0.358812
vn -0.3327121 0.6933264 0.6392193
vn -0.3327121 0.6933264 0.6392193
vn -0.3291918 0.6968997 0.6371528
vn -0.3010979 0.6674928 0.6810237
vn -0.3010979 0.6674928 0.6810237
vn -0.2474531 0.6509472 0.7176592
vn -0.2474531 0.6509472 0.7176592
vn -0.215163 0.64613 0.7322711
vn -0.215163 0.64613 0.7322711
vn -0.1927049 0.5990087 0.7772086
vn -0.1927049 0.5990087 0.7772086
vn -0.134884 0.5672821 0.8124022
vn -0.134884 0.5672821 0.8124022
vn -0.06391101 0.5924432 0.8030732
vn -0.06391101 0.5924432 0.8030732
vn -0.002271999 0.6058748 0.7955567
vn -0.002271999 0.6058748 0.7955567
vn 0.01985801 0.5967772 0.8021613
vn 0.01985801 0.5967772 0.8021613
vn -0.023309 0.630606 0.7757531
vn -0.023309 0.630606 0.7757531
vn -0.047817 0.662428 0.747598
vn -0.047817 0.662428 0.747598
vn 0.3573171 -0.7787994 0.5155542
vn 0.475818 -0.806695 0.350486
vn 0.381708 -0.75168 0.537844
vn 0.4217132 -0.8415034 0.3376831
vn 0.5475488 -0.8238067 0.146741
vn 0.268789 -0.8332781 0.483115
vn 0.4694669 -0.8708198 0.145855
vn 0.2824009 -0.9007228 0.330073
vn 0.2880661 -0.9428842 0.1672941
vn 0.12357 -0.8630973 0.4896871
vn 0.1118469 -0.9305135 0.3487618
vn 0.09738 -0.975089 0.199295
vn 0.001351 -0.9288168 0.3705369
vn 0.05742602 -0.8588244 0.5090412
vn -0.05483397 -0.9735615 0.2217459
vn 0.09230798 -0.8615078 0.4992829
vn -0.011132 -0.916643 0.399552
vn -0.114393 -0.9500851 0.290263
vn 0.06009202 -0.8515004 0.5208992
vn -0.02887101 -0.8887402 0.4575011
vn -0.117325 -0.914115 0.388109
vn -0.015599 -0.8574732 0.5142921
vn -0.06311597 -0.8864235 0.4585518
vn -0.1101931 -0.9098535 0.4000302
vn -0.08637799 -0.9148188 0.3945189
vn -0.113535 -0.8972719 0.4266299
vn -0.1405949 -0.8777565 0.4580137
vn -0.240682 -0.8657312 0.4388411
vn -0.159176 -0.88835 0.4306939
vn -0.07654005 -0.9045504 0.4194402
vn 0.3193068 0.7404386 0.5914336
vn 0.3112859 0.7497489 0.5839329
vn 0.3193068 0.7404386 0.5914336
vn 0.2973199 0.7019247 0.6472268
vn 0.2973199 0.7019247 0.6472268
vn 0.251318 0.6768571 0.6918842
vn 0.251318 0.6768571 0.6918842
vn 0.2276169 0.6694459 0.7071298
vn 0.2276169 0.6694459 0.7071298
vn 0.201098 0.617411 0.7605019
vn 0.201098 0.617411 0.7605019
vn 0.135513 0.5823858 0.8015378
vn 0.135513 0.5823858 0.8015378
vn 0.06024 0.6067159 0.7926329
vn 0.06024 0.6067159 0.7926329
vn -0.015295 0.6143311 0.7889001
vn -0.015295 0.6143311 0.7889001
vn -0.04901998 0.6047549 0.7949017
vn -0.04901998 0.6047549 0.7949017
vn -0.011701 0.6524911 0.757706
vn -0.011701 0.6524911 0.757706
vn 0.011545 0.6932819 0.720574
vn 0.011545 0.6932819 0.720574
g default_0
f 3/3/3 2/2/2 1/1/1
f 1/1/1 2/2/2 4/4/4
f 1/1/1 4/4/4 5/5/5
f 2/2/2 6/6/6 4/4/4
f 5/5/5 4/4/4 7/7/7
f 4/4/4 6/6/6 8/8/8
f 4/4/4 8/8/8 7/7/7
f 7/7/7 8/8/8 9/9/9
f 6/6/6 10/10/10 8/8/8
f 8/8/8 11/11/11 9/9/9
f 8/8/8 10/10/10 11/11/11
f 9/9/9 11/11/11 12/12/12
f 10/10/10 13/13/13 11/11/11
f 11/11/11 13/13/13 12/12/12
f 14/14/14 13/13/13 10/10/10
f 12/12/12 13/13/13 15/15/15
f 14/14/14 16/16/16 13/13/13
f 13/13/13 17/17/17 15/15/15
f 13/13/13 16/16/16 17/17/17
f 15/15/15 17/17/17 18/18/18
f 16/16/16 19/19/19 17/17/17
f 17/17/17 20/20/20 18/18/18
f 17/17/17 19/19/19 20/20/20
f 18/18/18 20/20/20 21/21/21
f 19/19/19 22/22/22 20/20/20
f 20/20/20 23/23/23 21/21/21
f 20/20/20 22/22/22 23/23/23
f 21/21/21 23/23/23 24/24/24
f 24/24/24 23/23/23 25/25/25
f 23/23/23 22/22/22 26/26/26
f 25/25/25 23/23/23 26/26/26
f 26/26/26 22/22/22 27/27/27
f 27/27/27 28/28/28 26/26/26
f 26/26/26 28/28/28 29/29/29
f 26/26/26 29/29/29 25/25/25
f 25/25/25 29/29/29 30/30/30
f 33/33/33 32/32/32 31/31/31
f 32/32/32 34/34/34 31/31/31
f 31/31/31 34/34/34 35/35/35
f 34/34/34 36/36/36 35/35/35
f 37/37/37 36/36/36 34/34/34
f 37/37/37 38/38/38 36/36/36
f 39/39/39 38/38/38 37/37/37
f 39/39/39 40/40/40 38/38/38
f 41/41/41 40/40/40 39/39/39
f 41/41/41 42/42/42 40/40/40
f 43/43/43 42/42/42 41/41/41
f 43/43/43 44/44/44 42/42/42
f 45/45/45 44/44/44 43/43/43
f 45/45/45 46/46/46 44/44/44
f 44/44/44 46/46/46 47/47/47
f 46/46/46 48/48/48 47/47/47
f 49/49/49 48/48/48 46/46/46
f 49/49/49 50/50/50 48/48/48
f 51/51/51 50/50/50 49/49/49
f 51/51/51 52/52/52 50/50/50
f 53/53/53 52/52/52 51/51/51
f 56/56/56 55/55/55 54/54/54
f 54/54/54 55/55/55 57/57/57
f 55/55/55 58/58/58 57/57/57
f 54/54/54 57/57/57 59/59/59
f 57/57/57 58/58/58 60/60/60
f 59/59/59 57/57/57 61/61/61
f 57/57/57 60/60/60 61/61/61
f 61/61/61 60/60/60 62/62/62
f 59/59/59 61/61/61 63/63/63
f 61/61/61 62/62/62 64/64/64
f 63/63/63 61/61/61 64/64/64
f 64/64/64 62/62/62 65/65/65
f 66/66/66 63/63/63 64/64/64
f 64/64/64 65/65/65 66/66/66
f 67/67/67 63/63/63 66/66/66
f 66/66/66 65/65/65 68/68/68
f 67/67/67 66/66/66 69/69/69
f 66/66/66 68/68/68 70/70/70
f 69/69/69 66/66/66 70/70/70
f 70/70/70 68/68/68 71/71/71
f 69/69/69 70/70/70 72/72/72
f 70/70/70 71/71/71 73/73/73
f 72/72/72 70/70/70 73/73/73
f 73/73/73 71/71/71 74/74/74
f 72/72/72 73/73/73 75/75/75
f 73/73/73 74/74/74 76/76/76
f 75/75/75 73/73/73 76/76/76
f 76/76/76 74/74/74 77/77/77
f 77/77/77 78/78/78 76/76/76
f 76/76/76 79/79/79 75/75/75
f 76/76/76 78/78/78 79/79/79
f 75/75/75 79/79/79 80/80/80
f 80/80/80 79/79/79 81/81/81
f 81/81/81 79/79/79 82/82/82
f 79/79/79 78/78/78 82/82/82
f 82/82/82 78/78/78 83/83/83
f 86/86/86 85/85/85 84/84/84
f 86/86/86 84/84/84 87/87/87
f 87/87/87 84/84/84 88/88/88
f 89/89/89 87/87/87 88/88/88
f 90/90/90 87/87/87 89/89/89
f 91/91/91 90/90/90 89/89/89
f 92/92/92 90/90/90 91/91/91
f 93/93/93 92/92/92 91/91/91
f 94/94/94 92/92/92 93/93/93
f 95/95/95 94/94/94 93/93/93
f 96/96/96 94/94/94 95/95/95
f 97/97/97 96/96/96 95/95/95
f 98/98/98 96/96/96 97/97/97
f 98/98/98 97/97/97 99/99/99
f 99/99/99 97/97/97 100/100/100
f 101/101/101 99/99/99 100/100/100
f 102/102/102 99/99/99 101/101/101
f 103/103/103 102/102/102 101/101/101
f 104/104/104 102/102/102 103/103/103
f 105/105/105 104/104/104 103/103/103
f 106/106/106 104/104/104 105/105/105
