g Combined Mesh (root: scene) 140
v -14.13578 159.9905 3.476074
v -14.11127 159.9854 3.443376
v -14.06145 160.1662 3.452414
v -14.09259 160.1473 3.483909
v -14.46621 160.2508 3.992397
v -14.47284 160.2267 3.991194
v -15.03026 160.4427 2.734789
v -15.41051 160.5222 3.242074
v -15.40379 160.5466 3.243293
v -14.99903 160.462 2.70331
v -15.04886 160.2812 2.694272
v -15.07337 160.2863 2.72697
v -9.896176 169.543 -0.2490663
v -9.91855 169.3616 0.3631623
v -9.907522 169.3396 0.3570557
v -9.883707 169.5328 -0.2946348
v -9.965467 169.6956 -0.2493572
v -9.966909 169.6839 -0.2098954
v -11.07877 169.1787 -0.4002363
v -11.07733 169.1904 -0.4396982
v -10.99557 169.0275 -0.4849758
v -11.00789 169.0375 -0.4394879
v -11.01938 168.8344 0.1667147
v -11.03027 168.8561 0.1727406
vn -0.7585602 0.2393044 -0.6060693
vn -0.7585602 0.2393044 -0.6060693
vn -0.7585602 0.2393044 -0.6060693
vn -0.7585602 0.2393044 -0.6060693
vn -0.7585602 0.2393044 -0.6060693
vn -0.7585602 0.2393044 -0.6060693
vn 0.7585602 -0.2393044 0.6060693
vn 0.7585602 -0.2393044 0.6060693
vn 0.7585602 -0.2393044 0.6060693
vn 0.7585602 -0.2393044 0.6060693
vn 0.7585602 -0.2393044 0.6060693
vn 0.7585602 -0.2393044 0.6060693
vn -0.8995616 -0.4087466 -0.153997
vn -0.8995616 -0.4087466 -0.153997
vn -0.8995616 -0.4087466 -0.153997
vn -0.8995616 -0.4087466 -0.153997
vn -0.8995616 -0.4087466 -0.153997
vn -0.8995616 -0.4087466 -0.153997
vn 0.8995616 0.4087466 0.153997
vn 0.8995616 0.4087466 0.153997
vn 0.8995616 0.4087466 0.153997
vn 0.8995616 0.4087466 0.153997
vn 0.8995616 0.4087466 0.153997
vn 0.8995616 0.4087466 0.153997
g Combined Mesh (root: scene) 140_0
f 3/3/3 2/2/2 1/1/1
f 1/1/1 4/4/4 3/3/3
f 5/5/5 3/3/3 4/4/4
f 4/4/4 6/6/6 5/5/5
g Combined Mesh (root: scene) 140_1
f 9/9/9 8/8/8 7/7/7
f 10/10/10 9/9/9 7/7/7
f 7/7/7 11/11/11 10/10/10
f 11/11/11 7/7/7 12/12/12
g Combined Mesh (root: scene) 140_2
f 15/15/15 14/14/14 13/13/13
f 16/16/16 15/15/15 13/13/13
f 13/13/13 17/17/17 16/16/16
f 17/17/17 13/13/13 18/18/18
g Combined Mesh (root: scene) 140_3
f 21/21/21 20/20/20 19/19/19
f 19/19/19 22/22/22 21/21/21
f 23/23/23 21/21/21 22/22/22
f 22/22/22 24/24/24 23/23/23
