g Combined Mesh (root: scene) 114
v -27.65138 166.4631 0.4843593
v -28.55171 166.6675 -0.220275
v -28.92975 166.781 0.2956712
v -28.02942 166.5766 1.000306
v -28.41703 164.3078 0.9501677
v -29.25371 164.5862 1.706065
v -28.84246 164.4848 2.198595
v -28.00578 164.2064 1.442697
v -11.68119 145.2278 -4.911819
v -12.91166 144.7896 -4.539287
v -12.74185 144.9956 -3.73604
v -11.51138 145.4339 -4.108572
vn -0.2457611 -0.9687691 0.03298657
vn -0.2457611 -0.9687691 0.03298657
vn -0.2457611 -0.9687691 0.03298657
vn -0.2457611 -0.9687691 0.03298657
vn -0.283299 -0.9582267 0.03928615
vn -0.283299 -0.9582267 0.03928615
vn -0.283299 -0.9582267 0.03928615
vn -0.283299 -0.9582267 0.03928615
vn 0.3729337 -0.9146886 0.1557739
vn 0.3729337 -0.9146886 0.1557739
vn 0.3729337 -0.9146886 0.1557739
vn 0.3729337 -0.9146886 0.1557739
g Combined Mesh (root: scene) 114_0
f 3/3/3 2/2/2 1/1/1
f 1/1/1 4/4/4 3/3/3
g Combined Mesh (root: scene) 114_1
f 7/7/7 6/6/6 5/5/5
f 5/5/5 8/8/8 7/7/7
g Combined Mesh (root: scene) 114_2
f 11/11/11 10/10/10 9/9/9
f 9/9/9 12/12/12 11/11/11
