g Combined Mesh (root: scene) 242
v -11.16972 170.5284 -0.005648315
v -11.1083 170.4032 -0.004261315
v -11.10983 170.4025 -0.003817856
v -11.1083 170.4032 -0.004261315
v -11.16972 170.5284 -0.005648315
v -11.10983 170.4025 -0.003817856
v -10.97756 170.1368 -0.001308978
v -10.65332 169.4761 0.006012797
v -10.60833 169.498 -0.006990254
v -10.60833 169.498 -0.006990254
v -10.74011 170.2136 -0.06511486
v -10.97756 170.1368 -0.001308978
v -10.74011 170.2136 -0.06511486
v -11.2565 171.2659 -0.07677603
v -10.97756 170.1368 -0.001308978
v -11.2565 171.2659 -0.07677603
v -11.1083 170.4032 -0.004261315
v -10.97756 170.1368 -0.001308978
v -11.2565 171.2659 -0.07677603
v -11.16972 170.5284 -0.005648315
v -11.1083 170.4032 -0.004261315
v -11.2565 171.2659 -0.07677603
v -11.47852 171.1576 -0.01262152
v -11.16972 170.5284 -0.005648315
v -10.74011 170.2136 -0.06511486
v -10.60833 169.498 -0.006990254
v -10.43131 169.5843 -0.05814171
v -11.65553 171.0713 0.03852987
v -11.47852 171.1576 -0.01262152
v -12.17151 170.8112 -0.5842078
v -11.47852 171.1576 -0.01262152
v -11.2565 171.2659 -0.07677603
v -12.17151 170.8112 -0.5842078
v -11.2565 171.2659 -0.07677603
v -11.21151 171.2878 -0.08977902
v -12.17151 170.8112 -0.5842078
v -11.03449 171.3741 -0.1409305
v -10.79017 171.4932 -0.2115303
v -11.21151 171.2878 -0.08977902
v -11.03449 171.3741 -0.1409305
v -12.17151 170.8112 -0.5842078
v -12.17151 170.8112 -0.5842078
v -10.79017 171.4932 -0.2115303
v -10.95583 171.4039 -0.935499
v -10.95583 171.4039 -0.935499
v -10.79017 171.4932 -0.2115303
v -10.93404 171.4156 -0.8402399
v -10.81197 171.4815 -0.3067893
v -10.93404 171.4156 -0.8402399
v -10.79017 171.4932 -0.2115303
v -11.23421 169.3281 0.157186
v -11.18066 169.219 0.1583952
v -11.13566 169.2409 0.1453921
v -11.13566 169.2409 0.1453921
v -10.9597 169.3267 0.09454596
v -11.23421 169.3281 0.157186
v -11.2685 169.956 0.08757281
v -11.50489 169.8797 0.1510733
v -11.28899 169.4397 0.1559488
v -11.2685 169.956 0.08757281
v -11.78489 171.0083 0.07591164
v -11.50489 169.8797 0.1510733
v -11.78489 171.0083 0.07591164
v -11.50492 169.8797 0.1510729
v -11.50489 169.8797 0.1510733
v -11.78489 171.0083 0.07591164
v -11.69705 170.2713 0.146734
v -11.6341 170.1469 0.1476777
v -11.78489 171.0083 0.07591164
v -12.00585 170.9006 0.1397609
v -11.69705 170.2713 0.146734
v -12.00585 170.9006 0.1397609
v -11.78489 171.0083 0.07591164
v -12.17151 170.8112 -0.5842078
v -11.70053 171.0494 0.05153298
v -11.65553 171.0713 0.03852987
v -10.9597 169.3267 0.09454596
v -11.2685 169.956 0.08757281
v -11.23421 169.3281 0.157186
v -11.28899 169.4397 0.1559488
v -11.78489 171.0083 0.07591164
v -11.6341 170.1469 0.1476777
v -11.50492 169.8797 0.1510729
v -11.63563 170.1461 0.1481211
v -10.93404 171.4156 -0.8402399
v -10.81197 171.4815 -0.3067893
v -10.79017 171.4932 -0.2115303
v -10.79017 171.4932 -0.2115303
v -10.95583 171.4039 -0.935499
v -10.93404 171.4156 -0.8402399
v -10.60833 169.498 -0.006990254
v -10.74011 170.2136 -0.06511486
v -10.43131 169.5843 -0.05814171
v -10.97756 170.1368 -0.001308978
v -10.65332 169.4761 0.006012797
v -11.2565 171.2659 -0.07677603
v -11.1083 170.4032 -0.004261315
v -11.16972 170.5284 -0.005648315
v -11.47852 171.1576 -0.01262152
v -10.79017 171.4932 -0.2115303
v -12.17151 170.8112 -0.5842078
v -10.95583 171.4039 -0.935499
v -11.03449 171.3741 -0.1409305
v -11.21151 171.2878 -0.08977902
v -11.2565 171.2659 -0.07677603
v -11.47852 171.1576 -0.01262152
v -11.65553 171.0713 0.03852987
v -11.70053 171.0494 0.05153298
v -11.78489 171.0083 0.07591164
v -12.00585 170.9006 0.1397609
v -12.00585 170.9006 0.1397609
v -11.78489 171.0083 0.07591164
v -11.69705 170.2713 0.146734
v -11.6341 170.1469 0.1476777
v -11.50492 169.8797 0.1510729
v -11.63563 170.1461 0.1481211
v -11.50492 169.8797 0.1510729
v -11.78489 171.0083 0.07591164
v -11.50489 169.8797 0.1510733
v -11.2685 169.956 0.08757281
v -11.28899 169.4397 0.1559488
v -11.23421 169.3281 0.157186
v -10.9597 169.3267 0.09454596
v -11.13566 169.2409 0.1453921
v -11.18066 169.219 0.1583952
v -11.55744 170.0485 0.1219308
v -10.38752 170.6189 -0.2161384
v -10.40496 170.6095 -0.2923457
v -10.40496 170.6095 -0.2923457
v -10.54446 170.5343 -0.9020036
v -11.55744 170.0485 0.1219308
v -10.54446 170.5343 -0.9020036
v -11.71439 169.9639 -0.5639343
v -11.55744 170.0485 0.1219308
v -11.71439 169.9639 -0.5639343
v -10.54446 170.5343 -0.9020036
v -11.55744 170.0485 0.1219308
v -10.40496 170.6095 -0.2923457
v -10.38752 170.6189 -0.2161384
v -11.73173 169.9993 -0.5643259
v -10.56181 170.5696 -0.9023952
v -10.4223 170.6448 -0.2927374
v -10.4223 170.6448 -0.2927374
v -10.40487 170.6542 -0.2165301
v -11.73173 169.9993 -0.5643259
v -10.40487 170.6542 -0.2165301
v -11.57479 170.0839 0.1215392
v -11.73173 169.9993 -0.5643259
v -11.57479 170.0839 0.1215392
v -10.40487 170.6542 -0.2165301
v -11.73173 169.9993 -0.5643259
v -10.4223 170.6448 -0.2927374
v -10.56181 170.5696 -0.9023952
vt 0.3710379 0.7979669
vt 0.3941152 0.7978075
vt 0.3710355 0.7977533
vt 0.3710379 0.7979669
vt 0.3710379 0.7979669
vt 0.3710379 0.7979669
vt 0.2001687 0.8054104
vt 0.3164584 0.8292463
vt 0.2004403 0.8300476
vt 0.5101332 0.7970062
vt 0.5104739 0.8279062
vt 0.3941152 0.7978075
vt 0.3941152 0.7978075
vt 0.5104739 0.8279062
vt 0.3710379 0.7979669
vt 0.3710379 0.7979669
vt 0.5104739 0.8279062
vt 0.3219181 0.7983061
vt 0.5104739 0.8279062
vt 0.3164584 0.8292463
vt 0.3219181 0.7983061
vt 0.3164584 0.8292463
vt 0.2001687 0.8054104
vt 0.3219181 0.7983061
vt 0.2000996 0.7991475
vt 0.3219181 0.7983061
vt 0.2001687 0.8054104
vt 0.199906 0.8300513
vt 0.3270153 0.8291733
vt 0.8323781 0.8256829
vt 0.3270153 0.8291733
vt 0.4191095 0.8285373
vt 0.8323781 0.8256829
vt 0.4191095 0.8285373
vt 0.4425204 0.8283756
vt 0.8323781 0.8256829
vt 0.5580255 0.8275778
vt 0.6501197 0.8269417
vt 0.4425204 0.8283756
vt 0.5580255 0.8275778
vt 0.8323781 0.8256829
vt 0.6501197 0.8269417
vt 0.6735307 0.8267801
vt 0.8323781 0.8256829
vt 0.6735307 0.8267801
vt 0.7174226 0.8264769
vt 0.8323781 0.8256829
vt 0.7174226 0.8264769
vt 0.8323781 0.8256829
vt 0.8323781 0.8256829
vt 0.5101332 0.7970062
vt 0.5104723 0.8277592
vt 0.3941152 0.7978075
vt 0.3941152 0.7978075
vt 0.5104723 0.8277592
vt 0.3710403 0.7981805
vt 0.3219271 0.7983061
vt 0.5104723 0.8277592
vt 0.3219181 0.7983061
vt 0.5104723 0.8277592
vt 0.3164567 0.8290992
vt 0.3219181 0.7983061
vt 0.3219181 0.7983061
vt 0.3164567 0.8290992
vt 0.240802 0.7988664
vt 0.2004387 0.8299005
vt 0.2001687 0.8054104
vt 0.2202179 0.7990086
vt 0.2000996 0.7991475
vt 0.2202179 0.7990086
vt 0.2001687 0.8054104
vt 0.199906 0.8300513
vt 0.199906 0.8300513
vt 0.199906 0.8300513
vt 0.199906 0.8300513
vt 0.8323781 0.8256829
vt 0.3710379 0.7979669
vt 0.3710403 0.7981805
vt 0.3219271 0.7983061
vt 0.5104723 0.8277592
vt 0.240802 0.7988664
vt 0.3164567 0.8290992
vt 0.2202179 0.7990086
vt 0.2004387 0.8299005
vt 0.2001687 0.8054104
vt 0.2001687 0.8054104
vt 0.2001687 0.8054104
vt 0.2001687 0.8054104
vt 0.2001687 0.8054104
vt 0.2001687 0.8054104
vt 0.2001687 0.8054104
vt 0.2001687 0.8054104
vt 0.2001687 0.8054104
vt 0.2001687 0.8054104
vt 0.2001687 0.8054104
vt 0.2001687 0.8054104
vt 0.2001687 0.8054104
vt 0.2001687 0.8054104
vt 0.2001687 0.8054104
vt 0.2001687 0.8054104
vt 0.2001687 0.8054104
vt 0.2001687 0.8054104
vt 0.2001687 0.8054104
vt 0.2001687 0.8054104
vt 0.2001687 0.8054104
vt 0.2001687 0.8054104
vt 0.2001687 0.8054104
vt 0.2001687 0.8054104
vt 0.2001687 0.8054104
vt 0.2001687 0.8054104
vt 0.2001687 0.8054104
vt 0.2001687 0.8054104
vt 0.2001687 0.8054104
vt 0.2001687 0.8054104
vt 0.2001687 0.8054104
vt 0.2001687 0.8054104
vt 0.2001687 0.8054104
vt 0.2001687 0.8054104
vt 0.2001687 0.8054104
vt 0.2001687 0.8054104
vt 0.2001687 0.8054104
vt 0.2001687 0.8054104
vt 0.2001687 0.8054104
vt 0.2001687 0.8054104
vt 0.2001687 0.8054104
vt -0.629272 0.0210939
vt -0.0240548 0.0210939
vt -0.629272 0.2742208
vt -0.0240548 0.0210939
vt -0.0240548 0.2460956
vt -0.629272 0.2742208
vt -0.0240548 0.2742208
vt -0.629272 0.2742208
vt -0.0240548 0.2460956
vt -0.629272 0.0210939
vt -0.629272 0.0210939
vt -0.629272 0.0210939
vt -0.629272 0.0210939
vt -0.629272 0.0210939
vt 0.629272 0.2742208
vt 0.0240548 0.2742208
vt 0.629272 0.0210939
vt 0.0240548 0.2742208
vt 0.0240548 0.2460956
vt 0.629272 0.0210939
vt 0.0240548 0.0210939
vt 0.629272 0.0210939
vt 0.0240548 0.2460956
vt 0.629272 0.2742208
vt 0.629272 0.2742208
vt 0.629272 0.2742208
vt 0.629272 0.2742208
vt 0.629272 0.2742208
vn 0.221461 0.1194012 0.9678318
vn 0.221461 0.1194012 0.9678318
vn 0.221461 0.1194012 0.9678318
vn -0.221461 -0.1194012 -0.9678318
vn -0.221461 -0.1194012 -0.9678318
vn -0.221461 -0.1194012 -0.9678318
vn -0.221461 -0.1194012 -0.9678318
vn -0.221461 -0.1194012 -0.9678318
vn -0.221461 -0.1194012 -0.9678318
vn -0.221461 -0.1194012 -0.9678318
vn -0.221461 -0.1194012 -0.9678318
vn -0.221461 -0.1194012 -0.9678318
vn -0.221461 -0.1194012 -0.9678318
vn -0.221461 -0.1194012 -0.9678318
vn -0.221461 -0.1194012 -0.9678318
vn -0.221461 -0.1194012 -0.9678318
vn -0.221461 -0.1194012 -0.9678318
vn -0.221461 -0.1194012 -0.9678318
vn -0.221461 -0.1194012 -0.9678318
vn -0.221461 -0.1194012 -0.9678318
vn -0.221461 -0.1194012 -0.9678318
vn -0.221461 -0.1194012 -0.9678318
vn -0.221461 -0.1194012 -0.9678318
vn -0.221461 -0.1194012 -0.9678318
vn -0.221461 -0.1194012 -0.9678318
vn -0.221461 -0.1194012 -0.9678318
vn -0.221461 -0.1194012 -0.9678318
vn 0.4405175 -0.8976889 0.009947658
vn 0.4405175 -0.8976889 0.009947658
vn 0.4405175 -0.8976889 0.009947658
vn 0.4405175 -0.8976889 0.009947658
vn 0.4405175 -0.8976889 0.009947658
vn 0.4405175 -0.8976889 0.009947658
vn 0.4405175 -0.8976889 0.009947658
vn 0.4405175 -0.8976889 0.009947658
vn 0.4405175 -0.8976889 0.009947658
vn 0.4405175 -0.8976889 0.009947658
vn 0.4405175 -0.8976889 0.009947658
vn 0.4405175 -0.8976889 0.009947658
vn 0.4405175 -0.8976889 0.009947658
vn 0.4405175 -0.8976889 0.009947658
vn 0.4405175 -0.8976889 0.009947658
vn 0.4405175 -0.8976889 0.009947658
vn 0.4405175 -0.8976889 0.009947658
vn 0.4405175 -0.8976889 0.009947658
vn 0.4405175 -0.8976889 0.009947658
vn 0.4405175 -0.8976889 0.009947658
vn 0.4405175 -0.8976889 0.009947658
vn 0.4405175 -0.8976889 0.009947658
vn 0.4405175 -0.8976889 0.009947658
vn -0.221461 -0.1194012 -0.9678318
vn -0.221461 -0.1194012 -0.9678318
vn -0.221461 -0.1194012 -0.9678318
vn -0.221461 -0.1194012 -0.9678318
vn -0.221461 -0.1194012 -0.9678318
vn -0.221461 -0.1194012 -0.9678318
vn -0.221461 -0.1194012 -0.9678318
vn -0.221461 -0.1194012 -0.9678318
vn -0.221461 -0.1194012 -0.9678318
vn -0.221461 -0.1194012 -0.9678318
vn -0.221461 -0.1194012 -0.9678318
vn -0.221461 -0.1194012 -0.9678318
vn -0.221461 -0.1194012 -0.9678318
vn -0.221461 -0.1194012 -0.9678318
vn -0.221461 -0.1194012 -0.9678318
vn -0.221461 -0.1194012 -0.9678318
vn -0.221461 -0.1194012 -0.9678318
vn -0.221461 -0.1194012 -0.9678318
vn -0.221461 -0.1194012 -0.9678318
vn -0.221461 -0.1194012 -0.9678318
vn -0.221461 -0.1194012 -0.9678318
vn 0.4405175 -0.8976889 0.009947658
vn 0.4405175 -0.8976889 0.009947658
vn 0.4405175 -0.8976889 0.009947658
vn 0.4405175 -0.8976889 0.009947658
vn 0.4405175 -0.8976889 0.009947658
vn -0.221461 -0.1194012 -0.9678318
vn -0.221461 -0.1194012 -0.9678318
vn -0.221461 -0.1194012 -0.9678318
vn -0.221461 -0.1194012 -0.9678318
vn -0.221461 -0.1194012 -0.9678318
vn -0.221461 -0.1194012 -0.9678318
vn -0.221461 -0.1194012 -0.9678318
vn -0.221461 -0.1194012 -0.9678318
vn -0.4405175 0.8976889 -0.009947658
vn -0.4405175 0.8976889 -0.009947658
vn -0.4405175 0.8976889 -0.009947658
vn -0.4405175 0.8976889 -0.009947658
vn -0.4405175 0.8976889 -0.009947658
vn -0.4405175 0.8976889 -0.009947658
vn 0.221461 0.1194012 0.9678318
vn 0.221461 0.1194012 0.9678318
vn 0.221461 0.1194012 0.9678318
vn 0.221461 0.1194012 0.9678318
vn 0.221461 0.1194012 0.9678318
vn 0.221461 0.1194012 0.9678318
vn 0.221461 0.1194012 0.9678318
vn 0.221461 0.1194012 0.9678318
vn 0.221461 0.1194012 0.9678318
vn -0.4405175 0.8976889 -0.009947658
vn -0.4405175 0.8976889 -0.009947658
vn -0.4405175 0.8976889 -0.009947658
vn -0.4405175 0.8976889 -0.009947658
vn -0.4405175 0.8976889 -0.009947658
vn -0.4405175 0.8976889 -0.009947658
vn -0.4405175 0.8976889 -0.009947658
vn -0.4405175 0.8976889 -0.009947658
vn -0.4405175 0.8976889 -0.009947658
vn -0.4405175 0.8976889 -0.009947658
vn -0.4405175 0.8976889 -0.009947658
vn 0.221461 0.1194012 0.9678318
vn 0.221461 0.1194012 0.9678318
vn 0.221461 0.1194012 0.9678318
vn 0.221461 0.1194012 0.9678318
vn 0.221461 0.1194012 0.9678318
vn 0.221461 0.1194012 0.9678318
vn 0.221461 0.1194012 0.9678318
vn 0.221461 0.1194012 0.9678318
vn 0.221461 0.1194012 0.9678318
vn 0.221461 0.1194012 0.9678318
vn 0.221461 0.1194012 0.9678318
vn 0.221461 0.1194012 0.9678318
vn 0.221461 0.1194012 0.9678318
vn 0.221461 0.1194012 0.9678318
vn 0.221461 0.1194012 0.9678318
vn 0.4405175 -0.8976889 0.009947658
vn 0.4405175 -0.8976889 0.009947658
vn 0.4405175 -0.8976889 0.009947658
vn 0.4405175 -0.8976889 0.009947658
vn 0.4405175 -0.8976889 0.009947658
vn 0.4405175 -0.8976889 0.009947658
vn 0.4405175 -0.8976889 0.009947658
vn 0.4405175 -0.8976889 0.009947658
vn 0.4405175 -0.8976889 0.009947658
vn -0.4405175 0.8976889 -0.009947658
vn -0.4405175 0.8976889 -0.009947658
vn -0.4405175 0.8976889 -0.009947658
vn -0.4405175 0.8976889 -0.009947658
vn -0.4405175 0.8976889 -0.009947658
vn -0.4405175 0.8976889 -0.009947658
vn -0.4405175 0.8976889 -0.009947658
vn -0.4405175 0.8976889 -0.009947658
vn -0.4405175 0.8976889 -0.009947658
vn -0.4405175 0.8976889 -0.009947658
vn -0.4405175 0.8976889 -0.009947658
vn -0.4405175 0.8976889 -0.009947658
vn -0.4405175 0.8976889 -0.009947658
vn -0.4405175 0.8976889 -0.009947658
vn 0.4405175 -0.8976889 0.009947658
vn 0.4405175 -0.8976889 0.009947658
vn 0.4405175 -0.8976889 0.009947658
vn 0.4405175 -0.8976889 0.009947658
vn 0.4405175 -0.8976889 0.009947658
g Combined Mesh (root: scene) 242_0
f 3/3/3 2/2/2 1/1/1
g Combined Mesh (root: scene) 242_1
f 6/6/6 5/5/5 4/4/4
g Combined Mesh (root: scene) 242_2
f 9/9/9 8/8/8 7/7/7
f 12/12/12 11/11/11 10/10/10
f 15/15/15 14/14/14 13/13/13
f 18/18/18 17/17/17 16/16/16
f 21/21/21 20/20/20 19/19/19
f 24/24/24 23/23/23 22/22/22
f 27/27/27 26/26/26 25/25/25
f 30/30/30 29/29/29 28/28/28
f 33/33/33 32/32/32 31/31/31
f 36/36/36 35/35/35 34/34/34
f 36/36/36 38/38/38 37/37/37
f 41/41/41 40/40/40 39/39/39
f 44/44/44 43/43/43 42/42/42
f 47/47/47 46/46/46 45/45/45
f 50/50/50 49/49/49 48/48/48
f 53/53/53 52/52/52 51/51/51
f 56/56/56 55/55/55 54/54/54
f 59/59/59 58/58/58 57/57/57
f 62/62/62 61/61/61 60/60/60
f 65/65/65 64/64/64 63/63/63
f 68/68/68 67/67/67 66/66/66
f 71/71/71 70/70/70 69/69/69
f 74/74/74 73/73/73 72/72/72
f 74/74/74 75/75/75 73/73/73
f 74/74/74 76/76/76 75/75/75
f 79/79/79 78/78/78 77/77/77
f 79/79/79 80/80/80 78/78/78
f 83/83/83 82/82/82 81/81/81
f 83/83/83 84/84/84 82/82/82
g Combined Mesh (root: scene) 242_3
f 87/87/87 86/86/86 85/85/85
f 90/90/90 89/89/89 88/88/88
f 93/93/93 92/92/92 91/91/91
f 94/94/94 91/91/91 92/92/92
f 91/91/91 94/94/94 95/95/95
f 94/94/94 92/92/92 96/96/96
f 94/94/94 96/96/96 97/97/97
f 97/97/97 96/96/96 98/98/98
f 98/98/98 96/96/96 99/99/99
f 102/102/102 101/101/101 100/100/100
f 101/101/101 103/103/103 100/100/100
f 101/101/101 104/104/104 103/103/103
f 101/101/101 105/105/105 104/104/104
f 101/101/101 106/106/106 105/105/105
f 101/101/101 107/107/107 106/106/106
f 101/101/101 108/108/108 107/107/107
f 101/101/101 109/109/109 108/108/108
f 101/101/101 110/110/110 109/109/109
f 113/113/113 112/112/112 111/111/111
f 114/114/114 112/112/112 113/113/113
f 115/115/115 112/112/112 114/114/114
f 115/115/115 114/114/114 116/116/116
f 119/119/119 118/118/118 117/117/117
f 119/119/119 120/120/120 118/118/118
f 121/121/121 120/120/120 119/119/119
f 122/122/122 120/120/120 121/121/121
f 122/122/122 123/123/123 120/120/120
f 122/122/122 124/124/124 123/123/123
f 124/124/124 122/122/122 125/125/125
g Combined Mesh (root: scene) 242_4
f 128/128/128 127/127/127 126/126/126
f 131/131/131 130/130/130 129/129/129
f 134/134/134 133/133/133 132/132/132
g Combined Mesh (root: scene) 242_5
f 137/137/137 136/136/136 135/135/135
f 137/137/137 138/138/138 136/136/136
f 138/138/138 137/137/137 139/139/139
g Combined Mesh (root: scene) 242_6
f 142/142/142 141/141/141 140/140/140
f 145/145/145 144/144/144 143/143/143
f 148/148/148 147/147/147 146/146/146
g Combined Mesh (root: scene) 242_7
f 151/151/151 150/150/150 149/149/149
f 151/151/151 152/152/152 150/150/150
f 152/152/152 151/151/151 153/153/153
