g Combined Mesh (root: scene) 177
v -11.80503 146.1541 -4.231229
v -13.0355 145.7159 -3.858697
v -13.20531 145.5098 -4.661944
v -11.97484 145.9481 -5.034476
v -13.09278 163.5962 0.9941053
v -11.51361 162.7462 -0.8314176
v -10.82463 162.8524 -0.2848689
v -12.4038 163.7024 1.540654
v -10.82463 162.8524 -0.2848689
v -11.51361 162.7462 -0.8314176
v -11.66077 161.5931 -0.4218123
v -10.97179 161.6993 0.1247364
v -12.55096 162.5492 1.950259
v -13.23994 162.443 1.403711
v -13.09278 163.5962 0.9941053
v -12.4038 163.7024 1.540654
v -10.82463 162.8524 -0.2848689
v -10.97179 161.6993 0.1247364
v -12.55096 162.5492 1.950259
v -12.4038 163.7024 1.540654
v -12.55096 162.5492 1.950259
v -10.97179 161.6993 0.1247364
v -11.66077 161.5931 -0.4218123
v -13.23994 162.443 1.403711
vt 0.9979295 0.0123438
vt -0.0020705 0.0123438
vt 0 1
vt 1 1
vt 1.028544 1.975659
vt 1.99514 1.975658
vt 1.99514 1.291652
vt 1.028544 1.291653
vt 0.9137181 2.894399
vt 0.9137181 1.975657
vt 0.2883996 1.975657
vt 0.2883996 2.894399
vt 0.2883996 1.056915
vt 0.2883996 1.975657
vt 0.9137181 1.975657
vt 0.9137181 1.056915
vt 0.9137181 -1.59723
vt 0.2883996 -1.59723
vt 0.2883996 1.056915
vt 0.9137181 1.056915
vt 0.2883996 1.056915
vt -1.009913 1.056915
vt -1.009913 1.975657
vt 0.2883996 1.975657
vn -0.3729337 0.9146886 -0.1557739
vn -0.3729337 0.9146886 -0.1557739
vn -0.3729337 0.9146886 -0.1557739
vn -0.3729337 0.9146886 -0.1557739
vn 0.1193929 0.9355775 -0.3323256
vn 0.1193929 0.9355775 -0.3323256
vn 0.1193929 0.9355775 -0.3323256
vn 0.1193929 0.9355775 -0.3323256
vn 0.6170924 -0.3321408 -0.7133582
vn 0.6170924 -0.3321408 -0.7133582
vn 0.6170924 -0.3321408 -0.7133582
vn 0.6170924 -0.3321408 -0.7133582
vn -0.6170924 0.3321408 0.7133582
vn -0.6170924 0.3321408 0.7133582
vn -0.6170924 0.3321408 0.7133582
vn -0.6170924 0.3321408 0.7133582
vn 0.7777807 0.1199054 0.6169928
vn 0.7777807 0.1199054 0.6169928
vn 0.7777807 0.1199054 0.6169928
vn 0.7777807 0.1199054 0.6169928
vn -0.1193929 -0.9355775 0.3323256
vn -0.1193929 -0.9355775 0.3323256
vn -0.1193929 -0.9355775 0.3323256
vn -0.1193929 -0.9355775 0.3323256
g Combined Mesh (root: scene) 177_0
f 3/3/3 2/2/2 1/1/1
f 1/1/1 4/4/4 3/3/3
g Combined Mesh (root: scene) 177_1
f 7/7/7 6/6/6 5/5/5
f 5/5/5 8/8/8 7/7/7
f 11/11/11 10/10/10 9/9/9
f 9/9/9 12/12/12 11/11/11
f 15/15/15 14/14/14 13/13/13
f 13/13/13 16/16/16 15/15/15
f 19/19/19 18/18/18 17/17/17
f 17/17/17 20/20/20 19/19/19
f 23/23/23 22/22/22 21/21/21
f 21/21/21 24/24/24 23/23/23
