g Combined Mesh (root: scene) 28
v -12.55729 162.5314 1.897883
v -12.56199 162.4946 1.910967
v -11.0314 161.6708 0.141614
v -11.0267 161.7076 0.1285303
v -12.53136 162.4993 1.935258
v -11.00078 161.6755 0.1659051
v -11.0314 161.6708 0.141614
v -12.56199 162.4946 1.910967
v -12.55729 162.5314 1.897883
v -13.18502 162.4347 1.399917
v -13.18972 162.3978 1.413
v -12.56199 162.4946 1.910967
v -11.0314 161.6708 0.141614
v -11.65914 161.574 -0.3563527
v -11.65444 161.6109 -0.3694364
v -11.0267 161.7076 0.1285303
v -11.68976 161.5693 -0.3806437
v -11.65914 161.574 -0.3563527
v -11.6906 161.3275 -0.268778
v -11.72592 161.2859 -0.2799853
v -11.03694 161.3921 0.2665635
v -11.06286 161.4242 0.2291887
v -11.0314 161.6708 0.141614
v -11.00078 161.6755 0.1659051
v -10.97179 161.6993 0.1247364
v -11.01265 161.3791 0.2384785
v -11.03694 161.3921 0.2665635
v -11.00078 161.6755 0.1659051
v -12.55096 162.5492 1.950259
v -12.53136 162.4993 1.935258
v -12.59182 162.229 2.064002
v -12.56753 162.2159 2.035916
v -12.53136 162.4993 1.935258
v -12.56199 162.4946 1.910967
v -12.59345 162.2481 1.998542
v -12.56753 162.2159 2.035916
v -13.22118 162.1513 1.500575
v -13.25651 162.1097 1.489368
v -13.18972 162.3978 1.413
v -13.22034 162.3931 1.388709
v -11.65914 161.574 -0.3563527
v -13.18972 162.3978 1.413
v -13.18502 162.4347 1.399917
v -11.65444 161.6109 -0.3694364
v -11.0314 161.6708 0.141614
v -11.06286 161.4242 0.2291887
v -11.03857 161.4112 0.2011037
v -11.00711 161.6577 0.113529
v -11.6906 161.3275 -0.268778
v -11.66631 161.3144 -0.2968629
v -11.03857 161.4112 0.2011037
v -11.06286 161.4242 0.2291887
v -11.63484 161.5609 -0.3844377
v -11.66631 161.3144 -0.2968629
v -11.6906 161.3275 -0.268778
v -11.65914 161.574 -0.3563527
v -13.18972 162.3978 1.413
v -11.65914 161.574 -0.3563527
v -11.68976 161.5693 -0.3806437
v -13.22034 162.3931 1.388709
v -13.23994 162.443 1.40371
v -13.2808 162.1228 1.517453
v -13.25651 162.1097 1.489368
v -13.22034 162.3931 1.388709
v -11.68976 161.5693 -0.3806437
v -11.66076 161.593 -0.4218124
v -11.70163 161.2728 -0.3080703
v -11.72592 161.2859 -0.2799853
v -11.03694 161.3921 0.2665635
v -11.01265 161.3791 0.2384785
v -11.70163 161.2728 -0.3080703
v -11.72592 161.2859 -0.2799853
v -12.59182 162.229 2.064002
v -12.56753 162.2159 2.035916
v -13.25651 162.1097 1.489368
v -13.2808 162.1228 1.517453
v -13.18972 162.3978 1.413
v -13.22118 162.1513 1.500575
v -13.24548 162.1644 1.52866
v -13.21402 162.4109 1.441085
v -13.24548 162.1644 1.52866
v -13.22118 162.1513 1.500575
v -12.59345 162.2481 1.998542
v -12.61774 162.2611 2.026627
v -12.58628 162.5077 1.939052
v -12.61774 162.2611 2.026627
v -12.59345 162.2481 1.998542
v -12.56199 162.4946 1.910967
v -13.24548 162.1644 1.52866
v -12.61774 162.2611 2.026627
v -12.59182 162.229 2.064002
v -12.58628 162.5077 1.939052
v -13.2808 162.1228 1.517453
v -12.55096 162.5492 1.950259
v -13.23994 162.443 1.40371
v -13.21402 162.4109 1.441085
v -11.66076 161.593 -0.4218124
v -11.70163 161.2728 -0.3080703
v -11.63484 161.5609 -0.3844377
v -10.97179 161.6993 0.1247364
v -11.66631 161.3144 -0.2968629
v -11.00711 161.6577 0.113529
v -11.01265 161.3791 0.2384785
v -11.03857 161.4112 0.2011037
v -11.66076 161.593 -0.4218124
v -10.97179 161.6993 0.1247364
v -11.65444 161.6109 -0.3694364
v -13.23994 162.443 1.40371
v -11.0267 161.7076 0.1285303
v -13.18502 162.4347 1.399917
v -12.55096 162.5492 1.950259
v -12.55729 162.5314 1.897883
v 3.300656 162.683 -0.6803716
v 3.255518 162.6867 -0.6559744
v 3.263805 162.6974 -0.6422563
v 3.308943 162.6937 -0.6666535
v 3.27252 162.7062 -0.6274544
v 3.317657 162.7025 -0.6518517
v 3.281538 162.7128 -0.6117752
v 3.326676 162.7092 -0.6361723
v 3.290736 162.7174 -0.5954375
v 3.335874 162.7137 -0.6198347
v 3.299984 162.7196 -0.5786697
v 3.345122 162.716 -0.6030669
v 3.354291 162.716 -0.586103
v 3.309154 162.7196 -0.5617058
v 3.363254 162.7137 -0.5691798
v 3.318116 162.7174 -0.5447826
v 3.371885 162.7092 -0.5525338
v 3.326747 162.7129 -0.5281366
v 3.380063 162.7025 -0.5363973
v 3.334925 162.7062 -0.5120001
v 3.387675 162.6938 -0.5209956
v 3.342537 162.6974 -0.4965984
v 3.354291 162.716 -0.586103
v 3.345122 162.716 -0.6030669
v 3.510123 162.7186 -0.2981893
v 3.345122 162.716 -0.6030669
v 3.294331 162.7114 -0.6963515
v 3.527547 162.734 -0.2682742
v 3.294331 162.7114 -0.6963515
v 3.345122 162.716 -0.6030669
v 3.527547 162.734 -0.2682742
v 3.536599 162.7385 -0.2522048
v 3.545703 162.7407 -0.2357005
v 3.614507 162.751 -0.1099451
v 3.554729 162.7407 -0.2189999
v 3.563545 162.7384 -0.2023443
v 3.572024 162.7339 -0.1859742
v 3.580045 162.7272 -0.1701264
v 3.58749 162.7184 -0.1550297
v 3.594253 162.7077 -0.1409023
v 3.593887 162.6972 -0.1399914
v 3.617581 162.8023 -0.1150881
v 3.297405 162.7627 -0.7014945
v 3.612721 162.6995 -0.1054969
v 3.59339 162.6456 -0.1362416
v 3.612224 162.6479 -0.1017471
v 3.594183 162.594 -0.1331932
v 3.613018 162.5963 -0.09869874
v 3.596266 162.5424 -0.1308487
v 3.6151 162.5448 -0.09635419
v 3.599636 162.4909 -0.12921
v 3.61847 162.4932 -0.09471548
v 3.604291 162.4394 -0.1282783
v 3.623125 162.4417 -0.09378386
v 3.610227 162.388 -0.1280545
v 3.629061 162.3904 -0.09356004
v 3.61744 162.3369 -0.1285387
v 3.636273 162.3392 -0.09404424
v 3.625922 162.2859 -0.1297306
v 3.644756 162.2882 -0.09523615
v 3.635669 162.2352 -0.1316292
v 3.654503 162.2375 -0.09713471
v 3.646671 162.1847 -0.1342329
v 3.665505 162.187 -0.09973839
v 3.345122 162.716 -0.6030669
v 3.518679 162.7273 -0.2836765
v 3.527547 162.734 -0.2682742
v 3.510123 162.7186 -0.2981893
v 3.354291 162.716 -0.586103
v 3.354291 162.716 -0.586103
v 3.502002 162.7079 -0.3116027
v 3.510123 162.7186 -0.2981893
v 3.494433 162.6954 -0.3237231
v 3.363254 162.7137 -0.5691798
v 3.371885 162.7092 -0.5525338
v 3.380063 162.7025 -0.5363973
v 3.387675 162.6938 -0.5209956
v 3.394613 162.683 -0.5065439
v 3.294331 162.7114 -0.6963515
v 3.335874 162.7137 -0.6198347
v 3.345122 162.716 -0.6030669
v 3.326676 162.7092 -0.6361723
v 3.317657 162.7025 -0.6518517
v 3.308943 162.6937 -0.6666535
v 3.300656 162.683 -0.6803716
v 3.29291 162.6705 -0.6928141
v 3.29291 162.6705 -0.6928141
v 3.294331 162.7114 -0.6963515
v 3.300656 162.683 -0.6803716
v 3.308943 162.6937 -0.6666535
v 3.317657 162.7025 -0.6518517
v 3.326676 162.7092 -0.6361723
v 3.335874 162.7137 -0.6198347
v 3.345122 162.716 -0.6030669
v 3.394613 162.683 -0.5065439
v 3.387675 162.6938 -0.5209956
v 3.494433 162.6954 -0.3237231
v 3.380063 162.7025 -0.5363973
v 3.371885 162.7092 -0.5525338
v 3.363254 162.7137 -0.5691798
v 3.354291 162.716 -0.586103
v 3.502002 162.7079 -0.3116027
v 3.510123 162.7186 -0.2981893
v 3.510123 162.7186 -0.2981893
v 3.345122 162.716 -0.6030669
v 3.518679 162.7273 -0.2836765
v 3.527547 162.734 -0.2682742
v 3.527547 162.734 -0.2682742
v 3.294331 162.7114 -0.6963515
v 3.536599 162.7385 -0.2522048
v 3.545703 162.7407 -0.2357005
v 3.614507 162.751 -0.1099451
v 3.554729 162.7407 -0.2189999
v 3.563545 162.7384 -0.2023443
v 3.572024 162.7339 -0.1859742
v 3.580045 162.7272 -0.1701264
v 3.58749 162.7184 -0.1550297
v 3.594253 162.7077 -0.1409023
v 3.593887 162.6972 -0.1399914
v 3.617581 162.8023 -0.1150881
v 3.297405 162.7627 -0.7014945
v 3.612721 162.6995 -0.1054969
v 3.59339 162.6456 -0.1362416
v 3.612224 162.6479 -0.1017471
v 3.594183 162.594 -0.1331932
v 3.613018 162.5963 -0.09869874
v 3.596266 162.5424 -0.1308487
v 3.6151 162.5448 -0.09635419
v 3.599636 162.4909 -0.12921
v 3.61847 162.4932 -0.09471548
v 3.604291 162.4394 -0.1282783
v 3.623125 162.4417 -0.09378386
v 3.610227 162.388 -0.1280545
v 3.629061 162.3904 -0.09356004
v 3.61744 162.3369 -0.1285387
v 3.636273 162.3392 -0.09404424
v 3.625922 162.2859 -0.1297306
v 3.644756 162.2882 -0.09523615
v 3.635669 162.2352 -0.1316292
v 3.654503 162.2375 -0.09713471
v 3.646671 162.1847 -0.1342329
v 3.665505 162.187 -0.09973839
vn -0.7777807 -0.1199054 -0.6169928
vn -0.7777807 -0.1199054 -0.6169928
vn -0.7777807 -0.1199054 -0.6169928
vn -0.7777807 -0.1199054 -0.6169928
vn -0.1193929 -0.9355775 0.3323256
vn -0.1193929 -0.9355775 0.3323256
vn -0.1193929 -0.9355775 0.3323256
vn -0.1193929 -0.9355775 0.3323256
vn 0.6170924 -0.3321408 -0.7133582
vn 0.6170924 -0.3321408 -0.7133582
vn 0.6170924 -0.3321408 -0.7133582
vn 0.6170924 -0.3321408 -0.7133582
vn -0.6170924 0.3321408 0.7133582
vn -0.6170924 0.3321408 0.7133582
vn -0.6170924 0.3321408 0.7133582
vn -0.6170924 0.3321408 0.7133582
vn -0.6170924 0.3321408 0.7133582
vn -0.6170924 0.3321408 0.7133582
vn -0.6170924 0.3321408 0.7133582
vn -0.6170924 0.3321408 0.7133582
vn -0.6170924 0.3321408 0.7133582
vn -0.6170924 0.3321408 0.7133582
vn -0.6170924 0.3321408 0.7133582
vn -0.6170924 0.3321408 0.7133582
vn 0.7777807 0.1199054 0.6169928
vn 0.7777807 0.1199054 0.6169928
vn 0.7777807 0.1199054 0.6169928
vn 0.7777807 0.1199054 0.6169928
vn 0.7777807 0.1199054 0.6169928
vn 0.7777807 0.1199054 0.6169928
vn 0.7777807 0.1199054 0.6169928
vn 0.7777807 0.1199054 0.6169928
vn 0.6170924 -0.3321408 -0.7133582
vn 0.6170924 -0.3321408 -0.7133582
vn 0.6170924 -0.3321408 -0.7133582
vn 0.6170924 -0.3321408 -0.7133582
vn 0.6170924 -0.3321408 -0.7133582
vn 0.6170924 -0.3321408 -0.7133582
vn 0.6170924 -0.3321408 -0.7133582
vn 0.6170924 -0.3321408 -0.7133582
vn 0.7777807 0.1199054 0.6169928
vn 0.7777807 0.1199054 0.6169928
vn 0.7777807 0.1199054 0.6169928
vn 0.7777807 0.1199054 0.6169928
vn -0.7777807 -0.1199054 -0.6169928
vn -0.7777807 -0.1199054 -0.6169928
vn -0.7777807 -0.1199054 -0.6169928
vn -0.7777807 -0.1199054 -0.6169928
vn 0.1193929 0.9355775 -0.3323256
vn 0.1193929 0.9355775 -0.3323256
vn 0.1193929 0.9355775 -0.3323256
vn 0.1193929 0.9355775 -0.3323256
vn 0.7777807 0.1199054 0.6169928
vn 0.7777807 0.1199054 0.6169928
vn 0.7777807 0.1199054 0.6169928
vn 0.7777807 0.1199054 0.6169928
vn -0.1193929 -0.9355775 0.3323256
vn -0.1193929 -0.9355775 0.3323256
vn -0.1193929 -0.9355775 0.3323256
vn -0.1193929 -0.9355775 0.3323256
vn -0.7777807 -0.1199054 -0.6169928
vn -0.7777807 -0.1199054 -0.6169928
vn -0.7777807 -0.1199054 -0.6169928
vn -0.7777807 -0.1199054 -0.6169928
vn -0.7777807 -0.1199054 -0.6169928
vn -0.7777807 -0.1199054 -0.6169928
vn -0.7777807 -0.1199054 -0.6169928
vn -0.7777807 -0.1199054 -0.6169928
vn -0.1193929 -0.9355775 0.3323256
vn -0.1193929 -0.9355775 0.3323256
vn -0.1193929 -0.9355775 0.3323256
vn -0.1193929 -0.9355775 0.3323256
vn -0.1193929 -0.9355775 0.3323256
vn -0.1193929 -0.9355775 0.3323256
vn -0.1193929 -0.9355775 0.3323256
vn -0.1193929 -0.9355775 0.3323256
vn 0.7777807 0.1199054 0.6169928
vn 0.7777807 0.1199054 0.6169928
vn 0.7777807 0.1199054 0.6169928
vn 0.7777807 0.1199054 0.6169928
vn 0.1193929 0.9355775 -0.3323256
vn 0.1193929 0.9355775 -0.3323256
vn 0.1193929 0.9355775 -0.3323256
vn 0.1193929 0.9355775 -0.3323256
vn -0.7777807 -0.1199054 -0.6169928
vn -0.7777807 -0.1199054 -0.6169928
vn -0.7777807 -0.1199054 -0.6169928
vn -0.7777807 -0.1199054 -0.6169928
vn -0.6170924 0.3321408 0.7133582
vn -0.6170924 0.3321408 0.7133582
vn -0.6170924 0.3321408 0.7133582
vn -0.6170924 0.3321408 0.7133582
vn -0.6170924 0.3321408 0.7133582
vn -0.6170924 0.3321408 0.7133582
vn -0.6170924 0.3321408 0.7133582
vn -0.6170924 0.3321408 0.7133582
vn 0.6170924 -0.3321408 -0.7133582
vn 0.6170924 -0.3321408 -0.7133582
vn 0.6170924 -0.3321408 -0.7133582
vn 0.6170924 -0.3321408 -0.7133582
vn 0.6170924 -0.3321408 -0.7133582
vn 0.6170924 -0.3321408 -0.7133582
vn 0.6170924 -0.3321408 -0.7133582
vn 0.6170924 -0.3321408 -0.7133582
vn 0.1193929 0.9355775 -0.3323256
vn 0.1193929 0.9355775 -0.3323256
vn 0.1193929 0.9355775 -0.3323256
vn 0.1193929 0.9355775 -0.3323256
vn 0.1193929 0.9355775 -0.3323256
vn 0.1193929 0.9355775 -0.3323256
vn 0.1193929 0.9355775 -0.3323256
vn 0.1193929 0.9355775 -0.3323256
vn 0.2379303 -0.7937585 0.5597649
vn 0.2379303 -0.7937585 0.5597649
vn 0.1871446 -0.8594673 0.4757027
vn 0.1871446 -0.8594673 0.4757027
vn 0.1337457 -0.9131752 0.3849982
vn 0.1337457 -0.9131752 0.3849982
vn 0.0784794 -0.954132 0.2889177
vn 0.0784794 -0.954132 0.2889177
vn 0.02211708 -0.981766 0.188803
vn 0.02211708 -0.981766 0.188803
vn -0.03455397 -0.9956914 0.08605202
vn -0.03455397 -0.9956914 0.08605202
vn -0.09074253 -0.9957137 -0.01790053
vn -0.09074253 -0.9957137 -0.01790053
vn -0.145664 -0.9818324 -0.1216032
vn -0.145664 -0.9818324 -0.1216032
vn -0.1985516 -0.9542418 -0.2236078
vn -0.1985516 -0.9542418 -0.2236078
vn -0.2486667 -0.9133266 -0.3224901
vn -0.2486667 -0.9133266 -0.3224901
vn -0.2953096 -0.8596584 -0.4168694
vn -0.2953096 -0.8596584 -0.4168694
vn -0.8774722 0.07144041 0.4742771
vn -0.8774722 0.07144041 0.4742771
vn -0.8774722 0.07144041 0.4742771
vn -0.8774722 0.07144041 0.4742771
vn -0.8768927 0.08558011 0.4730067
vn -0.8774722 0.07144041 0.4742771
vn 0.8768927 -0.08558011 -0.4730067
vn 0.8774722 -0.07144041 -0.4742771
vn 0.8774722 -0.07144041 -0.4742771
vn 0.8774722 -0.07144041 -0.4742771
vn 0.8774722 -0.07144041 -0.4742771
vn 0.8768927 -0.08558011 -0.4730067
vn 0.8774722 -0.07144041 -0.4742771
vn 0.8774722 -0.07144041 -0.4742771
vn 0.8774722 -0.07144041 -0.4742771
vn 0.8774722 -0.07144041 -0.4742771
vn 0.8774722 -0.07144041 -0.4742771
vn 0.8774722 -0.07144041 -0.4742771
vn 0.8778745 -0.05728619 -0.4754519
vn 0.8761361 -0.09970264 -0.4716407
vn 0.8761361 -0.09970264 -0.4716407
vn 0.8778745 -0.05728619 -0.4754519
vn 0.8781476 -0.02894594 -0.4775133
vn 0.8781476 -0.02894594 -0.4775133
vn 0.8777115 -0.0005824007 -0.4791891
vn 0.8777115 -0.0005824007 -0.4791891
vn 0.8765666 0.02778166 -0.4804779
vn 0.8765666 0.02778166 -0.4804779
vn 0.8747141 0.0561233 -0.4813788
vn 0.8747141 0.0561233 -0.4813788
vn 0.8721551 0.08441965 -0.4818909
vn 0.8721551 0.08441965 -0.4818909
vn 0.8688918 0.1126477 -0.4820139
vn 0.8688918 0.1126477 -0.4820139
vn 0.864927 0.1407849 -0.4817477
vn 0.864927 0.1407849 -0.4817477
vn 0.8602637 0.1688085 -0.4810925
vn 0.8602637 0.1688085 -0.4810925
vn 0.8549058 0.1966956 -0.4800488
vn 0.8549058 0.1966956 -0.4800488
vn 0.8519677 0.2105811 -0.4793816
vn 0.8519677 0.2105811 -0.4793816
vn 0.8774722 -0.07144041 -0.4742771
vn 0.8774722 -0.07144041 -0.4742771
vn 0.8774722 -0.07144041 -0.4742771
vn 0.8774722 -0.07144041 -0.4742771
vn 0.8774722 -0.07144041 -0.4742771
vn 0.8774722 -0.07144041 -0.4742771
vn 0.8774722 -0.07144041 -0.4742771
vn 0.8774722 -0.07144041 -0.4742771
vn 0.8774722 -0.07144041 -0.4742771
vn 0.8774722 -0.07144041 -0.4742771
vn 0.8774722 -0.07144041 -0.4742771
vn 0.8774722 -0.07144041 -0.4742771
vn 0.8774722 -0.07144041 -0.4742771
vn 0.8774722 -0.07144041 -0.4742771
vn 0.8768927 -0.08558011 -0.4730067
vn 0.8774722 -0.07144041 -0.4742771
vn 0.8774722 -0.07144041 -0.4742771
vn 0.8774722 -0.07144041 -0.4742771
vn 0.8774722 -0.07144041 -0.4742771
vn 0.8774722 -0.07144041 -0.4742771
vn 0.8774722 -0.07144041 -0.4742771
vn 0.8774722 -0.07144041 -0.4742771
vn -0.8774722 0.07144041 0.4742771
vn -0.8768927 0.08558011 0.4730067
vn -0.8774722 0.07144041 0.4742771
vn -0.8774722 0.07144041 0.4742771
vn -0.8774722 0.07144041 0.4742771
vn -0.8774722 0.07144041 0.4742771
vn -0.8774722 0.07144041 0.4742771
vn -0.8774722 0.07144041 0.4742771
vn -0.8774722 0.07144041 0.4742771
vn -0.8774722 0.07144041 0.4742771
vn -0.8774722 0.07144041 0.4742771
vn -0.8774722 0.07144041 0.4742771
vn -0.8774722 0.07144041 0.4742771
vn -0.8774722 0.07144041 0.4742771
vn -0.8774722 0.07144041 0.4742771
vn -0.8774722 0.07144041 0.4742771
vn -0.8774722 0.07144041 0.4742771
vn -0.8774722 0.07144041 0.4742771
vn -0.8774722 0.07144041 0.4742771
vn -0.8774722 0.07144041 0.4742771
vn -0.8774722 0.07144041 0.4742771
vn -0.8774722 0.07144041 0.4742771
vn -0.8768927 0.08558011 0.4730067
vn -0.8774722 0.07144041 0.4742771
vn -0.8774722 0.07144041 0.4742771
vn -0.8768927 0.08558011 0.4730067
vn -0.8774722 0.07144041 0.4742771
vn -0.8774722 0.07144041 0.4742771
vn -0.8774722 0.07144041 0.4742771
vn -0.8774722 0.07144041 0.4742771
vn -0.8774722 0.07144041 0.4742771
vn -0.8774722 0.07144041 0.4742771
vn -0.8778745 0.05728619 0.4754519
vn -0.8761361 0.09970264 0.4716407
vn -0.8761361 0.09970264 0.4716407
vn -0.8778745 0.05728619 0.4754519
vn -0.8781476 0.02894594 0.4775133
vn -0.8781476 0.02894594 0.4775133
vn -0.8777115 0.0005824007 0.4791891
vn -0.8777115 0.0005824007 0.4791891
vn -0.8765666 -0.02778166 0.4804779
vn -0.8765666 -0.02778166 0.4804779
vn -0.8747141 -0.0561233 0.4813788
vn -0.8747141 -0.0561233 0.4813788
vn -0.8721551 -0.08441965 0.4818909
vn -0.8721551 -0.08441965 0.4818909
vn -0.8688918 -0.1126477 0.4820139
vn -0.8688918 -0.1126477 0.4820139
vn -0.864927 -0.1407849 0.4817477
vn -0.864927 -0.1407849 0.4817477
vn -0.8602637 -0.1688085 0.4810925
vn -0.8602637 -0.1688085 0.4810925
vn -0.8549058 -0.1966956 0.4800488
vn -0.8549058 -0.1966956 0.4800488
vn -0.8519677 -0.2105811 0.4793816
vn -0.8519677 -0.2105811 0.4793816
g Combined Mesh (root: scene) 28_0
f 3/3/3 2/2/2 1/1/1
f 1/1/1 4/4/4 3/3/3
f 7/7/7 6/6/6 5/5/5
f 5/5/5 8/8/8 7/7/7
f 11/11/11 10/10/10 9/9/9
f 9/9/9 12/12/12 11/11/11
f 15/15/15 14/14/14 13/13/13
f 13/13/13 16/16/16 15/15/15
f 19/19/19 18/18/18 17/17/17
f 19/19/19 17/17/17 20/20/20
f 20/20/20 21/21/21 19/19/19
f 21/21/21 22/22/22 19/19/19
f 21/21/21 23/23/23 22/22/22
f 21/21/21 24/24/24 23/23/23
f 27/27/27 26/26/26 25/25/25
f 25/25/25 28/28/28 27/27/27
f 28/28/28 25/25/25 29/29/29
f 30/30/30 28/28/28 29/29/29
f 30/30/30 29/29/29 31/31/31
f 31/31/31 32/32/32 30/30/30
f 35/35/35 34/34/34 33/33/33
f 35/35/35 33/33/33 36/36/36
f 37/37/37 35/35/35 36/36/36
f 37/37/37 36/36/36 38/38/38
f 39/39/39 37/37/37 38/38/38
f 38/38/38 40/40/40 39/39/39
f 43/43/43 42/42/42 41/41/41
f 41/41/41 44/44/44 43/43/43
f 47/47/47 46/46/46 45/45/45
f 45/45/45 48/48/48 47/47/47
f 51/51/51 50/50/50 49/49/49
f 49/49/49 52/52/52 51/51/51
f 55/55/55 54/54/54 53/53/53
f 53/53/53 56/56/56 55/55/55
f 59/59/59 58/58/58 57/57/57
f 57/57/57 60/60/60 59/59/59
f 63/63/63 62/62/62 61/61/61
f 61/61/61 64/64/64 63/63/63
f 61/61/61 65/65/65 64/64/64
f 65/65/65 61/61/61 66/66/66
f 65/65/65 66/66/66 67/67/67
f 67/67/67 68/68/68 65/65/65
f 71/71/71 70/70/70 69/69/69
f 69/69/69 72/72/72 71/71/71
f 75/75/75 74/74/74 73/73/73
f 73/73/73 76/76/76 75/75/75
f 79/79/79 78/78/78 77/77/77
f 77/77/77 80/80/80 79/79/79
f 83/83/83 82/82/82 81/81/81
f 81/81/81 84/84/84 83/83/83
f 87/87/87 86/86/86 85/85/85
f 85/85/85 88/88/88 87/87/87
f 91/91/91 90/90/90 89/89/89
f 91/91/91 92/92/92 90/90/90
f 93/93/93 91/91/91 89/89/89
f 92/92/92 91/91/91 94/94/94
f 89/89/89 95/95/95 93/93/93
f 96/96/96 92/92/92 94/94/94
f 96/96/96 94/94/94 95/95/95
f 95/95/95 89/89/89 96/96/96
f 99/99/99 98/98/98 97/97/97
f 97/97/97 100/100/100 99/99/99
f 98/98/98 99/99/99 101/101/101
f 100/100/100 102/102/102 99/99/99
f 101/101/101 103/103/103 98/98/98
f 100/100/100 104/104/104 102/102/102
f 101/101/101 104/104/104 103/103/103
f 104/104/104 100/100/100 103/103/103
f 107/107/107 106/106/106 105/105/105
f 105/105/105 108/108/108 107/107/107
f 106/106/106 107/107/107 109/109/109
f 108/108/108 110/110/110 107/107/107
f 109/109/109 111/111/111 106/106/106
f 108/108/108 112/112/112 110/110/110
f 109/109/109 112/112/112 111/111/111
f 112/112/112 108/108/108 111/111/111
g Combined Mesh (root: scene) 28_1
f 115/115/115 114/114/114 113/113/113
f 113/113/113 116/116/116 115/115/115
f 117/117/117 115/115/115 116/116/116
f 116/116/116 118/118/118 117/117/117
f 119/119/119 117/117/117 118/118/118
f 118/118/118 120/120/120 119/119/119
f 121/121/121 119/119/119 120/120/120
f 120/120/120 122/122/122 121/121/121
f 123/123/123 121/121/121 122/122/122
f 122/122/122 124/124/124 123/123/123
f 123/123/123 124/124/124 125/125/125
f 125/125/125 126/126/126 123/123/123
f 126/126/126 125/125/125 127/127/127
f 127/127/127 128/128/128 126/126/126
f 128/128/128 127/127/127 129/129/129
f 129/129/129 130/130/130 128/128/128
f 130/130/130 129/129/129 131/131/131
f 131/131/131 132/132/132 130/130/130
f 132/132/132 131/131/131 133/133/133
f 133/133/133 134/134/134 132/132/132
g Combined Mesh (root: scene) 28_2
f 137/137/137 136/136/136 135/135/135
f 140/140/140 139/139/139 138/138/138
f 143/143/143 142/142/142 141/141/141
f 144/144/144 143/143/143 141/141/141
f 145/145/145 144/144/144 141/141/141
f 145/145/145 141/141/141 146/146/146
f 147/147/147 145/145/145 146/146/146
f 148/148/148 147/147/147 146/146/146
f 149/149/149 148/148/148 146/146/146
f 150/150/150 149/149/149 146/146/146
f 151/151/151 150/150/150 146/146/146
f 152/152/152 151/151/151 146/146/146
f 153/153/153 152/152/152 146/146/146
f 154/154/154 146/146/146 141/141/141
f 141/141/141 155/155/155 154/154/154
f 146/146/146 156/156/156 153/153/153
f 157/157/157 153/153/153 156/156/156
f 156/156/156 158/158/158 157/157/157
f 159/159/159 157/157/157 158/158/158
f 158/158/158 160/160/160 159/159/159
f 161/161/161 159/159/159 160/160/160
f 160/160/160 162/162/162 161/161/161
f 163/163/163 161/161/161 162/162/162
f 162/162/162 164/164/164 163/163/163
f 165/165/165 163/163/163 164/164/164
f 164/164/164 166/166/166 165/165/165
f 167/167/167 165/165/165 166/166/166
f 166/166/166 168/168/168 167/167/167
f 169/169/169 167/167/167 168/168/168
f 168/168/168 170/170/170 169/169/169
f 171/171/171 169/169/169 170/170/170
f 170/170/170 172/172/172 171/171/171
f 173/173/173 171/171/171 172/172/172
f 172/172/172 174/174/174 173/173/173
f 175/175/175 173/173/173 174/174/174
f 174/174/174 176/176/176 175/175/175
f 179/179/179 178/178/178 177/177/177
f 178/178/178 180/180/180 177/177/177
f 180/180/180 181/181/181 177/177/177
f 184/184/184 183/183/183 182/182/182
f 183/183/183 185/185/185 182/182/182
f 185/185/185 186/186/186 182/182/182
f 185/185/185 187/187/187 186/186/186
f 185/185/185 188/188/188 187/187/187
f 185/185/185 189/189/189 188/188/188
f 185/185/185 190/190/190 189/189/189
f 193/193/193 192/192/192 191/191/191
f 192/192/192 194/194/194 191/191/191
f 194/194/194 195/195/195 191/191/191
f 195/195/195 196/196/196 191/191/191
f 196/196/196 197/197/197 191/191/191
f 197/197/197 198/198/198 191/191/191
f 201/201/201 200/200/200 199/199/199
f 202/202/202 200/200/200 201/201/201
f 203/203/203 200/200/200 202/202/202
f 204/204/204 200/200/200 203/203/203
f 205/205/205 200/200/200 204/204/204
f 206/206/206 200/200/200 205/205/205
f 209/209/209 208/208/208 207/207/207
f 209/209/209 210/210/210 208/208/208
f 209/209/209 211/211/211 210/210/210
f 209/209/209 212/212/212 211/211/211
f 209/209/209 213/213/213 212/212/212
f 214/214/214 213/213/213 209/209/209
f 215/215/215 213/213/213 214/214/214
f 218/218/218 217/217/217 216/216/216
f 219/219/219 217/217/217 218/218/218
f 222/222/222 221/221/221 220/220/220
f 223/223/223 221/221/221 222/222/222
f 223/223/223 224/224/224 221/221/221
f 225/225/225 224/224/224 223/223/223
f 226/226/226 224/224/224 225/225/225
f 227/227/227 224/224/224 226/226/226
f 228/228/228 224/224/224 227/227/227
f 229/229/229 224/224/224 228/228/228
f 230/230/230 224/224/224 229/229/229
f 231/231/231 224/224/224 230/230/230
f 232/232/232 221/221/221 224/224/224
f 221/221/221 232/232/232 233/233/233
f 224/224/224 231/231/231 234/234/234
f 235/235/235 234/234/234 231/231/231
f 234/234/234 235/235/235 236/236/236
f 237/237/237 236/236/236 235/235/235
f 236/236/236 237/237/237 238/238/238
f 239/239/239 238/238/238 237/237/237
f 238/238/238 239/239/239 240/240/240
f 241/241/241 240/240/240 239/239/239
f 240/240/240 241/241/241 242/242/242
f 243/243/243 242/242/242 241/241/241
f 242/242/242 243/243/243 244/244/244
f 245/245/245 244/244/244 243/243/243
f 244/244/244 245/245/245 246/246/246
f 247/247/247 246/246/246 245/245/245
f 246/246/246 247/247/247 248/248/248
f 249/249/249 248/248/248 247/247/247
f 248/248/248 249/249/249 250/250/250
f 251/251/251 250/250/250 249/249/249
f 250/250/250 251/251/251 252/252/252
f 253/253/253 252/252/252 251/251/251
f 252/252/252 253/253/253 254/254/254
