g Combined Mesh (root: scene) 260
v -11.50492 169.8797 0.1510729
v -11.50781 169.8783 0.1519097
v -11.50489 169.8797 0.1510733
v -10.18638 169.6957 -0.8479479
v -10.1845 169.6967 -0.8484901
v -10.11696 169.5543 -0.8463802
vn -0.221461 -0.1194012 -0.9678318
vn -0.221461 -0.1194012 -0.9678318
vn -0.221461 -0.1194012 -0.9678318
vn 0.221461 0.1194012 0.9678318
vn 0.221461 0.1194012 0.9678318
vn 0.221461 0.1194012 0.9678318
g Combined Mesh (root: scene) 260_0
f 3/3/3 2/2/2 1/1/1
g Combined Mesh (root: scene) 260_1
f 6/6/6 5/5/5 4/4/4
