g Combined Mesh (root: scene) 68
v -26.64514 166.1676 3.672075
v -23.41 166.1676 3.672079
v -23.41001 163.6964 3.557854
v -26.64515 163.6964 3.55785
v -19.58907 155.2731 3.866988
v -19.58897 152.0379 3.866959
v -22.06204 152.0379 3.931958
v -22.06214 155.273 3.931987
vn -1.370907E-06 -0.04617166 0.9989334
vn -1.370907E-06 -0.04617166 0.9989334
vn -1.370907E-06 -0.04617166 0.9989334
vn -1.370907E-06 -0.04617166 0.9989334
vn 0.02627364 -8.106231E-06 0.9996548
vn 0.02627364 -8.106231E-06 0.9996548
vn 0.02627364 -8.106231E-06 0.9996548
vn 0.02627364 -8.106231E-06 0.9996548
g Combined Mesh (root: scene) 68_0
f 3/3/3 2/2/2 1/1/1
f 1/1/1 4/4/4 3/3/3
g Combined Mesh (root: scene) 68_1
f 7/7/7 6/6/6 5/5/5
f 5/5/5 8/8/8 7/7/7
