g Combined Mesh (root: scene) 11
v -5.887235 158.678 0.3434351
v -5.887199 158.6932 0.3484768
v -5.512983 158.8099 -0.005405307
v -5.51302 158.7947 -0.010447
v -6.203925 158.7942 0.0468474
v -5.82971 158.9109 -0.3070347
v -5.512983 158.8099 -0.005405307
v -5.887199 158.6932 0.3484768
v -6.203925 158.7942 0.0468474
v -5.887199 158.6932 0.3484768
v -5.887235 158.678 0.3434351
v -6.203962 158.779 0.04180571
v -5.51302 158.7947 -0.010447
v -5.512983 158.8099 -0.005405307
v -5.82971 158.9109 -0.3070347
v -5.829746 158.8957 -0.3120764
v -5.829746 158.8957 -0.3120764
v -5.82971 158.9109 -0.3070347
v -6.203925 158.7942 0.0468474
v -6.203962 158.779 0.04180571
v -6.203962 158.779 0.04180571
v -6.111276 158.7811 0.03479629
v -5.837458 158.8665 -0.224143
v -5.879523 158.7072 0.2555017
v -5.829746 158.8957 -0.3120764
v -5.887235 158.678 0.3434351
v -5.605706 158.7926 -0.003437579
v -5.51302 158.7947 -0.010447
v -5.605755 158.7724 -0.01015983
v -5.605706 158.7926 -0.003437579
v -5.837458 158.8665 -0.224143
v -5.837507 158.8463 -0.2308653
v -5.879572 158.687 0.2487795
v -5.879523 158.7072 0.2555017
v -5.605706 158.7926 -0.003437579
v -5.605755 158.7724 -0.01015983
v -5.605755 158.7724 -0.01015983
v -5.837507 158.8463 -0.2308653
v -6.111324 158.7609 0.02807404
v -5.879572 158.687 0.2487795
v -5.837507 158.8463 -0.2308653
v -5.837458 158.8665 -0.224143
v -6.111276 158.7811 0.03479629
v -6.111324 158.7609 0.02807404
v -6.111276 158.7811 0.03479629
v -5.879523 158.7072 0.2555017
v -5.879572 158.687 0.2487795
v -6.111324 158.7609 0.02807404
vn 0.7055923 -0.2249669 0.6719594
vn 0.7055923 -0.2249669 0.6719594
vn 0.7055923 -0.2249669 0.6719594
vn 0.7055923 -0.2249669 0.6719594
vn 0.002286371 0.9489853 0.3153118
vn 0.002286371 0.9489853 0.3153118
vn 0.002286371 0.9489853 0.3153118
vn 0.002286371 0.9489853 0.3153118
vn -0.7086143 -0.2209454 0.6701112
vn -0.7086143 -0.2209454 0.6701112
vn -0.7086143 -0.2209454 0.6701112
vn -0.7086143 -0.2209454 0.6701112
vn 0.7086143 0.2209454 -0.6701112
vn 0.7086143 0.2209454 -0.6701112
vn 0.7086143 0.2209454 -0.6701112
vn 0.7086143 0.2209454 -0.6701112
vn -0.7055923 0.2249669 -0.6719594
vn -0.7055923 0.2249669 -0.6719594
vn -0.7055923 0.2249669 -0.6719594
vn -0.7055923 0.2249669 -0.6719594
vn -0.002286371 -0.9489853 -0.3153118
vn -0.002286371 -0.9489853 -0.3153118
vn -0.002286371 -0.9489853 -0.3153118
vn -0.002286371 -0.9489853 -0.3153118
vn -0.002286371 -0.9489853 -0.3153118
vn -0.002286371 -0.9489853 -0.3153118
vn -0.002286371 -0.9489853 -0.3153118
vn -0.002286371 -0.9489853 -0.3153118
vn 0.7086143 0.2209454 -0.6701112
vn 0.7086143 0.2209454 -0.6701112
vn 0.7086143 0.2209454 -0.6701112
vn 0.7086143 0.2209454 -0.6701112
vn 0.7055923 -0.2249669 0.6719594
vn 0.7055923 -0.2249669 0.6719594
vn 0.7055923 -0.2249669 0.6719594
vn 0.7055923 -0.2249669 0.6719594
vn -0.002286371 -0.9489853 -0.3153118
vn -0.002286371 -0.9489853 -0.3153118
vn -0.002286371 -0.9489853 -0.3153118
vn -0.002286371 -0.9489853 -0.3153118
vn -0.7055923 0.2249669 -0.6719594
vn -0.7055923 0.2249669 -0.6719594
vn -0.7055923 0.2249669 -0.6719594
vn -0.7055923 0.2249669 -0.6719594
vn -0.7086143 -0.2209454 0.6701112
vn -0.7086143 -0.2209454 0.6701112
vn -0.7086143 -0.2209454 0.6701112
vn -0.7086143 -0.2209454 0.6701112
g Combined Mesh (root: scene) 11_0
f 3/3/3 2/2/2 1/1/1
f 1/1/1 4/4/4 3/3/3
f 7/7/7 6/6/6 5/5/5
f 5/5/5 8/8/8 7/7/7
f 11/11/11 10/10/10 9/9/9
f 9/9/9 12/12/12 11/11/11
f 15/15/15 14/14/14 13/13/13
f 13/13/13 16/16/16 15/15/15
f 19/19/19 18/18/18 17/17/17
f 17/17/17 20/20/20 19/19/19
f 23/23/23 22/22/22 21/21/21
f 22/22/22 24/24/24 21/21/21
f 21/21/21 25/25/25 23/23/23
f 24/24/24 26/26/26 21/21/21
f 27/27/27 23/23/23 25/25/25
f 26/26/26 24/24/24 27/27/27
f 27/27/27 25/25/25 28/28/28
f 28/28/28 26/26/26 27/27/27
g Combined Mesh (root: scene) 11_1
f 31/31/31 30/30/30 29/29/29
f 29/29/29 32/32/32 31/31/31
f 35/35/35 34/34/34 33/33/33
f 33/33/33 36/36/36 35/35/35
f 39/39/39 38/38/38 37/37/37
f 37/37/37 40/40/40 39/39/39
f 43/43/43 42/42/42 41/41/41
f 41/41/41 44/44/44 43/43/43
f 47/47/47 46/46/46 45/45/45
f 45/45/45 48/48/48 47/47/47
