g Combined Mesh (root: scene) 104
v -11.256 169.3163 0.06192696
v -11.589 169.9949 0.05440712
v -11.24544 169.2948 0.06216538
v -11.24544 169.2948 0.06216538
v -11.36751 169.229 -0.4712852
v -11.37807 169.2505 -0.4715237
v -11.691 169.9399 -0.3913236
v -11.71107 169.9291 -0.4790434
v -11.67966 169.946 -0.3417889
v -11.60908 169.9841 -0.0333125
v -11.589 169.9949 0.05440712
v -11.256 169.3163 0.06192696
v -11.37807 169.2505 -0.4715237
v -11.691 169.9399 -0.3913236
v -11.71107 169.9291 -0.4790434
v -11.24544 169.2948 0.06216538
v -11.36751 169.229 -0.4712852
v -11.67966 169.946 -0.3417889
v -11.60908 169.9841 -0.0333125
v -11.589 169.9949 0.05440712
v -10.76773 171.3882 -0.3054072
v -10.88979 171.3224 -0.8388579
v -10.55576 170.6183 -0.8284237
v -10.43369 170.6841 -0.2949731
v -10.43369 170.6841 -0.2949731
v -10.55576 170.6183 -0.8284237
v -10.76773 171.3882 -0.3054072
v -10.88979 171.3224 -0.8388579
v -11.62979 170.0935 -0.61962
v -11.25999 170.2589 -0.7246459
v -11.26583 170.271 -0.7247932
v -11.92914 170.7035 -0.6263797
v -11.56264 170.8822 -0.732285
v -11.56264 170.8822 -0.732285
v -11.26583 170.271 -0.7247932
v -11.92914 170.7035 -0.6263797
v -11.62979 170.0935 -0.61962
v -11.25999 170.2589 -0.7246459
v -11.37751 170.9674 -0.7851617
v -11.07617 170.3534 -0.7783569
v -10.70917 170.5323 -0.8844107
v -11.0105 171.1464 -0.8912155
v -11.0105 171.1464 -0.8912155
v -10.70917 170.5323 -0.8844107
v -11.37751 170.9674 -0.7851617
v -11.07617 170.3534 -0.7783569
v -11.29237 169.3835 -0.6092315
v -10.92251 169.5578 -0.715372
v -11.21735 170.1586 -0.7220298
v -11.5814 169.9912 -0.6180704
v -11.5814 169.9912 -0.6180704
v -11.21735 170.1586 -0.7220298
v -11.29237 169.3835 -0.6092315
v -10.92251 169.5578 -0.715372
v -11.03058 170.2544 -0.7765843
v -10.73939 169.6479 -0.768391
v -10.37649 169.8248 -0.873257
v -10.66545 170.4324 -0.8820938
v -10.66545 170.4324 -0.8820938
v -10.37649 169.8248 -0.873257
v -11.03058 170.2544 -0.7765843
v -10.73939 169.6479 -0.768391
v -11.74085 170.0415 -0.3924495
v -11.76093 170.0307 -0.4801693
v -12.10424 170.7303 -0.4879219
v -12.08417 170.7411 -0.4002021
v -12.07283 170.7473 -0.3506674
v -11.65893 170.0857 -0.03443837
v -12.00225 170.7853 -0.04219097
v -11.63886 170.0965 0.05328131
v -11.98217 170.7961 0.04552865
v -11.98217 170.7961 0.04552865
v -12.00225 170.7853 -0.04219097
v -11.63886 170.0965 0.05328131
v -11.65893 170.0857 -0.03443837
v -12.07283 170.7473 -0.3506674
v -11.74085 170.0415 -0.3924495
v -12.08417 170.7411 -0.4002021
v -12.10424 170.7303 -0.4879219
v -11.76093 170.0307 -0.4801693
v -10.38518 170.5818 -0.2934578
v -10.50725 170.516 -0.8269085
v -10.17079 169.8068 -0.8163987
v -10.04873 169.8726 -0.2829481
v -10.04873 169.8726 -0.2829481
v -10.17079 169.8068 -0.8163987
v -10.38518 170.5818 -0.2934578
v -10.50725 170.516 -0.8269085
vn 0.8699996 0.4241438 -0.2514015
vn 0.8699996 0.4241438 -0.2514015
vn 0.8699996 0.4241438 -0.2514015
vn -0.8699996 -0.4241438 0.2514015
vn -0.8699996 -0.4241438 0.2514015
vn -0.8699996 -0.4241438 0.2514015
vn -0.8699996 -0.4241438 0.2514015
vn -0.8699996 -0.4241438 0.2514015
vn -0.8699996 -0.4241438 0.2514015
vn -0.8699996 -0.4241438 0.2514015
vn -0.8699996 -0.4241438 0.2514015
vn -0.8699996 -0.4241438 0.2514015
vn 0.8699996 0.4241438 -0.2514015
vn 0.8699996 0.4241438 -0.2514015
vn 0.8699996 0.4241438 -0.2514015
vn 0.8699996 0.4241438 -0.2514015
vn 0.8699996 0.4241438 -0.2514015
vn 0.8699996 0.4241438 -0.2514015
vn 0.8699996 0.4241438 -0.2514015
vn 0.8699996 0.4241438 -0.2514015
vn 0.8759466 0.4118194 -0.2512418
vn 0.8759466 0.4118194 -0.2512418
vn 0.8759466 0.4118194 -0.2512418
vn 0.8759466 0.4118194 -0.2512418
vn -0.8759466 -0.4118194 0.2512418
vn -0.8759466 -0.4118194 0.2512418
vn -0.8759466 -0.4118194 0.2512418
vn -0.8759466 -0.4118194 0.2512418
vn -0.221461 -0.1194012 -0.9678318
vn -0.221461 -0.1194012 -0.9678318
vn -0.221461 -0.1194012 -0.9678318
vn -0.221461 -0.1194012 -0.9678318
vn -0.221461 -0.1194012 -0.9678318
vn 0.221461 0.1194012 0.9678318
vn 0.221461 0.1194012 0.9678318
vn 0.221461 0.1194012 0.9678318
vn 0.221461 0.1194012 0.9678318
vn 0.221461 0.1194012 0.9678318
vn -0.221461 -0.1194012 -0.9678318
vn -0.221461 -0.1194012 -0.9678318
vn -0.221461 -0.1194012 -0.9678318
vn -0.221461 -0.1194012 -0.9678318
vn 0.221461 0.1194012 0.9678318
vn 0.221461 0.1194012 0.9678318
vn 0.221461 0.1194012 0.9678318
vn 0.221461 0.1194012 0.9678318
vn -0.221461 -0.1194012 -0.9678318
vn -0.221461 -0.1194012 -0.9678318
vn -0.221461 -0.1194012 -0.9678318
vn -0.221461 -0.1194012 -0.9678318
vn 0.221461 0.1194012 0.9678318
vn 0.221461 0.1194012 0.9678318
vn 0.221461 0.1194012 0.9678318
vn 0.221461 0.1194012 0.9678318
vn -0.221461 -0.1194012 -0.9678318
vn -0.221461 -0.1194012 -0.9678318
vn -0.221461 -0.1194012 -0.9678318
vn -0.221461 -0.1194012 -0.9678318
vn 0.221461 0.1194012 0.9678318
vn 0.221461 0.1194012 0.9678318
vn 0.221461 0.1194012 0.9678318
vn 0.221461 0.1194012 0.9678318
vn -0.8699996 -0.4241438 0.2514015
vn -0.8699996 -0.4241438 0.2514015
vn -0.8699996 -0.4241438 0.2514015
vn -0.8699996 -0.4241438 0.2514015
vn -0.8699996 -0.4241438 0.2514015
vn -0.8699996 -0.4241438 0.2514015
vn -0.8699996 -0.4241438 0.2514015
vn -0.8699996 -0.4241438 0.2514015
vn -0.8699996 -0.4241438 0.2514015
vn 0.8699996 0.4241438 -0.2514015
vn 0.8699996 0.4241438 -0.2514015
vn 0.8699996 0.4241438 -0.2514015
vn 0.8699996 0.4241438 -0.2514015
vn 0.8699996 0.4241438 -0.2514015
vn 0.8699996 0.4241438 -0.2514015
vn 0.8699996 0.4241438 -0.2514015
vn 0.8699996 0.4241438 -0.2514015
vn 0.8699996 0.4241438 -0.2514015
vn 0.8759466 0.4118194 -0.2512418
vn 0.8759466 0.4118194 -0.2512418
vn 0.8759466 0.4118194 -0.2512418
vn 0.8759466 0.4118194 -0.2512418
vn -0.8759466 -0.4118194 0.2512418
vn -0.8759466 -0.4118194 0.2512418
vn -0.8759466 -0.4118194 0.2512418
vn -0.8759466 -0.4118194 0.2512418
g Combined Mesh (root: scene) 104_0
f 3/3/3 2/2/2 1/1/1
f 6/6/6 5/5/5 4/4/4
f 4/4/4 7/7/7 6/6/6
f 8/8/8 6/6/6 7/7/7
f 4/4/4 9/9/9 7/7/7
f 4/4/4 10/10/10 9/9/9
f 4/4/4 11/11/11 10/10/10
f 4/4/4 12/12/12 11/11/11
f 15/15/15 14/14/14 13/13/13
f 16/16/16 13/13/13 14/14/14
f 13/13/13 16/16/16 17/17/17
f 16/16/16 14/14/14 18/18/18
f 16/16/16 18/18/18 19/19/19
f 16/16/16 19/19/19 20/20/20
g Combined Mesh (root: scene) 104_1
f 23/23/23 22/22/22 21/21/21
f 21/21/21 24/24/24 23/23/23
f 27/27/27 26/26/26 25/25/25
f 26/26/26 27/27/27 28/28/28
g Combined Mesh (root: scene) 104_2
f 31/31/31 30/30/30 29/29/29
f 29/29/29 32/32/32 31/31/31
f 32/32/32 33/33/33 31/31/31
f 36/36/36 35/35/35 34/34/34
f 37/37/37 35/35/35 36/36/36
f 35/35/35 37/37/37 38/38/38
g Combined Mesh (root: scene) 104_3
f 41/41/41 40/40/40 39/39/39
f 39/39/39 42/42/42 41/41/41
f 45/45/45 44/44/44 43/43/43
f 44/44/44 45/45/45 46/46/46
g Combined Mesh (root: scene) 104_4
f 49/49/49 48/48/48 47/47/47
f 47/47/47 50/50/50 49/49/49
f 53/53/53 52/52/52 51/51/51
f 52/52/52 53/53/53 54/54/54
g Combined Mesh (root: scene) 104_5
f 57/57/57 56/56/56 55/55/55
f 55/55/55 58/58/58 57/57/57
f 61/61/61 60/60/60 59/59/59
f 60/60/60 61/61/61 62/62/62
g Combined Mesh (root: scene) 104_6
f 65/65/65 64/64/64 63/63/63
f 63/63/63 66/66/66 65/65/65
f 63/63/63 67/67/67 66/66/66
f 63/63/63 68/68/68 67/67/67
f 68/68/68 69/69/69 67/67/67
f 68/68/68 70/70/70 69/69/69
f 70/70/70 71/71/71 69/69/69
f 74/74/74 73/73/73 72/72/72
f 75/75/75 73/73/73 74/74/74
f 75/75/75 76/76/76 73/73/73
f 77/77/77 76/76/76 75/75/75
f 77/77/77 78/78/78 76/76/76
f 77/77/77 79/79/79 78/78/78
f 79/79/79 77/77/77 80/80/80
g Combined Mesh (root: scene) 104_7
f 83/83/83 82/82/82 81/81/81
f 81/81/81 84/84/84 83/83/83
f 87/87/87 86/86/86 85/85/85
f 86/86/86 87/87/87 88/88/88
