g Combined Mesh (root: scene) 191
v -28.73165 165.1293 1.998168
v -28.7326 165.1261 1.998314
v -28.69153 165.1162 2.051191
v -28.7326 165.1261 1.998314
v -28.73165 165.1293 1.998168
v -28.69153 165.1162 2.051191
v -28.7326 165.1261 1.998314
v -28.68796 165.111 1.960833
v -28.68701 165.1142 1.960686
v -28.68701 165.1142 1.960686
v -28.73165 165.1293 1.998168
v -28.7326 165.1261 1.998314
v -16.78629 171.0374 -2.374555
v -16.78431 171.0326 -2.372332
v -16.78475 171.0354 -2.365853
v -16.78475 171.0354 -2.365853
v -16.78674 171.0402 -2.368077
v -16.78629 171.0374 -2.374555
v -16.78431 171.0326 -2.372332
v -16.78375 171.0275 -2.370056
v -16.7842 171.0303 -2.363577
v -16.7842 171.0303 -2.363577
v -16.78475 171.0354 -2.365853
v -16.78431 171.0326 -2.372332
v -16.78956 171.0415 -2.376576
v -16.78629 171.0374 -2.374555
v -16.78674 171.0402 -2.368077
v -16.78674 171.0402 -2.368077
v -16.79001 171.0443 -2.370097
v -16.78956 171.0415 -2.376576
v -16.78375 171.0275 -2.370056
v -16.78466 171.0224 -2.367884
v -16.78511 171.0252 -2.361405
v -16.78511 171.0252 -2.361405
v -16.7842 171.0303 -2.363577
v -16.78375 171.0275 -2.370056
v -16.78466 171.0224 -2.367884
v -16.78697 171.0176 -2.365963
v -16.78742 171.0205 -2.359484
v -16.78742 171.0205 -2.359484
v -16.78511 171.0252 -2.361405
v -16.78466 171.0224 -2.367884
v -16.78697 171.0176 -2.365963
v -16.79053 171.0136 -2.364424
v -16.79097 171.0164 -2.357945
v -16.79097 171.0164 -2.357945
v -16.78742 171.0205 -2.359484
v -16.78697 171.0176 -2.365963
v -16.80033 171.0085 -2.36288
v -16.80591 171.0078 -2.362979
v -16.80636 171.0107 -2.3565
v -16.80636 171.0107 -2.3565
v -16.80078 171.0113 -2.356401
v -16.80033 171.0085 -2.36288
v -16.79435 171.0475 -2.371776
v -16.7939 171.0446 -2.378255
v -16.78956 171.0415 -2.376576
v -16.79001 171.0443 -2.370097
v -16.79946 171.0495 -2.373
v -16.79902 171.0466 -2.379479
v -16.7939 171.0446 -2.378255
v -16.79435 171.0475 -2.371776
v -16.79097 171.0164 -2.357945
v -16.79053 171.0136 -2.364424
v -16.79508 171.0104 -2.363373
v -16.79553 171.0133 -2.356894
v -16.79553 171.0133 -2.356894
v -16.79508 171.0104 -2.363373
v -16.80033 171.0085 -2.36288
v -16.80078 171.0113 -2.356401
v -16.78674 171.0402 -2.368077
v -16.78475 171.0354 -2.365853
v -16.78629 171.0374 -2.374555
v -16.78431 171.0326 -2.372332
v -16.78475 171.0354 -2.365853
v -16.7842 171.0303 -2.363577
v -16.78431 171.0326 -2.372332
v -16.78375 171.0275 -2.370056
v -16.79001 171.0443 -2.370097
v -16.78674 171.0402 -2.368077
v -16.78956 171.0415 -2.376576
v -16.78629 171.0374 -2.374555
v -16.7842 171.0303 -2.363577
v -16.78511 171.0252 -2.361405
v -16.78375 171.0275 -2.370056
v -16.78466 171.0224 -2.367884
v -16.79001 171.0443 -2.370097
v -16.78956 171.0415 -2.376576
v -16.79435 171.0475 -2.371776
v -16.7939 171.0446 -2.378255
v -16.78511 171.0252 -2.361405
v -16.78742 171.0205 -2.359484
v -16.78466 171.0224 -2.367884
v -16.78697 171.0176 -2.365963
v -16.79435 171.0475 -2.371776
v -16.7939 171.0446 -2.378255
v -16.79946 171.0495 -2.373
v -16.79902 171.0466 -2.379479
v -16.78742 171.0205 -2.359484
v -16.79097 171.0164 -2.357945
v -16.78697 171.0176 -2.365963
v -16.79053 171.0136 -2.364424
v -16.79553 171.0133 -2.356894
v -16.79508 171.0104 -2.363373
v -16.79097 171.0164 -2.357945
v -16.79053 171.0136 -2.364424
v -16.80078 171.0113 -2.356401
v -16.80033 171.0085 -2.36288
v -16.79553 171.0133 -2.356894
v -16.79508 171.0104 -2.363373
v -16.80078 171.0113 -2.356401
v -16.80636 171.0107 -2.3565
v -16.80033 171.0085 -2.36288
v -16.80591 171.0078 -2.362979
vt 0.7487371 0.0863693
vt 0.7487371 0.0886273
vt 0.7487371 0.0863693
vt 0.7487371 0.0863693
vt 0.6867089 0.0863693
vt 0.6867089 0.0886273
vt 0.6867089 0.0886273
vt 0.7487371 0.0886273
vt 0.7487371 0.0863693
vt 0.7487371 0.0863693
vt 0.7487371 0.0863693
vt 0.7487371 0.0863693
vt 0.5175722 0.7496931
vt 0.5130636 0.750578
vt 0.5175722 0.7496931
vt 0.5130636 0.750578
vt 0.5175722 0.7496931
vt 0.5130636 0.750578
vt 0.5130636 0.750578
vt 0.5083947 0.7505816
vt 0.5130636 0.750578
vt 0.5083947 0.7505816
vt 0.5130636 0.750578
vt 0.5083947 0.7505816
vt 0.5216132 0.7479872
vt 0.5175722 0.7496931
vt 0.5216132 0.7479872
vt 0.5175722 0.7496931
vt 0.5216132 0.7479872
vt 0.5175722 0.7496931
vt 0.5083947 0.7505816
vt 0.5038836 0.7497036
vt 0.5083947 0.7505816
vt 0.5038836 0.7497036
vt 0.5083947 0.7505816
vt 0.5038836 0.7497036
vt 0.5038836 0.7497036
vt 0.4998378 0.7480038
vt 0.5038836 0.7497036
vt 0.4998378 0.7480038
vt 0.5038836 0.7497036
vt 0.4998378 0.7480038
vt 0.4998378 0.7480038
vt 0.4965329 0.7455982
vt 0.4998378 0.7480038
vt 0.4965329 0.7455982
vt 0.4998378 0.7480038
vt 0.4965329 0.7455982
vt 0.4929811 0.739362
vt 0.4929763 0.7359564
vt 0.4929811 0.739362
vt 0.4929763 0.7359564
vt 0.4929811 0.739362
vt 0.4929763 0.7359564
vt 0.5216132 0.7479872
vt 0.5216132 0.7479872
vt 0.5249111 0.7455766
vt 0.5249111 0.7455766
vt 0.5249111 0.7455766
vt 0.5249111 0.7455766
vt 0.5272414 0.7426254
vt 0.5272414 0.7426254
vt 0.4941942 0.7426506
vt 0.4941942 0.7426506
vt 0.4965329 0.7455982
vt 0.4965329 0.7455982
vt 0.4929811 0.739362
vt 0.4929811 0.739362
vt 0.4941942 0.7426506
vt 0.4941942 0.7426506
vt 0.5175722 0.7496931
vt 0.5175722 0.7496931
vt 0.5175722 0.7496931
vt 0.5175722 0.7496931
vt 0.5175722 0.7496931
vt 0.5175722 0.7496931
vt 0.5175722 0.7496931
vt 0.5175722 0.7496931
vt 0.5175722 0.7496931
vt 0.5175722 0.7496931
vt 0.5175722 0.7496931
vt 0.5175722 0.7496931
vt 0.5175722 0.7496931
vt 0.5175722 0.7496931
vt 0.5175722 0.7496931
vt 0.5175722 0.7496931
vt 0.5175722 0.7496931
vt 0.5175722 0.7496931
vt 0.5175722 0.7496931
vt 0.5175722 0.7496931
vt 0.5175722 0.7496931
vt 0.5175722 0.7496931
vt 0.5175722 0.7496931
vt 0.5175722 0.7496931
vt 0.5175722 0.7496931
vt 0.5175722 0.7496931
vt 0.5175722 0.7496931
vt 0.5175722 0.7496931
vt 0.5175722 0.7496931
vt 0.5175722 0.7496931
vt 0.5175722 0.7496931
vt 0.5175722 0.7496931
vt 0.5175722 0.7496931
vt 0.5175722 0.7496931
vt 0.5175722 0.7496931
vt 0.5175722 0.7496931
vt 0.5175722 0.7496931
vt 0.5175722 0.7496931
vt 0.5175722 0.7496931
vt 0.5175722 0.7496931
vt 0.5175722 0.7496931
vt 0.5175722 0.7496931
vt 0.5175722 0.7496931
vt 0.5175722 0.7496931
vn 0.7414623 -0.2503107 -0.6225579
vn 0.7414623 -0.2503107 -0.6225579
vn 0.7414623 -0.2503107 -0.6225579
vn -0.7414623 0.2503107 0.6225579
vn -0.7414623 0.2503107 0.6225579
vn -0.7414623 0.2503107 0.6225579
vn -0.606958 0.1453598 -0.7813275
vn -0.606958 0.1453598 -0.7813275
vn -0.606958 0.1453598 -0.7813275
vn -0.606958 0.1453598 -0.7813275
vn -0.606958 0.1453598 -0.7813275
vn -0.606958 0.1453598 -0.7813275
vn 0.9336813 0.3472071 -0.08767203
vn 0.9336813 0.3472071 -0.08767203
vn 0.9336813 0.3472071 -0.08767203
vn 0.9336813 0.3472071 -0.08767203
vn 0.9336813 0.3472071 -0.08767203
vn 0.9336813 0.3472071 -0.08767203
vn 0.9931063 0.1158744 0.01769502
vn 0.9931063 0.1158744 0.01769502
vn 0.9931063 0.1158744 0.01769502
vn 0.9931063 0.1158744 0.01769502
vn 0.9931063 0.1158744 0.01769502
vn 0.9931063 0.1158744 0.01769502
vn 0.8106276 0.5548782 -0.1870644
vn 0.8106276 0.5548782 -0.1870644
vn 0.8106276 0.5548782 -0.1870644
vn 0.8106276 0.5548782 -0.1870644
vn 0.8106276 0.5548782 -0.1870644
vn 0.8106276 0.5548782 -0.1870644
vn 0.9848526 -0.123355 0.1218562
vn 0.9848526 -0.123355 0.1218562
vn 0.9848526 -0.123355 0.1218562
vn 0.9848526 -0.123355 0.1218562
vn 0.9848526 -0.123355 0.1218562
vn 0.9848526 -0.123355 0.1218562
vn 0.909483 -0.3541778 0.2177131
vn 0.909483 -0.3541778 0.2177131
vn 0.909483 -0.3541778 0.2177131
vn 0.909483 -0.3541778 0.2177131
vn 0.909483 -0.3541778 0.2177131
vn 0.909483 -0.3541778 0.2177131
vn 0.7721334 -0.5608641 0.2987332
vn 0.7721334 -0.5608641 0.2987332
vn 0.7721334 -0.5608641 0.2987332
vn 0.7721334 -0.5608641 0.2987332
vn 0.7721334 -0.5608641 0.2987332
vn 0.7721334 -0.5608641 0.2987332
vn 0.0988553 -0.9090561 0.4047775
vn 0.0988553 -0.9090561 0.4047775
vn 0.0988553 -0.9090561 0.4047775
vn 0.0988553 -0.9090561 0.4047775
vn 0.0988553 -0.9090561 0.4047775
vn 0.0988553 -0.9090561 0.4047775
vn 0.632331 0.7247353 -0.2737086
vn 0.632331 0.7247353 -0.2737086
vn 0.632331 0.7247353 -0.2737086
vn 0.632331 0.7247353 -0.2737086
vn 0.410942 0.8452028 -0.3417
vn 0.410942 0.8452028 -0.3417
vn 0.410942 0.8452028 -0.3417
vn 0.410942 0.8452028 -0.3417
vn 0.5821643 -0.7293284 0.3593951
vn 0.5821643 -0.7293284 0.3593951
vn 0.5821643 -0.7293284 0.3593951
vn 0.5821643 -0.7293284 0.3593951
vn 0.3525217 -0.8480902 0.3955648
vn 0.3525217 -0.8480902 0.3955648
vn 0.3525217 -0.8480902 0.3955648
vn 0.3525217 -0.8480902 0.3955648
vn -0.9336813 -0.3472071 0.08767203
vn -0.9336813 -0.3472071 0.08767203
vn -0.9336813 -0.3472071 0.08767203
vn -0.9336813 -0.3472071 0.08767203
vn -0.9931063 -0.1158744 -0.01769502
vn -0.9931063 -0.1158744 -0.01769502
vn -0.9931063 -0.1158744 -0.01769502
vn -0.9931063 -0.1158744 -0.01769502
vn -0.8106276 -0.5548782 0.1870644
vn -0.8106276 -0.5548782 0.1870644
vn -0.8106276 -0.5548782 0.1870644
vn -0.8106276 -0.5548782 0.1870644
vn -0.9848526 0.123355 -0.1218562
vn -0.9848526 0.123355 -0.1218562
vn -0.9848526 0.123355 -0.1218562
vn -0.9848526 0.123355 -0.1218562
vn -0.632331 -0.7247353 0.2737086
vn -0.632331 -0.7247353 0.2737086
vn -0.632331 -0.7247353 0.2737086
vn -0.632331 -0.7247353 0.2737086
vn -0.909483 0.3541778 -0.2177131
vn -0.909483 0.3541778 -0.2177131
vn -0.909483 0.3541778 -0.2177131
vn -0.909483 0.3541778 -0.2177131
vn -0.410942 -0.8452028 0.3417
vn -0.410942 -0.8452028 0.3417
vn -0.410942 -0.8452028 0.3417
vn -0.410942 -0.8452028 0.3417
vn -0.7721334 0.5608641 -0.2987332
vn -0.7721334 0.5608641 -0.2987332
vn -0.7721334 0.5608641 -0.2987332
vn -0.7721334 0.5608641 -0.2987332
vn -0.5821643 0.7293284 -0.3593951
vn -0.5821643 0.7293284 -0.3593951
vn -0.5821643 0.7293284 -0.3593951
vn -0.5821643 0.7293284 -0.3593951
vn -0.3525217 0.8480902 -0.3955648
vn -0.3525217 0.8480902 -0.3955648
vn -0.3525217 0.8480902 -0.3955648
vn -0.3525217 0.8480902 -0.3955648
vn -0.0988553 0.9090561 -0.4047775
vn -0.0988553 0.9090561 -0.4047775
vn -0.0988553 0.9090561 -0.4047775
vn -0.0988553 0.9090561 -0.4047775
g Combined Mesh (root: scene) 191_0
f 3/3/3 2/2/2 1/1/1
g Combined Mesh (root: scene) 191_1
f 6/6/6 5/5/5 4/4/4
f 9/9/9 8/8/8 7/7/7
f 12/12/12 11/11/11 10/10/10
g Combined Mesh (root: scene) 191_2
f 15/15/15 14/14/14 13/13/13
f 18/18/18 17/17/17 16/16/16
f 21/21/21 20/20/20 19/19/19
f 24/24/24 23/23/23 22/22/22
f 27/27/27 26/26/26 25/25/25
f 30/30/30 29/29/29 28/28/28
f 33/33/33 32/32/32 31/31/31
f 36/36/36 35/35/35 34/34/34
f 39/39/39 38/38/38 37/37/37
f 42/42/42 41/41/41 40/40/40
f 45/45/45 44/44/44 43/43/43
f 48/48/48 47/47/47 46/46/46
f 51/51/51 50/50/50 49/49/49
f 54/54/54 53/53/53 52/52/52
f 57/57/57 56/56/56 55/55/55
f 55/55/55 58/58/58 57/57/57
f 61/61/61 60/60/60 59/59/59
f 59/59/59 62/62/62 61/61/61
f 65/65/65 64/64/64 63/63/63
f 63/63/63 66/66/66 65/65/65
f 69/69/69 68/68/68 67/67/67
f 67/67/67 70/70/70 69/69/69
g Combined Mesh (root: scene) 191_3
f 73/73/73 72/72/72 71/71/71
f 72/72/72 73/73/73 74/74/74
f 77/77/77 76/76/76 75/75/75
f 76/76/76 77/77/77 78/78/78
f 81/81/81 80/80/80 79/79/79
f 80/80/80 81/81/81 82/82/82
f 85/85/85 84/84/84 83/83/83
f 84/84/84 85/85/85 86/86/86
f 89/89/89 88/88/88 87/87/87
f 88/88/88 89/89/89 90/90/90
f 93/93/93 92/92/92 91/91/91
f 92/92/92 93/93/93 94/94/94
f 97/97/97 96/96/96 95/95/95
f 96/96/96 97/97/97 98/98/98
f 101/101/101 100/100/100 99/99/99
f 100/100/100 101/101/101 102/102/102
f 105/105/105 104/104/104 103/103/103
f 104/104/104 105/105/105 106/106/106
f 109/109/109 108/108/108 107/107/107
f 108/108/108 109/109/109 110/110/110
f 113/113/113 112/112/112 111/111/111
f 112/112/112 113/113/113 114/114/114
