g Combined Mesh (root: scene) 210
v -22.93405 159.7921 3.219203
v -21.53477 159.9805 2.521715
v -22.92526 159.8037 3.218223
v -22.87788 162.4216 4.042366
v -21.54323 159.9899 2.529338
v -22.86951 162.4132 4.035124
v -21.53454 159.991 2.525008
v -21.48749 162.5993 3.346239
v -21.4786 162.61 3.344879
v -21.55433 159.9965 2.50887
v -21.54323 159.9899 2.529338
v -21.48749 162.5993 3.346239
v -21.49858 162.606 3.325771
v -21.55433 159.9965 2.50887
v -22.93635 159.8104 3.197754
v -22.92526 159.8037 3.218223
v -21.54323 159.9899 2.529338
v -21.17454 162.428 3.905676
v -21.17686 162.3195 3.871716
v -21.2768 162.306 3.921533
v -21.27449 162.4145 3.955493
v -22.72896 162.2905 4.070097
v -22.72664 162.399 4.104057
v -21.52003 162.5615 3.502611
v -21.52235 162.453 3.468651
v -22.82169 162.278 4.116321
v -21.42241 162.4665 3.418834
v -21.47369 160.0657 2.667273
v -21.574 160.0522 2.717275
v -22.77018 159.8911 3.313519
v -22.77275 159.7709 3.275877
v -21.57657 159.932 2.679633
v -22.87297 159.8773 3.36476
v -22.82169 162.278 4.116321
v -21.52235 162.453 3.468651
v -22.5272 159.6238 3.728759
v -22.63 159.61 3.78
v -22.62743 159.7302 3.817642
v -22.52463 159.7441 3.766401
v -21.22815 159.9187 3.120155
v -21.23071 159.7985 3.082513
v -21.33103 159.7849 3.132516
v -21.32846 159.9052 3.170157
v -22.4811 162.252 4.55694
v -22.48341 162.1435 4.52298
v -22.57615 162.131 4.569203
v -22.57383 162.2395 4.603164
v -21.48969 162.6167 3.32441
v -22.88898 162.4282 4.021898
v -22.90766 162.4394 3.987454
v -21.50837 162.6278 3.289967
v -21.54564 159.9977 2.50454
v -21.54586 159.9872 2.501247
v -22.94515 159.7987 3.198734
v -21.55433 159.9965 2.50887
v -21.56454 159.9983 2.466804
v -21.54586 159.9872 2.501247
v -21.54564 159.9977 2.50454
v -21.48969 162.6167 3.32441
v -21.50837 162.6278 3.289967
v -22.90766 162.4394 3.987454
v -22.96383 159.8099 3.164291
v -21.56454 159.9983 2.466804
v -21.50837 162.6278 3.289967
v -21.56454 159.9983 2.466804
v -22.96383 159.8099 3.164291
v -22.94515 159.7987 3.198734
v -21.54586 159.9872 2.501247
v -21.55433 159.9965 2.50887
v -21.49858 162.606 3.325771
v -21.54564 159.9977 2.50454
v -21.48969 162.6167 3.32441
v -22.88061 162.4199 4.014656
v -22.88898 162.4282 4.021898
v -22.93635 159.8104 3.197754
v -22.94515 159.7987 3.198734
v -28.52287 164.0249 2.969745
v -28.5334 163.9893 2.971429
v -29.78745 164.2803 1.295462
v -29.77692 164.3159 1.293777
v -29.18354 164.1182 0.8154461
v -29.77692 164.3159 1.293777
v -29.78745 164.2803 1.295462
v -29.19407 164.0825 0.8171307
v -27.94002 163.7915 2.493098
v -29.19407 164.0825 0.8171307
v -29.78745 164.2803 1.295462
v -28.5334 163.9893 2.971429
v -27.94002 163.7915 2.493098
v -28.5334 163.9893 2.971429
v -28.52287 164.0249 2.969745
v -27.92949 163.8272 2.491414
v -28.52287 164.0249 2.969745
v -29.77692 164.3159 1.293777
v -29.18354 164.1182 0.8154461
v -27.92949 163.8272 2.491414
v -29.18354 164.1182 0.8154461
v -29.19407 164.0825 0.8171307
v -27.94002 163.7915 2.493098
v -27.92949 163.8272 2.491414
v -28.41913 164.3764 2.953145
v -29.67318 164.6674 1.277177
v -29.0798 164.4696 0.7988463
v -27.82575 164.1786 2.474814
v -27.83703 164.1404 2.476618
v -28.4304 164.3382 2.954949
v -28.41913 164.3764 2.953145
v -27.82575 164.1786 2.474814
v -29.0798 164.4696 0.7988463
v -29.09107 164.4315 0.80065
v -27.83703 164.1404 2.476618
v -27.82575 164.1786 2.474814
v -29.0798 164.4696 0.7988463
v -29.67318 164.6674 1.277177
v -29.68445 164.6292 1.278981
v -29.09107 164.4315 0.80065
v -28.41913 164.3764 2.953145
v -28.4304 164.3382 2.954949
v -29.68445 164.6292 1.278981
v -29.67318 164.6674 1.277177
v -27.83703 164.1404 2.476618
v -29.09107 164.4315 0.80065
v -29.68445 164.6292 1.278981
v -28.4304 164.3382 2.954949
v -28.22352 167.3705 0.6618323
v -28.25492 167.2642 0.6668572
v -27.00088 166.9732 2.342825
v -26.96948 167.0795 2.3378
v -27.00088 166.9732 2.342825
v -28.25492 167.2642 0.6668572
v -28.8483 167.4619 1.145188
v -27.59426 167.1709 2.821156
v -28.22352 167.3705 0.6618323
v -28.8169 167.5683 1.140163
v -28.8483 167.4619 1.145188
v -28.25492 167.2642 0.6668572
v -27.56285 167.2773 2.816131
v -27.59252 167.2842 2.776481
v -27.03775 167.0993 2.32927
v -26.96948 167.0795 2.3378
v -28.23246 167.3765 0.7326022
v -28.22352 167.3705 0.6618323
v -28.78723 167.5614 1.179813
v -28.8169 167.5683 1.140163
v -27.00088 166.9732 2.342825
v -27.59426 167.1709 2.821156
v -27.56285 167.2773 2.816131
v -26.96948 167.0795 2.3378
v -27.61223 167.2174 2.779634
v -27.59252 167.2842 2.776481
v -27.56285 167.2773 2.816131
v -27.59426 167.1709 2.821156
v -28.8483 167.4619 1.145188
v -28.80694 167.4946 1.182967
v -28.8169 167.5683 1.140163
v -28.78723 167.5614 1.179813
v -28.25216 167.3098 0.7357557
v -28.80694 167.4946 1.182967
v -28.78723 167.5614 1.179813
v -28.23246 167.3765 0.7326022
v -27.03775 167.0993 2.32927
v -27.05746 167.0325 2.332424
v -28.25216 167.3098 0.7357557
v -28.23246 167.3765 0.7326022
v -27.03775 167.0993 2.32927
v -27.59252 167.2842 2.776481
v -27.61223 167.2174 2.779634
v -27.05746 167.0325 2.332424
v -27.61223 167.2174 2.779634
v -28.80694 167.4946 1.182967
v -28.25216 167.3098 0.7357557
v -27.05746 167.0325 2.332424
v -28.05118 163.4149 2.510885
v -29.30522 163.7059 0.8349168
v -29.8986 163.9037 1.313248
v -28.64456 163.6127 2.989216
v -29.27558 163.8064 0.8301734
v -29.86896 164.0041 1.308504
v -29.8986 163.9037 1.313248
v -29.30522 163.7059 0.8349168
v -29.27558 163.8064 0.8301734
v -29.30522 163.7059 0.8349168
v -28.05118 163.4149 2.510885
v -28.02153 163.5154 2.506141
v -28.61491 163.7131 2.984472
v -29.86896 164.0041 1.308504
v -29.27558 163.8064 0.8301734
v -28.02153 163.5154 2.506141
v -27.22308 166.2204 2.378379
v -28.47712 166.5114 0.702411
v -29.0705 166.7092 1.180742
v -27.81645 166.4181 2.85671
v -27.22308 166.2204 2.378379
v -27.81645 166.4181 2.85671
v -27.77844 166.5469 2.850626
v -27.18506 166.3492 2.372296
v -28.4391 166.6402 0.6963277
v -29.03248 166.8379 1.174659
v -29.0705 166.7092 1.180742
v -28.47712 166.5114 0.702411
v -28.4391 166.6402 0.6963277
v -28.47712 166.5114 0.702411
v -27.22308 166.2204 2.378379
v -27.18506 166.3492 2.372296
v -27.77844 166.5469 2.850626
v -27.80314 166.5527 2.817608
v -27.24191 166.3656 2.365192
v -27.18506 166.3492 2.372296
v -28.44654 166.6452 0.7552618
v -28.4391 166.6402 0.6963277
v -29.00777 166.8322 1.207677
v -29.03248 166.8379 1.174659
v -28.47004 166.5656 0.7590209
v -29.03127 166.7526 1.211437
v -29.00777 166.8322 1.207677
v -28.44654 166.6452 0.7552618
v -27.24191 166.3656 2.365192
v -27.26541 166.2861 2.368951
v -28.47004 166.5656 0.7590209
v -28.44654 166.6452 0.7552618
v -27.24191 166.3656 2.365192
v -27.80314 166.5527 2.817608
v -27.82664 166.4731 2.821367
v -27.26541 166.2861 2.368951
v -27.82664 166.4731 2.821367
v -29.03127 166.7526 1.211437
v -28.47004 166.5656 0.7590209
v -27.26541 166.2861 2.368951
vt 0 0
vt 0 1.652905
vt 0.0034479 0.0101253
vt 0.8619807 0
vt 0.0034479 1.642645
vt 0.8588715 0.0101253
vt 0.0034479 1.652905
vt 0.8588715 1.642645
vt 0.8619807 1.652905
vt -0.0034479 0.7217033
vt -0.0034479 0.6962899
vt -0.8588715 0.6962899
vt -0.8588715 0.7217033
vt -0.4895029 0.7217033
vt -0.0030173 0.7217033
vt -0.0030173 0.6962899
vt -0.4895029 0.6962899
vt -0.8619807 1.652905
vt -0.8264191 1.652905
vt -0.8264191 1.534848
vt -0.8619807 1.534848
vt -0.8264191 0.1095411
vt -0.8619807 0.1095411
vt -0.8619807 1.534848
vt -0.8264191 1.534848
vt -0.8264191 0
vt -0.8264191 1.652905
vt -0.0394169 1.652905
vt -0.0394169 1.534409
vt -0.0394169 0.121431
vt 0 0.121431
vt 0 1.534409
vt -0.0394169 0
vt -0.8264191 0
vt -0.8264191 1.534848
vt 0 0.121431
vt 0 0
vt -0.0394169 0
vt -0.0394169 0.121431
vt -0.0394169 1.652905
vt 0 1.652905
vt 0 1.534409
vt -0.0394169 1.534409
vt -0.8619807 0.1095411
vt -0.8264191 0.1095411
vt -0.8264191 0
vt -0.8619807 0
vt 0.4925604 0.7217033
vt 0 0.7217033
vt 0 0.7644684
vt 0.4925604 0.7644684
vt -0.0034479 1.652905
vt 0 1.652905
vt 0 0
vt -0.0034479 1.642645
vt 0 0.7644684
vt 0 0.7217033
vt -0.0034479 0.7217033
vt -0.8619807 0.7217033
vt -0.8619807 0.7644684
vt 0.8619807 0
vt 0 0
vt 0 2.857029
vt 0.8619807 2.857029
vt -0.4925604 0.7644684
vt 0 0.7644684
vt 0 0.7217033
vt -0.4925604 0.7217033
vt -0.0034479 1.642645
vt -0.8588715 1.642645
vt -0.0034479 1.652905
vt -0.8619807 1.652905
vt -0.8588715 0.0101253
vt -0.8619807 0
vt -0.0034479 0.0101253
vt 0 0
vt 0.9922078 0.7366546
vt 0.9922078 0.6903937
vt 0 0.6903937
vt 0 0.7366546
vt -2.434698 0.7366546
vt -2.073895 0.7366546
vt -2.073895 0.6903937
vt -2.434698 0.6903937
vt 0.9962076 0.9893684
vt 0.0039998 0.9893684
vt 0.0039998 0.0108634
vt 0.9962076 0.0108634
vt 2.434698 0.6903937
vt 2.073895 0.6903937
vt 2.073895 0.7366546
vt 2.434698 0.7366546
vt 0.9962076 0.0108634
vt 0.0039998 0.0108634
vt 0.0039998 0.9893684
vt 0.9962076 0.9893684
vt 0 0.7366546
vt 0 0.6903937
vt -0.9922078 0.6903937
vt -0.9922078 0.7366546
vt 0.9962076 0.0108634
vt 0.0039998 0.0108634
vt 0.0039998 0.9893684
vt 0.9962076 0.9893684
vt 2.434698 1.142975
vt 2.073895 1.142975
vt 2.073895 1.192508
vt 2.434698 1.192508
vt 0 1.192508
vt 0 1.142975
vt -0.9922078 1.142975
vt -0.9922078 1.192508
vt -2.434698 1.192508
vt -2.073895 1.192508
vt -2.073895 1.142975
vt -2.434698 1.142975
vt 0.9922078 1.192508
vt 0.9922078 1.142975
vt 0 1.142975
vt 0 1.192508
vt 0.9962076 0.9893684
vt 0.0039998 0.9893684
vt 0.0039998 0.0108634
vt 0.9962076 0.0108634
vt 0 4.955092
vt 0 4.817102
vt -0.9922078 4.817102
vt -0.9922078 4.955092
vt 0.9962076 0.9893684
vt 0.0039998 0.9893684
vt 0.0039998 0.0108634
vt 0.9962076 0.0108634
vt -2.434698 4.955092
vt -2.073895 4.955092
vt -2.073895 4.817102
vt -2.434698 4.817102
vt 0.9962076 0.0108634
vt 0.972734 0.0108634
vt 0.972734 0.9257075
vt 0.9962076 0.9893684
vt 0.0274734 0.9257075
vt 0.0039998 0.9893684
vt 0.0274734 0.0108634
vt 0.0039998 0.0108634
vt 2.434698 4.817102
vt 2.073895 4.817102
vt 2.073895 4.955092
vt 2.434698 4.955092
vt 0.972734 0.0108634
vt 0.972734 0.0108634
vt 0.9962076 0.0108634
vt 0.9962076 0.0108634
vt 0.0039998 0.0108634
vt 0.0274734 0.0108634
vt 0.0039998 0.0108634
vt 0.0274734 0.0108634
vt 0.0274734 0.9257075
vt 0.0274734 0.0108634
vt 0.0274734 0.0108634
vt 0.0274734 0.9257075
vt 0.972734 0.9257075
vt 0.972734 0.9257075
vt 0.0274734 0.9257075
vt 0.0274734 0.9257075
vt 0.972734 0.9257075
vt 0.972734 0.0108634
vt 0.972734 0.0108634
vt 0.972734 0.9257075
vt 0.972734 0.0108634
vt 0.0274734 0.0108634
vt 0.0274734 0.9257075
vt 0.972734 0.9257075
vt 0.9962076 0.9893684
vt 0.0039998 0.9893684
vt 0.0039998 0.0108634
vt 0.9962076 0.0108634
vt -2.434698 0.3322244
vt -2.073895 0.3322244
vt -2.073895 0.2019634
vt -2.434698 0.2019634
vt 0 0.3322244
vt 0 0.2019634
vt -0.9922078 0.2019634
vt -0.9922078 0.3322244
vt 0.9962076 0.0108634
vt 0.0039998 0.0108634
vt 0.0039998 0.9893684
vt 0.9962076 0.9893684
vt 0.9962076 0.9893684
vt 0.0039998 0.9893684
vt 0.0039998 0.0108634
vt 0.9962076 0.0108634
vt 2.434698 3.840747
vt 2.073895 3.840747
vt 2.073895 4.007801
vt 2.434698 4.007801
vt -2.434698 4.007801
vt -2.073895 4.007801
vt -2.073895 3.840747
vt -2.434698 3.840747
vt 0 4.007801
vt 0 3.840747
vt -0.9922078 3.840747
vt -0.9922078 4.007801
vt 0.9962076 0.0108634
vt 0.9766599 0.0108634
vt 0.9766599 0.9363544
vt 0.9962076 0.9893684
vt 0.0235476 0.9363544
vt 0.0039998 0.9893684
vt 0.0235476 0.0108634
vt 0.0039998 0.0108634
vt 0.0235476 0.9363544
vt 0.0235476 0.0108634
vt 0.0235476 0.0108634
vt 0.0235476 0.9363544
vt 0.9766599 0.9363544
vt 0.9766599 0.9363544
vt 0.0235476 0.9363544
vt 0.0235476 0.9363544
vt 0.9766599 0.9363544
vt 0.9766599 0.0108634
vt 0.9766599 0.0108634
vt 0.9766599 0.9363544
vt 0.9766599 0.0108634
vt 0.0235476 0.0108634
vt 0.0235476 0.9363544
vt 0.9766599 0.9363544
vn -0.4583337 0.2744277 -0.8453521
vn -0.4583337 0.2744277 -0.8453521
vn -0.4583337 0.2744277 -0.8453521
vn -0.4583337 0.2744277 -0.8453521
vn -0.4583337 0.2744277 -0.8453521
vn -0.4583337 0.2744277 -0.8453521
vn -0.4583337 0.2744277 -0.8453521
vn -0.4583337 0.2744277 -0.8453521
vn -0.4583337 0.2744277 -0.8453521
vn 0.8885466 0.1196702 -0.4429043
vn 0.8885466 0.1196702 -0.4429043
vn 0.8885466 0.1196702 -0.4429043
vn 0.8885466 0.1196702 -0.4429043
vn -0.02038157 -0.9541324 -0.2986907
vn -0.02038157 -0.9541324 -0.2986907
vn -0.02038157 -0.9541324 -0.2986907
vn -0.02038157 -0.9541324 -0.2986907
vn 0.4583337 -0.2744277 0.8453521
vn 0.4583337 -0.2744277 0.8453521
vn 0.4583337 -0.2744277 0.8453521
vn 0.4583337 -0.2744277 0.8453521
vn 0.4583337 -0.2744277 0.8453521
vn 0.4583337 -0.2744277 0.8453521
vn 0.4583337 -0.2744277 0.8453521
vn 0.4583337 -0.2744277 0.8453521
vn 0.4583337 -0.2744277 0.8453521
vn 0.4583337 -0.2744277 0.8453521
vn 0.4583337 -0.2744277 0.8453521
vn 0.4583337 -0.2744277 0.8453521
vn 0.4583337 -0.2744277 0.8453521
vn 0.4583337 -0.2744277 0.8453521
vn 0.4583337 -0.2744277 0.8453521
vn 0.4583337 -0.2744277 0.8453521
vn 0.4583337 -0.2744277 0.8453521
vn 0.4583337 -0.2744277 0.8453521
vn 0.4583337 -0.2744277 0.8453521
vn 0.4583337 -0.2744277 0.8453521
vn 0.4583337 -0.2744277 0.8453521
vn 0.4583337 -0.2744277 0.8453521
vn 0.4583337 -0.2744277 0.8453521
vn 0.4583337 -0.2744277 0.8453521
vn 0.4583337 -0.2744277 0.8453521
vn 0.4583337 -0.2744277 0.8453521
vn 0.4583337 -0.2744277 0.8453521
vn 0.4583337 -0.2744277 0.8453521
vn 0.4583337 -0.2744277 0.8453521
vn 0.4583337 -0.2744277 0.8453521
vn 0.02038157 0.9541324 0.2986907
vn 0.02038157 0.9541324 0.2986907
vn 0.02038157 0.9541324 0.2986907
vn 0.02038157 0.9541324 0.2986907
vn 0.4583337 -0.2744277 0.8453521
vn 0.4583337 -0.2744277 0.8453521
vn 0.4583337 -0.2744277 0.8453521
vn 0.4583337 -0.2744277 0.8453521
vn 0.8885466 0.1196702 -0.4429043
vn 0.8885466 0.1196702 -0.4429043
vn 0.8885466 0.1196702 -0.4429043
vn 0.8885466 0.1196702 -0.4429043
vn 0.8885466 0.1196702 -0.4429043
vn -0.4583337 0.2744277 -0.8453521
vn -0.4583337 0.2744277 -0.8453521
vn -0.4583337 0.2744277 -0.8453521
vn -0.4583337 0.2744277 -0.8453521
vn -0.02038157 -0.9541324 -0.2986907
vn -0.02038157 -0.9541324 -0.2986907
vn -0.02038157 -0.9541324 -0.2986907
vn -0.02038157 -0.9541324 -0.2986907
vn 0.4583337 -0.2744277 0.8453521
vn 0.4583337 -0.2744277 0.8453521
vn 0.4583337 -0.2744277 0.8453521
vn 0.4583337 -0.2744277 0.8453521
vn 0.4583337 -0.2744277 0.8453521
vn 0.4583337 -0.2744277 0.8453521
vn 0.4583337 -0.2744277 0.8453521
vn 0.4583337 -0.2744277 0.8453521
vn -0.7535911 0.2511341 0.6074802
vn -0.7535911 0.2511341 0.6074802
vn -0.7535911 0.2511341 0.6074802
vn -0.7535911 0.2511341 0.6074802
vn -0.593396 0.1376996 -0.7930447
vn -0.593396 0.1376996 -0.7930447
vn -0.593396 0.1376996 -0.7930447
vn -0.593396 0.1376996 -0.7930447
vn -0.2828104 -0.9581078 0.04525276
vn -0.2828104 -0.9581078 0.04525276
vn -0.2828104 -0.9581078 0.04525276
vn -0.2828104 -0.9581078 0.04525276
vn 0.593396 -0.1376996 0.7930447
vn 0.593396 -0.1376996 0.7930447
vn 0.593396 -0.1376996 0.7930447
vn 0.593396 -0.1376996 0.7930447
vn 0.2828104 0.9581078 -0.04525276
vn 0.2828104 0.9581078 -0.04525276
vn 0.2828104 0.9581078 -0.04525276
vn 0.2828104 0.9581078 -0.04525276
vn 0.7535911 -0.2511341 -0.6074802
vn 0.7535911 -0.2511341 -0.6074802
vn 0.7535911 -0.2511341 -0.6074802
vn 0.7535911 -0.2511341 -0.6074802
vn 0.2828104 0.9581078 -0.04525276
vn 0.2828104 0.9581078 -0.04525276
vn 0.2828104 0.9581078 -0.04525276
vn 0.2828104 0.9581078 -0.04525276
vn 0.593396 -0.1376996 0.7930447
vn 0.593396 -0.1376996 0.7930447
vn 0.593396 -0.1376996 0.7930447
vn 0.593396 -0.1376996 0.7930447
vn 0.7535911 -0.2511341 -0.6074802
vn 0.7535911 -0.2511341 -0.6074802
vn 0.7535911 -0.2511341 -0.6074802
vn 0.7535911 -0.2511341 -0.6074802
vn -0.593396 0.1376996 -0.7930447
vn -0.593396 0.1376996 -0.7930447
vn -0.593396 0.1376996 -0.7930447
vn -0.593396 0.1376996 -0.7930447
vn -0.7535911 0.2511341 0.6074802
vn -0.7535911 0.2511341 0.6074802
vn -0.7535911 0.2511341 0.6074802
vn -0.7535911 0.2511341 0.6074802
vn -0.2828104 -0.9581078 0.04525276
vn -0.2828104 -0.9581078 0.04525276
vn -0.2828104 -0.9581078 0.04525276
vn -0.2828104 -0.9581078 0.04525276
vn 0.7535911 -0.2511341 -0.6074802
vn 0.7535911 -0.2511341 -0.6074802
vn 0.7535911 -0.2511341 -0.6074802
vn 0.7535911 -0.2511341 -0.6074802
vn -0.2828104 -0.9581078 0.04525276
vn -0.2828104 -0.9581078 0.04525276
vn -0.2828104 -0.9581078 0.04525276
vn -0.2828104 -0.9581078 0.04525276
vn -0.593396 0.1376996 -0.7930447
vn -0.593396 0.1376996 -0.7930447
vn -0.593396 0.1376996 -0.7930447
vn -0.593396 0.1376996 -0.7930447
vn 0.2828104 0.9581078 -0.04525276
vn 0.2828104 0.9581078 -0.04525276
vn 0.2828104 0.9581078 -0.04525276
vn 0.2828104 0.9581078 -0.04525276
vn 0.2828104 0.9581078 -0.04525276
vn 0.2828104 0.9581078 -0.04525276
vn 0.2828104 0.9581078 -0.04525276
vn 0.2828104 0.9581078 -0.04525276
vn 0.593396 -0.1376996 0.7930447
vn 0.593396 -0.1376996 0.7930447
vn 0.593396 -0.1376996 0.7930447
vn 0.593396 -0.1376996 0.7930447
vn -0.7535911 0.2511341 0.6074802
vn -0.7535911 0.2511341 0.6074802
vn -0.7535911 0.2511341 0.6074802
vn -0.7535911 0.2511341 0.6074802
vn -0.7535911 0.2511341 0.6074802
vn -0.7535911 0.2511341 0.6074802
vn -0.7535911 0.2511341 0.6074802
vn -0.7535911 0.2511341 0.6074802
vn 0.593396 -0.1376996 0.7930447
vn 0.593396 -0.1376996 0.7930447
vn 0.593396 -0.1376996 0.7930447
vn 0.593396 -0.1376996 0.7930447
vn -0.7535911 0.2511341 0.6074802
vn -0.7535911 0.2511341 0.6074802
vn -0.7535911 0.2511341 0.6074802
vn -0.7535911 0.2511341 0.6074802
vn -0.593396 0.1376996 -0.7930447
vn -0.593396 0.1376996 -0.7930447
vn -0.593396 0.1376996 -0.7930447
vn -0.593396 0.1376996 -0.7930447
vn 0.2828104 0.9581078 -0.04525276
vn 0.2828104 0.9581078 -0.04525276
vn 0.2828104 0.9581078 -0.04525276
vn 0.2828104 0.9581078 -0.04525276
vn -0.2828104 -0.9581078 0.04525276
vn -0.2828104 -0.9581078 0.04525276
vn -0.2828104 -0.9581078 0.04525276
vn -0.2828104 -0.9581078 0.04525276
vn -0.593396 0.1376996 -0.7930447
vn -0.593396 0.1376996 -0.7930447
vn -0.593396 0.1376996 -0.7930447
vn -0.593396 0.1376996 -0.7930447
vn 0.7535911 -0.2511341 -0.6074802
vn 0.7535911 -0.2511341 -0.6074802
vn 0.7535911 -0.2511341 -0.6074802
vn 0.7535911 -0.2511341 -0.6074802
vn 0.2828104 0.9581078 -0.04525276
vn 0.2828104 0.9581078 -0.04525276
vn 0.2828104 0.9581078 -0.04525276
vn 0.2828104 0.9581078 -0.04525276
vn -0.2828104 -0.9581078 0.04525276
vn -0.2828104 -0.9581078 0.04525276
vn -0.2828104 -0.9581078 0.04525276
vn -0.2828104 -0.9581078 0.04525276
vn 0.593396 -0.1376996 0.7930447
vn 0.593396 -0.1376996 0.7930447
vn 0.593396 -0.1376996 0.7930447
vn 0.593396 -0.1376996 0.7930447
vn -0.593396 0.1376996 -0.7930447
vn -0.593396 0.1376996 -0.7930447
vn -0.593396 0.1376996 -0.7930447
vn -0.593396 0.1376996 -0.7930447
vn 0.7535911 -0.2511341 -0.6074802
vn 0.7535911 -0.2511341 -0.6074802
vn 0.7535911 -0.2511341 -0.6074802
vn 0.7535911 -0.2511341 -0.6074802
vn 0.2828104 0.9581078 -0.04525276
vn 0.2828104 0.9581078 -0.04525276
vn 0.2828104 0.9581078 -0.04525276
vn 0.2828104 0.9581078 -0.04525276
vn 0.2828104 0.9581078 -0.04525276
vn 0.2828104 0.9581078 -0.04525276
vn 0.2828104 0.9581078 -0.04525276
vn 0.2828104 0.9581078 -0.04525276
vn 0.593396 -0.1376996 0.7930447
vn 0.593396 -0.1376996 0.7930447
vn 0.593396 -0.1376996 0.7930447
vn 0.593396 -0.1376996 0.7930447
vn -0.7535911 0.2511341 0.6074802
vn -0.7535911 0.2511341 0.6074802
vn -0.7535911 0.2511341 0.6074802
vn -0.7535911 0.2511341 0.6074802
vn -0.593396 0.1376996 -0.7930447
vn -0.593396 0.1376996 -0.7930447
vn -0.593396 0.1376996 -0.7930447
vn -0.593396 0.1376996 -0.7930447
vn 0.2828104 0.9581078 -0.04525276
vn 0.2828104 0.9581078 -0.04525276
vn 0.2828104 0.9581078 -0.04525276
vn 0.2828104 0.9581078 -0.04525276
g Combined Mesh (root: scene) 210_0
f 3/3/3 2/2/2 1/1/1
f 1/1/1 4/4/4 3/3/3
f 3/3/3 5/5/5 2/2/2
f 4/4/4 6/6/6 3/3/3
f 7/7/7 2/2/2 5/5/5
f 4/4/4 8/8/8 6/6/6
f 5/5/5 8/8/8 7/7/7
f 8/8/8 4/4/4 9/9/9
f 8/8/8 9/9/9 7/7/7
g Combined Mesh (root: scene) 210_1
f 12/12/12 11/11/11 10/10/10
f 10/10/10 13/13/13 12/12/12
f 16/16/16 15/15/15 14/14/14
f 14/14/14 17/17/17 16/16/16
g Combined Mesh (root: scene) 210_2
f 20/20/20 19/19/19 18/18/18
f 18/18/18 21/21/21 20/20/20
g Combined Mesh (root: scene) 210_3
f 24/24/24 23/23/23 22/22/22
f 22/22/22 25/25/25 24/24/24
f 25/25/25 22/22/22 26/26/26
f 29/29/29 28/28/28 27/27/27
f 27/27/27 30/30/30 29/29/29
f 29/29/29 30/30/30 31/31/31
f 31/31/31 32/32/32 29/29/29
f 27/27/27 33/33/33 30/30/30
f 27/27/27 34/34/34 33/33/33
f 27/27/27 35/35/35 34/34/34
g Combined Mesh (root: scene) 210_4
f 38/38/38 37/37/37 36/36/36
f 36/36/36 39/39/39 38/38/38
g Combined Mesh (root: scene) 210_5
f 42/42/42 41/41/41 40/40/40
f 40/40/40 43/43/43 42/42/42
g Combined Mesh (root: scene) 210_6
f 46/46/46 45/45/45 44/44/44
f 44/44/44 47/47/47 46/46/46
g Combined Mesh (root: scene) 210_7
f 50/50/50 49/49/49 48/48/48
f 48/48/48 51/51/51 50/50/50
f 54/54/54 53/53/53 52/52/52
f 52/52/52 55/55/55 54/54/54
f 58/58/58 57/57/57 56/56/56
f 56/56/56 59/59/59 58/58/58
f 56/56/56 60/60/60 59/59/59
f 63/63/63 62/62/62 61/61/61
f 61/61/61 64/64/64 63/63/63
f 67/67/67 66/66/66 65/65/65
f 65/65/65 68/68/68 67/67/67
f 71/71/71 70/70/70 69/69/69
f 71/71/71 72/72/72 70/70/70
f 72/72/72 73/73/73 70/70/70
f 73/73/73 72/72/72 74/74/74
f 75/75/75 73/73/73 74/74/74
f 76/76/76 69/69/69 75/75/75
f 75/75/75 74/74/74 76/76/76
g Combined Mesh (root: scene) 210_8
f 79/79/79 78/78/78 77/77/77
f 77/77/77 80/80/80 79/79/79
f 83/83/83 82/82/82 81/81/81
f 81/81/81 84/84/84 83/83/83
f 87/87/87 86/86/86 85/85/85
f 85/85/85 88/88/88 87/87/87
f 91/91/91 90/90/90 89/89/89
f 89/89/89 92/92/92 91/91/91
f 95/95/95 94/94/94 93/93/93
f 93/93/93 96/96/96 95/95/95
f 99/99/99 98/98/98 97/97/97
f 97/97/97 100/100/100 99/99/99
g Combined Mesh (root: scene) 210_9
f 103/103/103 102/102/102 101/101/101
f 101/101/101 104/104/104 103/103/103
f 107/107/107 106/106/106 105/105/105
f 105/105/105 108/108/108 107/107/107
f 111/111/111 110/110/110 109/109/109
f 109/109/109 112/112/112 111/111/111
f 115/115/115 114/114/114 113/113/113
f 113/113/113 116/116/116 115/115/115
f 119/119/119 118/118/118 117/117/117
f 117/117/117 120/120/120 119/119/119
f 123/123/123 122/122/122 121/121/121
f 121/121/121 124/124/124 123/123/123
g Combined Mesh (root: scene) 210_10
f 127/127/127 126/126/126 125/125/125
f 125/125/125 128/128/128 127/127/127
f 131/131/131 130/130/130 129/129/129
f 129/129/129 132/132/132 131/131/131
f 135/135/135 134/134/134 133/133/133
f 133/133/133 136/136/136 135/135/135
f 139/139/139 138/138/138 137/137/137
f 139/139/139 137/137/137 140/140/140
f 141/141/141 139/139/139 140/140/140
f 141/141/141 140/140/140 142/142/142
f 143/143/143 141/141/141 142/142/142
f 142/142/142 144/144/144 143/143/143
f 147/147/147 146/146/146 145/145/145
f 145/145/145 148/148/148 147/147/147
f 151/151/151 150/150/150 149/149/149
f 152/152/152 151/151/151 149/149/149
f 149/149/149 153/153/153 152/152/152
f 153/153/153 149/149/149 154/154/154
f 154/154/154 155/155/155 153/153/153
f 154/154/154 156/156/156 155/155/155
f 159/159/159 158/158/158 157/157/157
f 157/157/157 160/160/160 159/159/159
f 163/163/163 162/162/162 161/161/161
f 161/161/161 164/164/164 163/163/163
f 167/167/167 166/166/166 165/165/165
f 165/165/165 168/168/168 167/167/167
f 171/171/171 170/170/170 169/169/169
f 169/169/169 172/172/172 171/171/171
g Combined Mesh (root: scene) 210_11
f 175/175/175 174/174/174 173/173/173
f 173/173/173 176/176/176 175/175/175
f 179/179/179 178/178/178 177/177/177
f 177/177/177 180/180/180 179/179/179
f 183/183/183 182/182/182 181/181/181
f 181/181/181 184/184/184 183/183/183
f 187/187/187 186/186/186 185/185/185
f 185/185/185 188/188/188 187/187/187
g Combined Mesh (root: scene) 210_12
f 191/191/191 190/190/190 189/189/189
f 189/189/189 192/192/192 191/191/191
f 195/195/195 194/194/194 193/193/193
f 193/193/193 196/196/196 195/195/195
f 199/199/199 198/198/198 197/197/197
f 197/197/197 200/200/200 199/199/199
f 203/203/203 202/202/202 201/201/201
f 201/201/201 204/204/204 203/203/203
f 207/207/207 206/206/206 205/205/205
f 207/207/207 205/205/205 208/208/208
f 209/209/209 207/207/207 208/208/208
f 209/209/209 208/208/208 210/210/210
f 211/211/211 209/209/209 210/210/210
f 210/210/210 212/212/212 211/211/211
f 215/215/215 214/214/214 213/213/213
f 213/213/213 216/216/216 215/215/215
f 219/219/219 218/218/218 217/217/217
f 217/217/217 220/220/220 219/219/219
f 223/223/223 222/222/222 221/221/221
f 221/221/221 224/224/224 223/223/223
f 227/227/227 226/226/226 225/225/225
f 225/225/225 228/228/228 227/227/227
