g Combined Mesh (root: scene) 224
v -13.49759 149.3207 0.5205563
v -13.74286 146.5764 0.05386914
v -13.73746 146.5825 0.01534569
v -13.49219 149.3268 0.4820329
v -13.56466 149.3306 1.076007
v -13.48372 149.4216 0.4981551
v -13.4433 149.4171 0.5031151
v -13.52424 149.3261 1.080967
vn -0.986667 0.1087705 -0.1210669
vn -0.986667 0.1087705 -0.1210669
vn -0.986667 0.1087705 -0.1210669
vn -0.986667 0.1087705 -0.1210669
vn 0.08776903 0.9820423 0.1670018
vn 0.08776903 0.9820423 0.1670018
vn 0.08776903 0.9820423 0.1670018
vn 0.08776903 0.9820423 0.1670018
g Combined Mesh (root: scene) 224_0
f 3/3/3 2/2/2 1/1/1
f 1/1/1 4/4/4 3/3/3
g Combined Mesh (root: scene) 224_1
f 7/7/7 6/6/6 5/5/5
f 5/5/5 8/8/8 7/7/7
