g Combined Mesh (root: scene) 3
v -45.78179 107.4162 1.072999
v -45.81452 110.0586 1.185541
v -48.47488 107.3769 1.212729
v -48.50761 110.0193 1.325272
v -45.53178 109.8327 6.571399
v -45.49905 107.1903 6.458857
v -48.22487 109.7934 6.71113
v -48.19214 107.151 6.598588
v -45.53178 109.8327 6.571399
v -48.22487 109.7934 6.71113
v -45.81452 110.0586 1.185541
v -48.50761 110.0193 1.325272
v -45.49905 107.1903 6.458857
v -45.53178 109.8327 6.571399
v -45.78179 107.4162 1.072999
v -45.81452 110.0586 1.185541
v -48.19214 107.151 6.598588
v -45.49905 107.1903 6.458857
v -48.47488 107.3769 1.212729
v -45.78179 107.4162 1.072999
v -48.19214 107.151 6.598588
v -48.47488 107.3769 1.212729
v -48.22487 109.7934 6.71113
v -48.50761 110.0193 1.325272
v -43.65924 109.9485 3.068904
v -43.66045 112.5901 3.20343
v -44.30544 110.0814 0.4538374
v -44.30666 112.723 0.5883636
v -48.90121 112.5219 4.495001
v -48.9 109.8803 4.360475
v -49.54742 112.6548 1.879935
v -49.54621 110.0132 1.745408
v -48.90121 112.5219 4.495001
v -49.54742 112.6548 1.879935
v -43.66045 112.5901 3.20343
v -44.30666 112.723 0.5883636
v -48.9 109.8803 4.360475
v -48.90121 112.5219 4.495001
v -43.65924 109.9485 3.068904
v -43.66045 112.5901 3.20343
v -49.54621 110.0132 1.745408
v -48.9 109.8803 4.360475
v -44.30544 110.0814 0.4538374
v -43.65924 109.9485 3.068904
v -49.54621 110.0132 1.745408
v -44.30544 110.0814 0.4538374
v -49.54742 112.6548 1.879935
v -44.30666 112.723 0.5883636
vt 0 -7.395571E-32
vt 0 0.9809059
vt 1.00019 -7.395571E-32
vt 1.00019 0.9809059
vt 0 0.9809059
vt 0 1.914542E-16
vt -1.00019 0.9809059
vt -1.00019 1.914542E-16
vt -1.000932 0
vt -1.000932 1.00019
vt 0 0
vt 0 1.00019
vt -1.000932 -1.697046E-16
vt -1.000932 0.9809059
vt 0 0
vt -2.220446E-16 0.9809059
vt 1.000932 1.00019
vt 1.000932 0
vt 0 1.00019
vt 0 0
vt 1.000932 -1.697046E-16
vt 0 0
vt 1.000932 0.9809059
vt 2.220446E-16 0.9809059
vt 0 -7.395571E-32
vt 0 0.9809059
vt 1.00019 -7.395571E-32
vt 1.00019 0.9809059
vt 0 0.9809059
vt 0 1.914542E-16
vt -1.00019 0.9809059
vt -1.00019 1.914542E-16
vt -1.000932 0
vt -1.000932 1.00019
vt 0 0
vt 0 1.00019
vt -1.000932 -1.697046E-16
vt -1.000932 0.9809059
vt 0 0
vt -2.220446E-16 0.9809059
vt 1.000932 1.00019
vt 1.000932 0
vt 0 1.00019
vt 0 0
vt 1.000932 -1.697046E-16
vt 0 0
vt 1.000932 0.9809059
vt 2.220446E-16 0.9809059
vn -0.0523788 0.04184624 -0.9977507
vn -0.0523788 0.04184624 -0.9977507
vn -0.0523788 0.04184624 -0.9977507
vn -0.0523788 0.04184624 -0.9977507
vn 0.0523788 -0.04184624 0.9977507
vn 0.0523788 -0.04184624 0.9977507
vn 0.0523788 -0.04184624 0.9977507
vn 0.0523788 -0.04184624 0.9977507
vn -0.01237343 0.9990177 0.04254895
vn -0.01237343 0.9990177 0.04254895
vn -0.01237343 0.9990177 0.04254895
vn -0.01237343 0.9990177 0.04254895
vn 0.9985512 0.01457427 -0.05180958
vn 0.9985512 0.01457427 -0.05180958
vn 0.9985512 0.01457427 -0.05180958
vn 0.9985512 0.01457427 -0.05180958
vn 0.01237343 -0.9990177 -0.04254895
vn 0.01237343 -0.9990177 -0.04254895
vn 0.01237343 -0.9990177 -0.04254895
vn 0.01237343 -0.9990177 -0.04254895
vn -0.9985512 -0.01457427 0.05180958
vn -0.9985512 -0.01457427 0.05180958
vn -0.9985512 -0.01457427 0.05180958
vn -0.9985512 -0.01457427 0.05180958
vn 0.9708714 0.0126311 -0.2392684
vn 0.9708714 0.0126311 -0.2392684
vn 0.9708714 0.0126311 -0.2392684
vn 0.9708714 0.0126311 -0.2392684
vn -0.9708714 -0.0126311 0.2392684
vn -0.9708714 -0.0126311 0.2392684
vn -0.9708714 -0.0126311 0.2392684
vn -0.9708714 -0.0126311 0.2392684
vn -0.0004587714 0.9987056 0.05086066
vn -0.0004587714 0.9987056 0.05086066
vn -0.0004587714 0.9987056 0.05086066
vn -0.0004587714 0.9987056 0.05086066
vn 0.2396011 -0.04926939 0.9696206
vn 0.2396011 -0.04926939 0.9696206
vn 0.2396011 -0.04926939 0.9696206
vn 0.2396011 -0.04926939 0.9696206
vn 0.0004587714 -0.9987056 -0.05086066
vn 0.0004587714 -0.9987056 -0.05086066
vn 0.0004587714 -0.9987056 -0.05086066
vn 0.0004587714 -0.9987056 -0.05086066
vn -0.2396011 0.04926939 -0.9696206
vn -0.2396011 0.04926939 -0.9696206
vn -0.2396011 0.04926939 -0.9696206
vn -0.2396011 0.04926939 -0.9696206
g Combined Mesh (root: scene) 3_0
f 3/3/3 2/2/2 1/1/1
f 2/2/2 3/3/3 4/4/4
f 7/7/7 6/6/6 5/5/5
f 6/6/6 7/7/7 8/8/8
g Combined Mesh (root: scene) 3_1
f 11/11/11 10/10/10 9/9/9
f 10/10/10 11/11/11 12/12/12
f 15/15/15 14/14/14 13/13/13
f 14/14/14 15/15/15 16/16/16
f 19/19/19 18/18/18 17/17/17
f 18/18/18 19/19/19 20/20/20
f 23/23/23 22/22/22 21/21/21
f 22/22/22 23/23/23 24/24/24
g Combined Mesh (root: scene) 3_2
f 27/27/27 26/26/26 25/25/25
f 26/26/26 27/27/27 28/28/28
f 31/31/31 30/30/30 29/29/29
f 30/30/30 31/31/31 32/32/32
g Combined Mesh (root: scene) 3_3
f 35/35/35 34/34/34 33/33/33
f 34/34/34 35/35/35 36/36/36
f 39/39/39 38/38/38 37/37/37
f 38/38/38 39/39/39 40/40/40
f 43/43/43 42/42/42 41/41/41
f 42/42/42 43/43/43 44/44/44
f 47/47/47 46/46/46 45/45/45
f 46/46/46 47/47/47 48/48/48
