g Combined Mesh (root: scene) 233
v -24.89378 144.6714 -1.516461
v -24.68748 144.5577 -1.371859
v -24.96426 144.4442 -1.06613
v -25.31915 144.497 -1.046618
v -25.11284 144.3833 -0.9020172
v -24.72484 144.3476 -1.48368
v -24.68748 144.5577 -1.371859
v -24.89378 144.6714 -1.516461
v -24.93115 144.4612 -1.628281
v -25.11284 144.3833 -0.9020172
v -24.96426 144.4442 -1.06613
v -25.31915 144.497 -1.046618
v -24.89378 144.6714 -1.516461
v -24.68748 144.5577 -1.371859
v -24.93115 144.4612 -1.628281
v -24.89378 144.6714 -1.516461
v -24.72484 144.3476 -1.48368
v -24.68748 144.5577 -1.371859
v -25.5474 143.9379 -0.4935781
v -25.34222 143.9985 -0.6685554
v -25.38464 143.6141 -0.8513616
v -25.61259 143.3472 -0.7745131
v -25.40741 143.4078 -0.9494904
v -25.50187 144.0901 -0.8240573
v -25.34222 143.9985 -0.6685554
v -25.5474 143.9379 -0.4935781
v -25.70704 144.0295 -0.64908
v -25.40741 143.4078 -0.9494904
v -25.38464 143.6141 -0.8513616
v -25.61259 143.3472 -0.7745131
v -25.5474 143.9379 -0.4935781
v -25.34222 143.9985 -0.6685554
v -25.70704 144.0295 -0.64908
v -25.5474 143.9379 -0.4935781
v -25.50187 144.0901 -0.8240573
v -25.34222 143.9985 -0.6685554
v -23.26783 142.8086 1.351955
v -23.10818 142.717 1.507457
v -23.31336 142.6565 1.682434
v -23.47301 142.748 1.526932
v -23.47301 142.748 1.526932
v -23.31336 142.6565 1.682434
v -23.26783 142.8086 1.351955
v -23.10818 142.717 1.507457
v -24.20197 147.288 0.08108151
v -24.16461 147.4982 0.1929024
v -24.37091 147.6118 0.04830134
v -24.40828 147.4017 -0.0635196
v -24.40828 147.4017 -0.0635196
v -24.37091 147.6118 0.04830134
v -24.20197 147.288 0.08108151
v -24.16461 147.4982 0.1929024
vn 0.1550778 0.8721057 0.4640932
vn 0.1550778 0.8721057 0.4640932
vn 0.1550778 0.8721057 0.4640932
vn 0.1550778 0.8721057 0.4640932
vn 0.1550778 0.8721057 0.4640932
vn 0.6471019 0.2652925 -0.714758
vn 0.6471019 0.2652925 -0.714758
vn 0.6471019 0.2652925 -0.714758
vn 0.6471019 0.2652925 -0.714758
vn -0.1550778 -0.8721057 -0.4640932
vn -0.1550778 -0.8721057 -0.4640932
vn -0.1550778 -0.8721057 -0.4640932
vn -0.1550778 -0.8721057 -0.4640932
vn -0.1550778 -0.8721057 -0.4640932
vn -0.6471019 -0.2652925 0.714758
vn -0.6471019 -0.2652925 0.714758
vn -0.6471019 -0.2652925 0.714758
vn -0.6471019 -0.2652925 0.714758
vn 0.6625925 -0.3800662 0.6453841
vn 0.6625925 -0.3800662 0.6453841
vn 0.6625925 -0.3800662 0.6453841
vn 0.6625925 -0.3800662 0.6453841
vn 0.6625925 -0.3800662 0.6453841
vn 0.09917196 0.898617 0.4273786
vn 0.09917196 0.898617 0.4273786
vn 0.09917196 0.898617 0.4273786
vn 0.09917196 0.898617 0.4273786
vn -0.6625925 0.3800662 -0.6453841
vn -0.6625925 0.3800662 -0.6453841
vn -0.6625925 0.3800662 -0.6453841
vn -0.6625925 0.3800662 -0.6453841
vn -0.6625925 0.3800662 -0.6453841
vn -0.09917196 -0.898617 -0.4273786
vn -0.09917196 -0.898617 -0.4273786
vn -0.09917196 -0.898617 -0.4273786
vn -0.09917196 -0.898617 -0.4273786
vn 0.09917196 0.898617 0.4273786
vn 0.09917196 0.898617 0.4273786
vn 0.09917196 0.898617 0.4273786
vn 0.09917196 0.898617 0.4273786
vn -0.09917196 -0.898617 -0.4273786
vn -0.09917196 -0.898617 -0.4273786
vn -0.09917196 -0.898617 -0.4273786
vn -0.09917196 -0.898617 -0.4273786
vn 0.6471019 0.2652925 -0.714758
vn 0.6471019 0.2652925 -0.714758
vn 0.6471019 0.2652925 -0.714758
vn 0.6471019 0.2652925 -0.714758
vn -0.6471019 -0.2652925 0.714758
vn -0.6471019 -0.2652925 0.714758
vn -0.6471019 -0.2652925 0.714758
vn -0.6471019 -0.2652925 0.714758
g Combined Mesh (root: scene) 233_0
f 3/3/3 2/2/2 1/1/1
f 3/3/3 1/1/1 4/4/4
f 4/4/4 5/5/5 3/3/3
f 8/8/8 7/7/7 6/6/6
f 6/6/6 9/9/9 8/8/8
g Combined Mesh (root: scene) 233_1
f 12/12/12 11/11/11 10/10/10
f 11/11/11 12/12/12 13/13/13
f 11/11/11 13/13/13 14/14/14
f 17/17/17 16/16/16 15/15/15
f 16/16/16 17/17/17 18/18/18
g Combined Mesh (root: scene) 233_2
f 21/21/21 20/20/20 19/19/19
f 21/21/21 19/19/19 22/22/22
f 22/22/22 23/23/23 21/21/21
f 26/26/26 25/25/25 24/24/24
f 24/24/24 27/27/27 26/26/26
g Combined Mesh (root: scene) 233_3
f 30/30/30 29/29/29 28/28/28
f 29/29/29 30/30/30 31/31/31
f 29/29/29 31/31/31 32/32/32
f 35/35/35 34/34/34 33/33/33
f 34/34/34 35/35/35 36/36/36
g Combined Mesh (root: scene) 233_4
f 39/39/39 38/38/38 37/37/37
f 37/37/37 40/40/40 39/39/39
g Combined Mesh (root: scene) 233_5
f 43/43/43 42/42/42 41/41/41
f 42/42/42 43/43/43 44/44/44
g Combined Mesh (root: scene) 233_6
f 47/47/47 46/46/46 45/45/45
f 45/45/45 48/48/48 47/47/47
g Combined Mesh (root: scene) 233_7
f 51/51/51 50/50/50 49/49/49
f 50/50/50 51/51/51 52/52/52
