g Mesh
v 25.88512 211.4918 0
v 25.87902 211.4885 0.04763323
v 25.86107 211.479 0.08789042
v 25.83341 211.4645 0.1210136
v 25.79819 211.4463 0.1472449
v 25.75758 211.4257 0.1668264
v 25.71371 211.404 0.1800001
v 25.67817 211.3866 0.1796351
v 25.65808 211.3765 0.1599523
v 25.64946 211.3719 0.1265495
v 25.64831 211.371 0.08502454
v 25.65066 211.3718 0.04097544
v 25.65251 211.3726 5.374797E-08
v 25.65296 211.373 -0.03860685
v 25.65495 211.3744 -0.07930561
v 25.66025 211.3775 -0.1175223
v 25.67064 211.3829 -0.1486829
v 25.68787 211.3915 -0.1682134
v 25.71371 211.404 -0.17154
v 25.74651 211.4204 -0.1574095
v 25.78374 211.4393 -0.1386548
v 25.82081 211.4584 -0.1144062
v 25.85312 211.4751 -0.08379401
v 25.87609 211.4871 -0.04594844
v 25.88512 211.4918 0
v 28.10658 206.8664 5.739928E-09
v 28.10031 206.8635 0.04763323
v 28.08186 206.8549 0.08789042
v 28.05346 206.8419 0.1210136
v 28.0173 206.8257 0.1472449
v 27.97563 206.8073 0.1668264
v 27.93064 206.7881 0.18
v 27.89421 206.7726 0.1796351
v 27.8736 206.7636 0.1599523
v 27.86475 206.7595 0.1265494
v 27.86355 206.7587 0.08502453
v 27.86594 206.7594 0.04097543
v 27.86783 206.7601 5.169875E-08
v 27.8683 206.7604 -0.03860685
v 27.87036 206.7617 -0.0793056
v 27.87583 206.7645 -0.1175222
v 27.88649 206.7694 -0.1486828
v 27.90416 206.777 -0.1682134
v 27.93064 206.7881 -0.17154
v 27.96429 206.8026 -0.1574095
v 28.0025 206.8195 -0.1386548
v 28.04054 206.8365 -0.1144062
v 28.07372 206.8515 -0.083794
v 28.0973 206.8622 -0.04594843
v 28.10658 206.8664 5.739928E-09
v 31.34674 198.9174 0
v 31.34033 198.9148 0.04763322
v 31.32145 198.9073 0.0878904
v 31.29239 198.8958 0.1210136
v 31.25542 198.8815 0.1472449
v 31.21283 198.8654 0.1668263
v 31.16687 198.8486 0.18
v 31.12967 198.8351 0.1796351
v 31.10861 198.8272 0.1599523
v 31.09955 198.8236 0.1265494
v 31.09831 198.8228 0.08502452
v 31.10073 198.8234 0.04097543
v 31.10266 198.824 5.374795E-08
v 31.10314 198.8243 -0.03860684
v 31.10527 198.8255 -0.07930559
v 31.11088 198.828 -0.1175222
v 31.12179 198.8323 -0.1486828
v 31.13984 198.839 -0.1682134
v 31.16687 198.8486 -0.17154
v 31.20125 198.8613 -0.1574095
v 31.24031 198.8762 -0.1386548
v 31.27921 198.8911 -0.1144062
v 31.31314 198.9043 -0.08379399
v 31.33726 198.9137 -0.04594843
v 31.34674 198.9174 0
v 35.25629 189.1973 0
v 35.25003 189.1944 0.04763322
v 35.2316 189.1858 0.0878904
v 35.20322 189.1728 0.1210136
v 35.1671 189.1564 0.1472449
v 35.12546 189.138 0.1668263
v 35.08052 189.1186 0.18
v 35.04412 189.1031 0.1796351
v 35.02353 189.0941 0.1599523
v 35.01468 189.09 0.1265494
v 35.01349 189.0891 0.08502452
v 35.01587 189.0898 0.04097543
v 35.01777 189.0905 5.374795E-08
v 35.01823 189.0909 -0.03860684
v 35.02029 189.0921 -0.07930559
v 35.02575 189.0949 -0.1175222
v 35.0364 189.0998 -0.1486828
v 35.05406 189.1075 -0.1682134
v 35.08052 189.1186 -0.17154
v 35.11414 189.1333 -0.1574095
v 35.15231 189.1502 -0.1386548
v 35.19032 189.1673 -0.1144062
v 35.22346 189.1824 -0.08379399
v 35.24702 189.1931 -0.04594843
v 35.25629 189.1973 0
v 37.46128 184.5869 -1.147986E-08
v 37.45519 184.5836 0.04763321
v 37.43726 184.574 0.08789039
v 37.40963 184.5595 0.1210136
v 37.37445 184.5412 0.1472449
v 37.33389 184.5205 0.1668263
v 37.29006 184.4987 0.18
v 37.25456 184.4812 0.1796351
v 37.2345 184.4711 0.1599523
v 37.22589 184.4665 0.1265494
v 37.22474 184.4656 0.08502453
v 37.22709 184.4664 0.04097543
v 37.22894 184.4672 5.784637E-08
v 37.22938 184.4676 -0.03860684
v 37.23137 184.469 -0.07930559
v 37.23667 184.472 -0.1175222
v 37.24704 184.4775 -0.1486828
v 37.26425 184.4862 -0.1682134
v 37.29006 184.4987 -0.17154
v 37.32283 184.5152 -0.1574095
v 37.36002 184.5342 -0.1386548
v 37.39704 184.5533 -0.1144062
v 37.42932 184.5702 -0.08379401
v 37.45226 184.5822 -0.04594844
v 37.46128 184.5869 -1.147986E-08
v 39.36091 181.09 5.739928E-09
v 39.35501 181.0864 0.04763323
v 39.33766 181.0758 0.08789042
v 39.3109 181.0597 0.1210136
v 39.27682 181.0394 0.1472449
v 39.23749 181.0165 0.1668264
v 39.19497 180.9922 0.18
v 39.16053 180.9727 0.1796351
v 39.14107 180.9615 0.1599523
v 39.13273 180.9564 0.1265494
v 39.13164 180.9554 0.08502453
v 39.13393 180.9564 0.04097543
v 39.13573 180.9573 5.169875E-08
v 39.13615 180.9577 -0.03860685
v 39.13807 180.9592 -0.0793056
v 39.14318 180.9626 -0.1175222
v 39.15322 180.9687 -0.1486828
v 39.16991 180.9783 -0.1682134
v 39.19497 180.9922 -0.17154
v 39.22676 181.0105 -0.1574095
v 39.26281 181.0316 -0.1386548
v 39.29868 181.0529 -0.1144062
v 39.32995 181.0715 -0.083794
v 39.35217 181.0848 -0.04594843
v 39.36091 181.09 5.739928E-09
vt 0.62 41.18705
vt 0.6699396 41.18705
vt 0.7167308 41.18705
vt 0.7639664 41.18705
vt 0.8132813 41.18705
vt 0.8647118 41.18705
vt 0.9172938 41.18705
vt 0.9583541 41.18705
vt 0.9893464 41.18705
vt 1.025452 41.18705
vt 1.068561 41.18705
vt 1.114335 41.18705
vt 1.156899 41.18705
vt 1.196959 41.18705
vt 1.239258 41.18705
vt 1.279413 41.18705
vt 1.313961 41.18705
vt 1.342419 41.18705
vt 1.372372 41.18705
vt 1.413139 41.18705
vt 1.460651 41.18705
vt 1.510687 41.18705
vt 1.560026 41.18705
vt 1.607602 41.18705
vt 1.62 41.18705
vt 0.62 44.4892
vt 0.6699396 44.4892
vt 0.7167308 44.4892
vt 0.7639664 44.4892
vt 0.8132813 44.4892
vt 0.8647118 44.4892
vt 0.9172938 44.4892
vt 0.9583541 44.4892
vt 0.9893464 44.4892
vt 1.025452 44.4892
vt 1.068561 44.4892
vt 1.114335 44.4892
vt 1.156899 44.4892
vt 1.196959 44.4892
vt 1.239258 44.4892
vt 1.279413 44.4892
vt 1.313961 44.4892
vt 1.342419 44.4892
vt 1.372372 44.4892
vt 1.413139 44.4892
vt 1.460651 44.4892
vt 1.510687 44.4892
vt 1.560026 44.4892
vt 1.607602 44.4892
vt 1.62 44.4892
vt 0.62 50.0181
vt 0.6699396 50.0181
vt 0.7167308 50.0181
vt 0.7639664 50.0181
vt 0.8132813 50.0181
vt 0.8647118 50.0181
vt 0.9172938 50.0181
vt 0.9583541 50.0181
vt 0.9893464 50.0181
vt 1.025452 50.0181
vt 1.068561 50.0181
vt 1.114335 50.0181
vt 1.156899 50.0181
vt 1.196959 50.0181
vt 1.239258 50.0181
vt 1.279413 50.0181
vt 1.313961 50.0181
vt 1.342419 50.0181
vt 1.372372 50.0181
vt 1.413139 50.0181
vt 1.460651 50.0181
vt 1.510687 50.0181
vt 1.560026 50.0181
vt 1.607602 50.0181
vt 1.62 50.0181
vt 0.62 56.78122
vt 0.6699396 56.78122
vt 0.7167308 56.78122
vt 0.7639664 56.78122
vt 0.8132813 56.78122
vt 0.8647118 56.78122
vt 0.9172938 56.78122
vt 0.9583541 56.78122
vt 0.9893464 56.78122
vt 1.025452 56.78122
vt 1.068561 56.78122
vt 1.114335 56.78122
vt 1.156899 56.78122
vt 1.196959 56.78122
vt 1.239258 56.78122
vt 1.279413 56.78122
vt 1.313961 56.78122
vt 1.342419 56.78122
vt 1.372372 56.78122
vt 1.413139 56.78122
vt 1.460651 56.78122
vt 1.510687 56.78122
vt 1.560026 56.78122
vt 1.607602 56.78122
vt 1.62 56.78122
vt 0.62 60.08361
vt 0.6699396 60.08361
vt 0.7167308 60.08361
vt 0.7639664 60.08361
vt 0.8132813 60.08361
vt 0.8647118 60.08361
vt 0.9172938 60.08361
vt 0.9583541 60.08361
vt 0.9893464 60.08361
vt 1.025452 60.08361
vt 1.068561 60.08361
vt 1.114335 60.08361
vt 1.156899 60.08361
vt 1.196959 60.08361
vt 1.239258 60.08361
vt 1.279413 60.08361
vt 1.313961 60.08361
vt 1.342419 60.08361
vt 1.372372 60.08361
vt 1.413139 60.08361
vt 1.460651 60.08361
vt 1.510687 60.08361
vt 1.560026 60.08361
vt 1.607602 60.08361
vt 1.62 60.08361
vt 0.62 62.65691
vt 0.6699396 62.65691
vt 0.7167308 62.65691
vt 0.7639664 62.65691
vt 0.8132813 62.65691
vt 0.8647118 62.65691
vt 0.9172938 62.65691
vt 0.9583541 62.65691
vt 0.9893464 62.65691
vt 1.025452 62.65691
vt 1.068561 62.65691
vt 1.114335 62.65691
vt 1.156899 62.65691
vt 1.196959 62.65691
vt 1.239258 62.65691
vt 1.279413 62.65691
vt 1.313961 62.65691
vt 1.342419 62.65691
vt 1.372372 62.65691
vt 1.413139 62.65691
vt 1.460651 62.65691
vt 1.510687 62.65691
vt 1.560026 62.65691
vt 1.607602 62.65691
vt 1.62 62.65691
vn 0.8830856 0.4524252 0.1243803
vn 0.7944482 0.4070143 0.4507664
vn 0.6475133 0.3317361 0.6860588
vn 0.491166 0.2516357 0.8339278
vn 0.3515691 0.1801169 0.9186714
vn 0.2313427 0.1185222 0.9656228
vn -0.008206632 -0.00420454 0.9999527
vn -0.5864364 -0.3004451 0.7522126
vn -0.8542792 -0.4376671 0.2804534
vn -0.8894592 -0.4556906 0.03474038
vn -0.8885906 -0.4552456 -0.05618552
vn -0.888931 -0.45542 -0.04892931
vn -0.8898991 -0.455916 -0.01483375
vn -0.8884586 -0.455178 -0.0587592
vn -0.8788085 -0.450234 -0.1580607
vn -0.832862 -0.4266945 -0.3525231
vn -0.6337227 -0.3246708 -0.7021276
vn -0.1025514 -0.05253939 -0.9933299
vn 0.3200633 0.1639759 -0.9330962
vn 0.3644954 0.1867395 -0.9122891
vn 0.4475004 0.2292649 -0.8643964
vn 0.5729151 0.2935178 -0.765255
vn 0.7345394 0.3763216 -0.5646535
vn 0.8688908 0.4451529 -0.2164895
vn 0.8830856 0.4524252 0.1243803
vn 0.9063819 0.4037333 0.1243804
vn 0.8154061 0.3632096 0.4507664
vn 0.6645949 0.2960332 0.6860588
vn 0.504123 0.2245535 0.8339278
vn 0.3608435 0.160732 0.9186713
vn 0.2374455 0.1057663 0.9656228
vn -0.008423311 -0.003751999 0.9999526
vn -0.6019071 -0.2681098 0.7522126
vn -0.8768157 -0.3905635 0.2804534
vn -0.9129236 -0.4066472 0.03474034
vn -0.9120322 -0.4062501 -0.05618555
vn -0.9123815 -0.4064057 -0.04892934
vn -0.9133751 -0.4068483 -0.01483378
vn -0.9118966 -0.4061897 -0.05875923
vn -0.901992 -0.4017778 -0.1580607
vn -0.8548332 -0.3807718 -0.3525231
vn -0.6504406 -0.2897283 -0.7021276
vn -0.1052566 -0.0468849 -0.9933299
vn 0.3285069 0.1463281 -0.9330962
vn 0.3741111 0.1666418 -0.9122891
vn 0.4593059 0.2045904 -0.8643963
vn 0.5880291 0.2619281 -0.765255
vn 0.7539171 0.3358202 -0.5646535
vn 0.8918126 0.3972436 -0.2164894
vn 0.9063819 0.4037333 0.1243804
vn 0.9266579 0.3547305 0.1243803
vn 0.833647 0.3191254 0.4507663
vn 0.6794621 0.2601024 0.6860587
vn 0.5154004 0.1972985 0.8339276
vn 0.3689156 0.1412233 0.9186712
vn 0.2427572 0.09292901 0.9656227
vn -0.008611742 -0.00329663 0.9999525
vn -0.6153718 -0.2355683 0.7522125
vn -0.8964303 -0.3431592 0.2804534
vn -0.9333459 -0.3572907 0.03474037
vn -0.9324345 -0.3569418 -0.05618551
vn -0.9327917 -0.3570786 -0.0489293
vn -0.9338075 -0.3574674 -0.01483375
vn -0.932296 -0.3568888 -0.05875919
vn -0.9221697 -0.3530124 -0.1580606
vn -0.8739561 -0.3345559 -0.3525231
vn -0.664991 -0.2545628 -0.7021275
vn -0.1076112 -0.04119426 -0.9933298
vn 0.3358557 0.1285677 -0.9330961
vn 0.3824801 0.1464158 -0.912289
vn 0.4695807 0.1797585 -0.8643962
vn 0.6011834 0.2301368 -0.7652549
vn 0.7707824 0.2950604 -0.5646534
vn 0.9117627 0.3490286 -0.2164894
vn 0.9266579 0.3547305 0.1243803
vn 0.905559 0.4055755 0.1243803
vn 0.8146659 0.3648669 0.4507663
vn 0.6639916 0.2973839 0.6860587
vn 0.5036654 0.2255781 0.8339276
vn 0.3605159 0.1614653 0.9186712
vn 0.23723 0.1062489 0.9656227
vn -0.008415634 -0.003769149 0.9999525
vn -0.6013606 -0.2693332 0.7522125
vn -0.8760197 -0.3923456 0.2804534
vn -0.9120948 -0.4085027 0.03474037
vn -0.9112042 -0.4081038 -0.05618551
vn -0.9115532 -0.4082601 -0.0489293
vn -0.9125459 -0.4087047 -0.01483375
vn -0.9110688 -0.4080431 -0.05875919
vn -0.9011731 -0.4036111 -0.1580606
vn -0.8540572 -0.3825092 -0.3525231
vn -0.6498501 -0.2910503 -0.7021275
vn -0.1051611 -0.0470988 -0.9933298
vn 0.3282087 0.1469958 -0.9330961
vn 0.3737715 0.1674022 -0.912289
vn 0.4588889 0.205524 -0.8643962
vn 0.5874952 0.2631232 -0.7652549
vn 0.7532326 0.3373526 -0.5646534
vn 0.891003 0.3990562 -0.2164894
vn 0.905559 0.4055755 0.1243803
vn 0.8820697 0.4544025 0.1243803
vn 0.7935343 0.408793 0.4507662
vn 0.6467684 0.3331858 0.6860587
vn 0.4906009 0.2527353 0.8339276
vn 0.3511646 0.180904 0.9186713
vn 0.2310765 0.1190401 0.9656227
vn -0.008197251 -0.004222974 0.9999526
vn -0.5857618 -0.3017581 0.7522126
vn -0.8532965 -0.4395799 0.2804534
vn -0.888436 -0.4576821 0.03474043
vn -0.8875684 -0.4572352 -0.05618545
vn -0.8879084 -0.4574103 -0.04892924
vn -0.8888753 -0.4579085 -0.01483369
vn -0.8874365 -0.4571672 -0.05875913
vn -0.8777975 -0.4522016 -0.1580606
vn -0.8319038 -0.4285592 -0.3525231
vn -0.6329936 -0.3260897 -0.7021275
vn -0.1024334 -0.05276894 -0.9933298
vn 0.3196951 0.1646926 -0.9330961
vn 0.3640761 0.1875557 -0.912289
vn 0.4469857 0.2302669 -0.8643963
vn 0.5722561 0.2948006 -0.765255
vn 0.7336944 0.3779663 -0.5646535
vn 0.8678912 0.4470984 -0.2164895
vn 0.8820697 0.4544025 0.1243803
vn 0.8548708 0.5037108 0.1243804
vn 0.7690653 0.4531522 0.4507664
vn 0.626825 0.3693407 0.6860588
vn 0.475473 0.2801603 0.8339278
vn 0.3403362 0.2005345 0.9186713
vn 0.2239511 0.1319575 0.9656228
vn -0.007944586 -0.004681124 0.9999526
vn -0.5676997 -0.3345026 0.7522126
vn -0.8269849 -0.4872798 0.2804534
vn -0.8610408 -0.5073463 0.03474034
vn -0.8601999 -0.5068509 -0.05618555
vn -0.8605294 -0.507045 -0.04892934
vn -0.8614666 -0.5075972 -0.01483378
vn -0.8600721 -0.5067756 -0.05875923
vn -0.8507304 -0.5012712 -0.1580607
vn -0.8062518 -0.4750633 -0.3525232
vn -0.613475 -0.3614745 -0.7021276
vn -0.09927473 -0.05849513 -0.9933299
vn 0.3098373 0.1825637 -0.9330962
vn 0.3528498 0.2079077 -0.9122891
vn 0.4332028 0.2552537 -0.8643963
vn 0.5546104 0.3267901 -0.765255
vn 0.7110708 0.4189803 -0.5646535
vn 0.8411295 0.4956141 -0.2164894
vn 0.8548708 0.5037108 0.1243804
g Mesh_0
f 2/2/2 26/26/26 1/1/1
f 27/27/27 26/26/26 2/2/2
f 3/3/3 27/27/27 2/2/2
f 28/28/28 27/27/27 3/3/3
f 4/4/4 28/28/28 3/3/3
f 29/29/29 28/28/28 4/4/4
f 5/5/5 29/29/29 4/4/4
f 30/30/30 29/29/29 5/5/5
f 6/6/6 30/30/30 5/5/5
f 31/31/31 30/30/30 6/6/6
f 7/7/7 31/31/31 6/6/6
f 32/32/32 31/31/31 7/7/7
f 8/8/8 32/32/32 7/7/7
f 33/33/33 32/32/32 8/8/8
f 9/9/9 33/33/33 8/8/8
f 34/34/34 33/33/33 9/9/9
f 10/10/10 34/34/34 9/9/9
f 35/35/35 34/34/34 10/10/10
f 11/11/11 35/35/35 10/10/10
f 36/36/36 35/35/35 11/11/11
f 12/12/12 36/36/36 11/11/11
f 37/37/37 36/36/36 12/12/12
f 13/13/13 37/37/37 12/12/12
f 38/38/38 37/37/37 13/13/13
f 14/14/14 38/38/38 13/13/13
f 39/39/39 38/38/38 14/14/14
f 15/15/15 39/39/39 14/14/14
f 40/40/40 39/39/39 15/15/15
f 16/16/16 40/40/40 15/15/15
f 41/41/41 40/40/40 16/16/16
f 17/17/17 41/41/41 16/16/16
f 42/42/42 41/41/41 17/17/17
f 18/18/18 42/42/42 17/17/17
f 43/43/43 42/42/42 18/18/18
f 19/19/19 43/43/43 18/18/18
f 44/44/44 43/43/43 19/19/19
f 20/20/20 44/44/44 19/19/19
f 45/45/45 44/44/44 20/20/20
f 21/21/21 45/45/45 20/20/20
f 46/46/46 45/45/45 21/21/21
f 22/22/22 46/46/46 21/21/21
f 47/47/47 46/46/46 22/22/22
f 23/23/23 47/47/47 22/22/22
f 48/48/48 47/47/47 23/23/23
f 24/24/24 48/48/48 23/23/23
f 49/49/49 48/48/48 24/24/24
f 25/25/25 49/49/49 24/24/24
f 50/50/50 49/49/49 25/25/25
f 27/27/27 51/51/51 26/26/26
f 52/52/52 51/51/51 27/27/27
f 28/28/28 52/52/52 27/27/27
f 53/53/53 52/52/52 28/28/28
f 29/29/29 53/53/53 28/28/28
f 54/54/54 53/53/53 29/29/29
f 30/30/30 54/54/54 29/29/29
f 55/55/55 54/54/54 30/30/30
f 31/31/31 55/55/55 30/30/30
f 56/56/56 55/55/55 31/31/31
f 32/32/32 56/56/56 31/31/31
f 57/57/57 56/56/56 32/32/32
f 33/33/33 57/57/57 32/32/32
f 58/58/58 57/57/57 33/33/33
f 34/34/34 58/58/58 33/33/33
f 59/59/59 58/58/58 34/34/34
f 35/35/35 59/59/59 34/34/34
f 60/60/60 59/59/59 35/35/35
f 36/36/36 60/60/60 35/35/35
f 61/61/61 60/60/60 36/36/36
f 37/37/37 61/61/61 36/36/36
f 62/62/62 61/61/61 37/37/37
f 38/38/38 62/62/62 37/37/37
f 63/63/63 62/62/62 38/38/38
f 39/39/39 63/63/63 38/38/38
f 64/64/64 63/63/63 39/39/39
f 40/40/40 64/64/64 39/39/39
f 65/65/65 64/64/64 40/40/40
f 41/41/41 65/65/65 40/40/40
f 66/66/66 65/65/65 41/41/41
f 42/42/42 66/66/66 41/41/41
f 67/67/67 66/66/66 42/42/42
f 43/43/43 67/67/67 42/42/42
f 68/68/68 67/67/67 43/43/43
f 44/44/44 68/68/68 43/43/43
f 69/69/69 68/68/68 44/44/44
f 45/45/45 69/69/69 44/44/44
f 70/70/70 69/69/69 45/45/45
f 46/46/46 70/70/70 45/45/45
f 71/71/71 70/70/70 46/46/46
f 47/47/47 71/71/71 46/46/46
f 72/72/72 71/71/71 47/47/47
f 48/48/48 72/72/72 47/47/47
f 73/73/73 72/72/72 48/48/48
f 49/49/49 73/73/73 48/48/48
f 74/74/74 73/73/73 49/49/49
f 50/50/50 74/74/74 49/49/49
f 75/75/75 74/74/74 50/50/50
f 52/52/52 76/76/76 51/51/51
f 77/77/77 76/76/76 52/52/52
f 53/53/53 77/77/77 52/52/52
f 78/78/78 77/77/77 53/53/53
f 54/54/54 78/78/78 53/53/53
f 79/79/79 78/78/78 54/54/54
f 55/55/55 79/79/79 54/54/54
f 80/80/80 79/79/79 55/55/55
f 56/56/56 80/80/80 55/55/55
f 81/81/81 80/80/80 56/56/56
f 57/57/57 81/81/81 56/56/56
f 82/82/82 81/81/81 57/57/57
f 58/58/58 82/82/82 57/57/57
f 83/83/83 82/82/82 58/58/58
f 59/59/59 83/83/83 58/58/58
f 84/84/84 83/83/83 59/59/59
f 60/60/60 84/84/84 59/59/59
f 85/85/85 84/84/84 60/60/60
f 61/61/61 85/85/85 60/60/60
f 86/86/86 85/85/85 61/61/61
f 62/62/62 86/86/86 61/61/61
f 87/87/87 86/86/86 62/62/62
f 63/63/63 87/87/87 62/62/62
f 88/88/88 87/87/87 63/63/63
f 64/64/64 88/88/88 63/63/63
f 89/89/89 88/88/88 64/64/64
f 65/65/65 89/89/89 64/64/64
f 90/90/90 89/89/89 65/65/65
f 66/66/66 90/90/90 65/65/65
f 91/91/91 90/90/90 66/66/66
f 67/67/67 91/91/91 66/66/66
f 92/92/92 91/91/91 67/67/67
f 68/68/68 92/92/92 67/67/67
f 93/93/93 92/92/92 68/68/68
f 69/69/69 93/93/93 68/68/68
f 94/94/94 93/93/93 69/69/69
f 70/70/70 94/94/94 69/69/69
f 95/95/95 94/94/94 70/70/70
f 71/71/71 95/95/95 70/70/70
f 96/96/96 95/95/95 71/71/71
f 72/72/72 96/96/96 71/71/71
f 97/97/97 96/96/96 72/72/72
f 73/73/73 97/97/97 72/72/72
f 98/98/98 97/97/97 73/73/73
f 74/74/74 98/98/98 73/73/73
f 99/99/99 98/98/98 74/74/74
f 75/75/75 99/99/99 74/74/74
f 100/100/100 99/99/99 75/75/75
f 77/77/77 101/101/101 76/76/76
f 102/102/102 101/101/101 77/77/77
f 78/78/78 102/102/102 77/77/77
f 103/103/103 102/102/102 78/78/78
f 79/79/79 103/103/103 78/78/78
f 104/104/104 103/103/103 79/79/79
f 80/80/80 104/104/104 79/79/79
f 105/105/105 104/104/104 80/80/80
f 81/81/81 105/105/105 80/80/80
f 106/106/106 105/105/105 81/81/81
f 82/82/82 106/106/106 81/81/81
f 107/107/107 106/106/106 82/82/82
f 83/83/83 107/107/107 82/82/82
f 108/108/108 107/107/107 83/83/83
f 84/84/84 108/108/108 83/83/83
f 109/109/109 108/108/108 84/84/84
f 85/85/85 109/109/109 84/84/84
f 110/110/110 109/109/109 85/85/85
f 86/86/86 110/110/110 85/85/85
f 111/111/111 110/110/110 86/86/86
f 87/87/87 111/111/111 86/86/86
f 112/112/112 111/111/111 87/87/87
f 88/88/88 112/112/112 87/87/87
f 113/113/113 112/112/112 88/88/88
f 89/89/89 113/113/113 88/88/88
f 114/114/114 113/113/113 89/89/89
f 90/90/90 114/114/114 89/89/89
f 115/115/115 114/114/114 90/90/90
f 91/91/91 115/115/115 90/90/90
f 116/116/116 115/115/115 91/91/91
f 92/92/92 116/116/116 91/91/91
f 117/117/117 116/116/116 92/92/92
f 93/93/93 117/117/117 92/92/92
f 118/118/118 117/117/117 93/93/93
f 94/94/94 118/118/118 93/93/93
f 119/119/119 118/118/118 94/94/94
f 95/95/95 119/119/119 94/94/94
f 120/120/120 119/119/119 95/95/95
f 96/96/96 120/120/120 95/95/95
f 121/121/121 120/120/120 96/96/96
f 97/97/97 121/121/121 96/96/96
f 122/122/122 121/121/121 97/97/97
f 98/98/98 122/122/122 97/97/97
f 123/123/123 122/122/122 98/98/98
f 99/99/99 123/123/123 98/98/98
f 124/124/124 123/123/123 99/99/99
f 100/100/100 124/124/124 99/99/99
f 125/125/125 124/124/124 100/100/100
f 102/102/102 126/126/126 101/101/101
f 127/127/127 126/126/126 102/102/102
f 103/103/103 127/127/127 102/102/102
f 128/128/128 127/127/127 103/103/103
f 104/104/104 128/128/128 103/103/103
f 129/129/129 128/128/128 104/104/104
f 105/105/105 129/129/129 104/104/104
f 130/130/130 129/129/129 105/105/105
f 106/106/106 130/130/130 105/105/105
f 131/131/131 130/130/130 106/106/106
f 107/107/107 131/131/131 106/106/106
f 132/132/132 131/131/131 107/107/107
f 108/108/108 132/132/132 107/107/107
f 133/133/133 132/132/132 108/108/108
f 109/109/109 133/133/133 108/108/108
f 134/134/134 133/133/133 109/109/109
f 110/110/110 134/134/134 109/109/109
f 135/135/135 134/134/134 110/110/110
f 111/111/111 135/135/135 110/110/110
f 136/136/136 135/135/135 111/111/111
f 112/112/112 136/136/136 111/111/111
f 137/137/137 136/136/136 112/112/112
f 113/113/113 137/137/137 112/112/112
f 138/138/138 137/137/137 113/113/113
f 114/114/114 138/138/138 113/113/113
f 139/139/139 138/138/138 114/114/114
f 115/115/115 139/139/139 114/114/114
f 140/140/140 139/139/139 115/115/115
f 116/116/116 140/140/140 115/115/115
f 141/141/141 140/140/140 116/116/116
f 117/117/117 141/141/141 116/116/116
f 142/142/142 141/141/141 117/117/117
f 118/118/118 142/142/142 117/117/117
f 143/143/143 142/142/142 118/118/118
f 119/119/119 143/143/143 118/118/118
f 144/144/144 143/143/143 119/119/119
f 120/120/120 144/144/144 119/119/119
f 145/145/145 144/144/144 120/120/120
f 121/121/121 145/145/145 120/120/120
f 146/146/146 145/145/145 121/121/121
f 122/122/122 146/146/146 121/121/121
f 147/147/147 146/146/146 122/122/122
f 123/123/123 147/147/147 122/122/122
f 148/148/148 147/147/147 123/123/123
f 124/124/124 148/148/148 123/123/123
f 149/149/149 148/148/148 124/124/124
f 125/125/125 149/149/149 124/124/124
f 150/150/150 149/149/149 125/125/125
